<svg width="146" height="30" viewBox="0 0 146 30" fill="none" xmlns="http://www.w3.org/2000/svg">
<path d="M50.9932 8.38649L51 5.02881L37.0408 5L37.034 8.35769C37.034 8.35769 41.6422 8.36711 41.893 8.36764L41.8658 21.6235C41.6145 21.6235 37.0068 21.6135 37.0068 21.6135L37 24.9712L50.9592 25L50.966 21.6423C50.966 21.6423 45.9169 21.6318 45.665 21.6313L45.6923 8.37549C45.9436 8.37549 50.9932 8.38649 50.9932 8.38649Z" fill="#CAC1B6"/>
<path fill-rule="evenodd" clip-rule="evenodd" d="M58 30V0L87 0.00189554V30.0019L58 30ZM78.073 15.9164C78.182 15.9046 80.9895 15.5496 81 10.2108C81.0107 4.7662 76.202 5.0238 76.202 5.0238L65.0392 5L65 24.9921L68.7786 25L68.7939 17.2354C68.7939 17.2354 72.658 17.1539 74.8906 17.1587C77.1231 17.1634 77.116 20.5546 77.116 20.5546L77.1074 24.9281L80.9715 24.9365C80.9715 24.9365 80.9725 24.4906 80.9806 20.2954C80.9886 16.1751 78.1734 15.924 78.073 15.9164ZM68.8 14.023C68.8 14.023 71.7191 13.9394 74.1237 13.9447C76.5282 13.95 77.1298 13.4158 77.1348 10.9164C77.1404 8.06056 74.2203 8.50066 74.2203 8.50066L68.8107 8.48902L68.8 14.023Z" fill="#CAC1B6"/>
<path d="M93.0405 5L93.0342 8.28328L95.7864 8.28854L95.759 21.6883L93.0063 21.6825L93 24.9653L109.959 25L109.972 18.5228L106.598 18.516L106.592 21.7104L99.3995 21.6957L99.4106 16.2824L104.738 16.2935L104.744 13.0102L99.4174 12.9992L99.4269 8.29643L106.353 8.31063L106.346 11.505L109.987 11.5124L110 5.03418L93.0405 5Z" fill="#CAC1B6"/>
<path fill-rule="evenodd" clip-rule="evenodd" d="M117 30V0L146 0.00189555V30.0019L117 30ZM140 12.0076L139.989 17.5532L139.989 17.5538C139.989 17.5538 140.319 24.9484 133.254 24.9337C126.189 24.9191 123 25 123 25L123.04 5.01834L131.398 5.03555C131.398 5.03555 140.016 4.08554 140 12.0076ZM133.088 21.5004C136.018 21.5062 136.111 17.6331 136.111 17.6331H136.112C136.112 17.6331 136.113 17.0175 136.122 12.5282C136.131 8.03846 132.856 8.29618 132.856 8.29618L126.997 8.28418L126.971 21.4879C126.971 21.4879 130.158 21.4942 133.088 21.5004Z" fill="#CAC1B6"/>
<path fill-rule="evenodd" clip-rule="evenodd" d="M0 30V0L29 0.00189554V30.0019L0 30ZM7.04692 5.0079L3 5L7.09542 24.99L12.041 25L15.5783 10.4429L18.7858 24.9247L23.8225 24.9347L28 5.05053L24.1332 5.04263L21.4033 20.4898L17.8382 5.11895L13.4315 5.02105L9.8035 20.1997L7.04692 5.0079Z" fill="#CAC1B6"/>
</svg>
