<svg width="127" height="33" viewBox="0 0 127 33" fill="none" xmlns="http://www.w3.org/2000/svg">
<path fill-rule="evenodd" clip-rule="evenodd" d="M26.9994 1.37776L27 1.05579L20.9859 1.04359L20.9853 1.36556L23.7461 1.37137L16.6776 24.2522L8.40787 1.33999L11.1456 1.34522L11.1461 1.02325L0.000578059 1L0 1.32255L2.9325 1.32836L14.3804 33L24.3415 1.37253L26.9994 1.37776Z" fill="#CAC1B6"/>
<path fill-rule="evenodd" clip-rule="evenodd" d="M69.5865 19.5326L72.4316 19.5384L72.4144 28.015V28.0964C72.4133 28.6646 72.3891 29.221 72.0922 29.719C70.939 31.6295 68.6377 32.7384 66.4754 32.7337C63.7554 32.7279 62.2903 31.4148 61.2824 28.7459C59.8449 24.9394 59.5347 20.7526 59.5428 16.6946C59.552 12.1608 60.1676 0.276798 66.6775 0.290257C69.5112 0.296109 71.6799 2.82867 73.041 5.08094C74.1868 7.00845 74.842 9.1314 75.3049 11.3123H75.5554L75.5777 0.239348H75.3273C74.5635 0.816899 73.6745 1.47637 72.6843 1.47403C71.8878 1.47228 71.0803 1.20369 70.3411 0.923983L69.6927 0.667684C68.806 0.305471 67.8618 0.00177435 66.9055 1.88782e-05C64.4589 -0.00524754 62.1577 1.09192 60.2544 2.58349C56.0142 5.9025 54.0109 11.592 54 16.9146C53.9857 24.1963 58.2695 32.983 66.3502 33C68.1139 33.0035 69.6404 32.485 71.2348 31.7694L71.9412 31.3768C72.7274 30.9379 73.6044 30.6149 74.5032 30.6166C75.7437 30.619 76.7097 31.3054 77.322 32.3505H77.5385L77.5643 19.5495L80 19.5548V19.2184L69.587 19.1967V19.5332L69.5865 19.5326Z" fill="#CAC1B6"/>
<path fill-rule="evenodd" clip-rule="evenodd" d="M126.748 20.5956C126.689 21.7515 126.595 22.9192 126.399 24.064C126.042 26.1098 125.024 28.0039 123.563 29.458C121.85 31.166 119.444 32.2245 117.028 32.2198L112.368 32.2099L112.399 16.5769C112.958 16.532 113.505 16.4982 114.063 16.4993C117.607 16.5069 118.933 19.7933 119.417 22.8585H119.701L119.727 10.0357H119.443C119.265 13.4114 118.245 16.1381 114.337 16.13C113.687 16.1288 113.038 16.0809 112.401 16.0103L112.43 1.39446L115.541 1.40087C118.424 1.40671 121.226 1.6442 123.284 4.01852C125.319 6.37009 125.882 9.45863 126.206 12.4655H126.423L126.446 1.09978L97.7436 1.04026V1.36411L101.229 1.37112L101.18 25.6535C101.173 29.4574 98.0794 32.0413 94.4108 32.0337C91.0039 32.0267 87.1116 29.6827 87.1197 25.8437L87.1691 1.34136L90.1201 1.34719V1.02334L79 1V1.32385L82.0418 1.33027L81.9946 24.7106C81.9831 30.5148 87.4929 32.9895 92.4955 33C96.9167 33.0093 101.638 30.7873 101.648 25.7457L101.697 1.37053L107.212 1.3822L107.15 32.1976L104.541 32.1924V32.5162L126.976 32.5629L127 20.595H126.749L126.748 20.5956Z" fill="#CAC1B6"/>
<path fill-rule="evenodd" clip-rule="evenodd" d="M37.6374 2.23721e-05C33.6323 -0.00812663 30.0256 2.21073 27.6253 5.32016C25.1906 8.48721 24.0082 12.4872 24 16.4668C23.9913 20.6077 25.2603 24.7974 27.8779 28.0436C30.1737 30.8975 33.7258 32.9924 37.4434 33C41.4142 33.0081 44.9982 30.7549 47.3747 27.6682C49.7977 24.5012 50.9918 20.5012 51 16.5332C51.0087 12.3923 49.7164 8.19093 47.1105 4.94472C44.8489 2.12575 41.3201 0.0075893 37.6374 2.23721e-05ZM37.4672 32.5268C31.2755 32.514 29.676 21.0687 29.6853 16.4779C29.6946 11.8871 31.3289 0.459859 37.5322 0.472664C43.7123 0.48547 45.3234 11.9307 45.3141 16.5105C45.3048 21.0896 43.6473 32.5396 37.4672 32.5273V32.5268Z" fill="#CAC1B6"/>
</svg>
