<svg width="103" height="27" viewBox="0 0 103 27" fill="none" xmlns="http://www.w3.org/2000/svg">
<path d="M102.523 18.1074C101.907 16.8329 100.771 15.9592 98.3876 14.9279C96.4419 14.0859 95.4653 13.5041 94.87 12.8303C94.3872 12.284 94.2464 11.8428 94.295 11.027C94.3399 10.274 94.5195 9.82594 94.9792 9.32245C95.5683 8.67644 96.3777 8.45121 97.3458 8.66428C98.9338 9.01355 99.9515 10.1485 100.825 12.5448C101.136 13.3995 101.173 13.4267 101.736 13.2127L102.092 13.0774L102.082 12.0928C102.076 11.5519 102.052 10.415 102.027 9.56714L101.983 8.02507L101.718 7.9088C100.266 7.27203 97.4932 6.87167 95.686 7.03756C93.634 7.22582 92.1264 7.89372 90.9636 9.12836C89.8079 10.3557 89.2854 11.7976 89.3737 13.5094C89.4474 14.926 89.8519 15.9441 90.6981 16.8392C91.4824 17.6691 92.1415 18.0622 94.0323 18.8274C97.084 20.062 97.891 20.7912 97.8811 22.3056C97.8731 23.5845 97.213 24.519 96.0111 24.9529C95.582 25.1076 94.4968 25.1042 93.918 24.9456C92.4009 24.5306 91.2419 23.1744 90.2558 20.6613L90.0031 20.0173L89.7049 20.0309C89.541 20.0382 89.3156 20.0893 89.2032 20.1442L89 20.2439L89.017 21.3409C89.026 21.9441 89.0529 23.2162 89.0765 24.1677L89.1195 25.8976L89.4583 26.0484C90.1519 26.3568 92.236 26.8316 93.5457 26.979C93.7077 26.997 94.6012 27.0052 95.5315 26.9965C97.1455 26.9819 97.2617 26.9707 98.0739 26.7542C100.472 26.115 102.026 24.7432 102.717 22.6568C102.93 22.0166 102.959 21.8206 102.991 20.8666C103.034 19.5955 102.922 18.9349 102.522 18.1069L102.523 18.1074Z" fill="black"/>
<path d="M9.76639 2.06777L12.0809 2.07252C14.7403 2.07822 15.1755 2.13519 16.1163 2.6014C17.4805 3.27747 18.4757 4.6125 19.3409 6.92791C19.6934 7.87032 19.6887 7.86747 20.4764 7.62866L21 7.47009L20.9589 4.05987C20.9362 2.18456 20.897 0.516724 20.871 0.354355L20.8237 0.0585779L10.676 0.0167988C5.09489 -0.00598974 0.419618 -0.00551498 0.286363 0.0177484L0.0444239 0.060477L0.064743 0.666274L0.085062 1.27207L0.857187 1.36655C1.85944 1.48904 2.45767 1.77294 2.8116 2.29423C3.60971 3.46927 3.75242 5.06684 3.73493 12.6588C3.71651 20.7435 3.54545 22.7066 2.76907 23.7245C2.36883 24.2496 2.04467 24.4215 1.14024 24.5881C-0.0377976 24.806 0.00142306 24.7785 5.45234e-06 25.3905C-0.000467084 25.7313 0.0297753 25.9156 0.0907325 25.9407C0.223043 25.9948 13.2027 26.0257 13.3416 25.9721C13.5193 25.9037 13.5108 24.9404 13.3317 24.8469C13.2613 24.8098 12.8228 24.7215 12.3578 24.6508C11.8928 24.5801 11.3796 24.4637 11.2175 24.392C10.3684 24.0184 9.89728 22.9896 9.72339 21.129C9.59864 19.794 9.50413 17.3352 9.50791 15.5173L9.51122 13.8495L10.3018 13.8751C11.9854 13.9297 12.8558 14.0204 13.2069 14.178C13.9677 14.5179 14.5825 15.4637 14.9 16.783L15.0692 17.4857L15.6698 17.508L16.2704 17.5308L16.2794 13.0908L16.2883 8.6513L15.6882 8.67172L15.0876 8.69213L14.9109 9.39335C14.5683 10.7512 14.0121 11.5849 13.1961 11.9623C12.8639 12.1161 12.6281 12.1579 11.8352 12.2039C11.3078 12.2343 10.5697 12.2604 10.1955 12.2619L9.515 12.2642L9.51878 10.0661C9.52256 7.86225 9.65015 3.18299 9.72622 2.45518L9.76686 2.0673L9.76639 2.06777Z" fill="black"/>
<path d="M83.869 7.73997C81.7839 6.69479 78.5598 6.76379 76.1994 7.90275C73.9634 8.98291 72.4216 10.788 71.5585 13.339C71.1084 14.6675 70.9653 15.737 71.0068 17.4605C71.0332 18.5504 71.082 19.1135 71.1943 19.6169C72.0672 23.5318 74.7577 26.198 78.5261 26.8826C79.3556 27.0328 81.2401 27.0405 82.0793 26.8962C83.2773 26.6897 84.6599 26.1625 85.5319 25.5785C86.5966 24.8656 87.6892 23.7933 87.6897 23.4599C87.6897 23.2568 87.326 22.7879 87.1669 22.7874C87.097 22.7874 86.8017 22.9395 86.5102 23.1266C85.4689 23.7937 84.4734 24.0663 83.0908 24.0634C81.1834 24.0595 79.9761 23.5838 78.7629 22.3608C78.2259 21.819 78.0052 21.5265 77.7284 20.9906C77.1186 19.8113 76.7906 18.4561 76.7442 16.9245L76.7242 16.2627L82.3473 16.2545L87.9704 16.2467L87.9963 15.8687C88.01 15.6602 87.9846 15.1165 87.9377 14.6583C87.594 11.2594 86.2163 8.91634 83.869 7.73948V7.73997ZM78.1903 14.6228L76.7657 14.6427L76.7676 14.3371C76.7686 14.1685 76.8179 13.7244 76.877 13.3507C77.3579 10.3065 78.5032 8.48 79.9317 8.48194C81.2464 8.48291 82.0529 10.2856 82.214 13.5815L82.2599 14.5164L80.9379 14.5596C80.2104 14.5834 78.9743 14.6121 78.1912 14.6228H78.1903Z" fill="black"/>
<path d="M50.0177 7.00003C49.181 6.99814 48.7291 7.09163 48.0515 7.40703C46.8171 7.98164 45.8875 8.92501 45.0577 10.4458L44.7983 10.9208L44.8334 10.0757C44.8528 9.61106 44.8852 8.74276 44.9051 8.1469L44.9421 7.0633H44.7645C44.5365 7.06235 37.4022 8.5029 37.1867 8.59261C37.0466 8.65116 37.0244 8.71443 37.0239 9.06477C37.023 9.42455 37.041 9.47271 37.1849 9.50388C37.2737 9.52323 37.6016 9.58934 37.9124 9.65072C38.5428 9.77537 38.7301 9.87546 38.9891 10.2277C39.4674 10.8769 39.564 12.0205 39.5492 16.8629C39.5372 20.8219 39.4521 22.7937 39.2671 23.4094C39.0405 24.1653 38.639 24.551 37.9415 24.6823C37.7163 24.7248 37.4184 24.7838 37.2797 24.814L37.0276 24.8683L37.0049 25.3764C36.9892 25.7328 37.0105 25.9024 37.0757 25.9453C37.127 25.9788 39.5663 26.0034 42.4963 25.9996L47.8235 25.9935L47.8457 25.4241C47.8578 25.1105 47.842 24.8542 47.811 24.8542C47.3976 24.8527 46.1298 24.6729 45.9296 24.5869C45.3292 24.3291 45.0397 23.7786 44.9162 22.6605C44.7714 21.3484 44.6909 18.0867 44.7367 15.4129C44.783 12.7131 44.7839 12.7023 44.9495 12.5214C45.3366 12.0998 46.3148 11.7726 47.1904 11.7721C47.8934 11.7721 48.6172 11.9586 49.3882 12.3382C49.7578 12.5205 50.0991 12.6546 50.1458 12.6362C50.2425 12.5984 51.9995 7.88768 52 7.66577C52.0005 7.33526 51.0098 7.00286 50.0177 7.0005V7.00003Z" fill="black"/>
<path d="M64.2019 7.755C63.7719 7.663 63.3837 7.64393 62.5452 7.67158C61.2862 7.71401 60.4192 7.90373 59.4776 8.34325C59.1653 8.48913 58.8928 8.6083 58.8717 8.6083C58.8506 8.6083 58.8577 6.67194 58.8881 4.30511C58.9294 0.970101 58.9214 0.001442 58.8539 1.18948e-05C58.6162 -0.00475513 51.1595 1.42487 51.0774 1.49114C51.0164 1.53976 50.9902 1.70041 51.0033 1.94305C51.0268 2.36493 50.9775 2.33156 51.8858 2.54083C52.1597 2.60376 52.4795 2.72484 52.5967 2.81065C52.8996 3.03088 53.1509 3.50663 53.324 4.18784C53.4609 4.72604 53.4782 5.11026 53.5345 8.74511C53.5922 12.4558 53.5716 16.2708 53.4571 23.2597L53.4098 26.1624L53.9444 26.2868C54.7167 26.467 56.9285 26.846 57.6521 26.9218C58.7142 27.0333 61.1901 27.0238 61.9783 26.9046C65.4023 26.3874 67.987 24.3743 69.1949 21.2833C69.5157 20.4644 69.8242 19.2016 69.9335 18.2644C70.062 17.1646 69.9959 14.968 69.8078 14.0837C69.0876 10.6943 67.0112 8.35088 64.2014 7.75405L64.2019 7.755ZM58.966 25.2543C58.8731 25.005 58.7798 16.308 58.8323 12.8338L58.8731 10.1223L59.3571 9.97882C59.6801 9.88253 60.0595 9.83581 60.5017 9.83676C61.1188 9.83819 61.199 9.85631 61.7185 10.1194C62.9719 10.752 63.8291 12.3199 64.2239 14.7034C64.3703 15.5848 64.3839 17.9893 64.2479 19.0452C63.9149 21.6356 63.077 23.725 61.9671 24.7366C61.5239 25.1394 61.1118 25.3534 60.5809 25.454C60.1964 25.5279 60.0811 25.5293 59.3857 25.4721C59.0902 25.4478 59.0251 25.414 58.9655 25.2547L58.966 25.2543Z" fill="black"/>
<path d="M35.9466 15.4265C35.571 12.0703 34.2008 9.61127 31.9338 8.22438C29.4151 6.68302 25.5821 6.58635 22.8563 7.99461C20.8884 9.01183 19.2779 10.9753 18.5599 13.2332C17.8185 15.563 17.8133 18.6229 18.5449 21.0051C19.0135 22.5305 19.6516 23.6444 20.6372 24.6582C21.8182 25.8736 23.3668 26.6528 25.1384 26.9234C25.7728 27.0205 27.774 27.0268 28.4304 26.9336C28.7404 26.8894 29.2771 26.7694 29.6236 26.6664C32.8377 25.7109 35.0357 23.1615 35.7954 19.507C35.9814 18.6142 36.0617 16.4505 35.9466 15.426V15.4265ZM27.7919 25.4612C25.7934 26.0703 24.3669 24.0995 23.8213 19.9734C23.6447 18.6404 23.6532 15.0087 23.8358 13.4849C24.2331 10.1694 25.2262 8.48719 26.7861 8.48767C27.4885 8.48767 27.8782 8.66644 28.4262 9.23966C29.7321 10.6057 30.3472 13.2114 30.3293 17.3026C30.3148 20.567 29.9974 22.6228 29.2911 24.0116C28.9493 24.6849 28.3098 25.3028 27.7919 25.4607V25.4612Z" fill="black"/>
</svg>
