<svg width="112" height="33" viewBox="0 0 112 33" fill="none" xmlns="http://www.w3.org/2000/svg">
<path fill-rule="evenodd" clip-rule="evenodd" d="M0.0672616 0L23 0.0471013L22.9327 33L0 32.9529L0.0672616 0ZM3.31206 29.6419L19.6224 29.6756L19.6763 3.35873L3.36598 3.325L3.31206 29.6419Z" fill="#CAC1B6"/>
<path fill-rule="evenodd" clip-rule="evenodd" d="M37.3385 10.8404H37.3039C35.3925 8.01367 33.4622 5.51602 31.5137 3.00278L30.0243 3L30 13.9827L31.645 13.9861L31.6627 6.10897H31.6767C33.6063 8.95126 35.539 11.4662 37.4875 13.9972L38.9757 14L39 3.01726L37.3556 3.01392L37.3379 10.8404H37.3385Z" fill="#CAC1B6"/>
<path fill-rule="evenodd" clip-rule="evenodd" d="M48 14L44.4694 3.00334L42.8754 3L39 13.9816L40.6562 13.985L41.6313 10.9877L44.9945 10.9944L45.8639 13.9955L47.9994 14H48ZM42.1309 9.63844C42.5775 8.19443 43.0269 6.86128 43.4293 5.16602H43.4616C43.903 6.86351 44.2993 8.19833 44.7108 9.64401L42.1315 9.639L42.1309 9.63844Z" fill="#CAC1B6"/>
<path fill-rule="evenodd" clip-rule="evenodd" d="M49.9962 13.9961L51.9625 14L51.9828 4.48316L54.9971 4.48929L55 3.0156L47.0029 3L47 4.47369L50.0166 4.47926L49.9962 13.9961Z" fill="#CAC1B6"/>
<path d="M55 4V15L57 15V4.00001L55 4Z" fill="#CAC1B6"/>
<path fill-rule="evenodd" clip-rule="evenodd" d="M63.9901 15C67.069 15.0065 68.9928 12.31 69 8.84353C69.0066 5.59589 66.8946 3.00589 64.0152 3.00001C61.1382 2.99413 59.0066 5.57589 59 8.82353C58.9929 12.29 60.9089 14.9941 63.9901 15ZM64.0116 4.65707C66.0143 4.66118 66.848 6.70177 66.8439 8.83941C66.8391 11.0612 66.0955 13.347 63.9937 13.3429C61.8878 13.3388 61.1525 11.05 61.1573 8.82823C61.1615 6.69059 62.0072 4.65295 64.0122 4.65707H64.0116Z" fill="#CAC1B6"/>
<path fill-rule="evenodd" clip-rule="evenodd" d="M71.6595 6.10897H71.6766C73.6049 8.95126 75.5362 11.4662 77.4858 13.9972L78.9757 14L79 3.01726L77.3538 3.01392L77.3362 10.8404H77.2997C75.3915 8.01367 73.4595 5.51602 71.513 3.00278L70.0243 3L70 13.9827L71.6425 13.9861L71.6601 6.10897H71.6595Z" fill="#CAC1B6"/>
<path fill-rule="evenodd" clip-rule="evenodd" d="M81.6337 10.9877L84.9949 10.9944L85.866 13.9955L88 14L84.4698 3.00334L82.8773 3L79 13.9816L80.6574 13.985L81.6331 10.9877H81.6337ZM83.4307 5.16602H83.4624C83.905 6.86351 84.2996 8.19833 84.7094 9.64401L82.1295 9.639C82.5794 8.19499 83.026 6.86184 83.4302 5.16657L83.4307 5.16602Z" fill="#CAC1B6"/>
<path fill-rule="evenodd" clip-rule="evenodd" d="M94 12.5238L90.0104 12.516L90.0313 3.0039L88.0239 3L88 13.9883L93.9964 14L94 12.5238Z" fill="#CAC1B6"/>
<path fill-rule="evenodd" clip-rule="evenodd" d="M34.9757 28.0638C34.5524 28.2802 34.0955 28.3426 33.5599 28.3414C31.827 28.3379 30.1461 26.7117 30.1521 23.9627C30.1575 21.3266 31.6264 19.6556 33.7785 19.6604C34.5512 19.6621 35.3937 19.9462 35.9311 20.2756L36.5904 18.9016C35.9186 18.4047 34.8241 18.0024 33.7325 18C30.1993 17.993 28.0066 20.7549 28 23.9221C27.9929 27.3363 30.1748 29.9929 33.6417 30C34.7828 30.0023 35.9114 29.7071 36.9899 29.2942L37 24.5055L34.9835 24.5014L34.9763 28.0644L34.9757 28.0638Z" fill="#CAC1B6"/>
<path fill-rule="evenodd" clip-rule="evenodd" d="M41.0333 23.9699L44.3342 23.976L44.3372 22.5004L41.0363 22.4937L41.0428 19.4817L44.4149 19.4884L44.4185 18.01L39.0239 18L39 28.9889L44.997 29L45 27.5227L41.0255 27.5149L41.0333 23.9699Z" fill="#CAC1B6"/>
<path fill-rule="evenodd" clip-rule="evenodd" d="M50.0143 18C47.1313 17.9941 45.0066 20.5767 45 23.8244C44.9928 27.2886 46.9031 29.9941 49.9892 30C53.0688 30.0065 54.9928 27.3092 55 23.8444C55.0066 20.5967 52.892 18.0053 50.0143 18ZM49.9928 28.342C47.886 28.3379 47.1487 26.0512 47.1535 23.8286C47.1576 21.693 48.0043 19.6562 50.0108 19.6598C52.0124 19.6639 52.8483 21.7042 52.8442 23.8397C52.8394 26.0623 52.0931 28.3461 49.9928 28.342Z" fill="#CAC1B6"/>
<path fill-rule="evenodd" clip-rule="evenodd" d="M62.9754 28.0638C62.5527 28.2802 62.1007 28.3426 61.5604 28.3414C59.8277 28.3379 58.1464 26.7117 58.1524 23.9627C58.1578 21.3266 59.6253 19.6556 61.7819 19.6604C62.5575 19.6621 63.3927 19.9462 63.9295 20.2756L64.5904 18.9016C63.9193 18.4047 62.8285 18.0024 61.7347 18C58.2014 17.993 56.0066 20.7549 56 23.9221C55.9929 27.3363 58.1757 29.9929 61.6404 30C62.7855 30.0023 63.9104 29.7071 64.9899 29.2942L65 24.5055L62.9832 24.5014L62.976 28.0644L62.9754 28.0638Z" fill="#CAC1B6"/>
<path fill-rule="evenodd" clip-rule="evenodd" d="M72.6861 21.1838C72.6908 19.0475 71.321 18.0106 69.1079 18.0061L66.0234 18L66 28.9861L67.9847 28.99L67.9935 24.8472L68.8836 24.8488L70.7366 28.9955L73 29L70.6786 24.4462C71.9506 23.8069 72.6838 22.5026 72.6867 21.1838H72.6861ZM68.8186 23.4348C68.6201 23.4538 68.1569 23.4683 67.9964 23.4816L68.0052 19.4819L68.8778 19.4836C70.0467 19.4858 70.7067 20.1274 70.7043 21.259C70.7014 22.7326 69.7609 23.3892 68.8192 23.4348H68.8186Z" fill="#CAC1B6"/>
<path fill-rule="evenodd" clip-rule="evenodd" d="M76.878 18L73 28.9816L74.6561 28.985L75.6351 25.9873L78.997 25.994L79.8618 28.9955L82 29L78.4691 18.0033L76.8768 18H76.878ZM76.1325 24.6398C76.5801 23.1942 77.0278 21.8622 77.4319 20.1676H77.4635C77.9061 21.8644 78.3006 23.1975 78.7115 24.6453L76.1319 24.6403L76.1325 24.6398Z" fill="#CAC1B6"/>
<path fill-rule="evenodd" clip-rule="evenodd" d="M86.2553 18.0061L83.0245 18L83 28.9961L85.0744 29L85.0836 24.8534L86.0144 24.8551C88.4867 24.8595 89.9957 23.0396 90 21.1867C90.0049 19.0485 88.5719 18.0106 86.2559 18.0061H86.2553ZM85.9524 23.4398C85.7366 23.4571 85.2295 23.4705 85.086 23.4838L85.0952 19.4833L86.026 19.485C87.2352 19.4872 87.9275 20.1293 87.925 21.262C87.9219 22.7369 86.9384 23.3941 85.9524 23.4398Z" fill="#CAC1B6"/>
<path fill-rule="evenodd" clip-rule="evenodd" d="M97.0299 22.2324L92.9544 22.2246L92.9637 18.0033L91.0232 18L91 28.9844L92.9405 28.9883L92.9515 23.7024L97.0264 23.7102L97.0154 28.9961L98.9768 29L99 18.0462L97.0386 18.0423L97.0299 22.2324Z" fill="#CAC1B6"/>
<path d="M101 19V30L103 30V19L101 19Z" fill="#CAC1B6"/>
<path fill-rule="evenodd" clip-rule="evenodd" d="M109.451 28.342C107.592 28.3379 106.028 26.7117 106.033 23.9627C106.039 21.3266 107.462 19.6556 109.418 19.6598C110.158 19.6615 110.922 20.0097 111.387 20.3103L112 18.9011C111.341 18.4376 110.416 18.0018 109.421 18C106.076 17.993 104.006 20.7549 104 23.9221C103.993 27.3363 106.07 29.9929 109.37 30C110.296 30.0018 111.319 29.6224 111.899 29.2101L111.373 27.7656C110.875 28.0962 110.188 28.3444 109.451 28.3426L109.451 28.342Z" fill="#CAC1B6"/>
</svg>
