<svg width="92" height="33" viewBox="0 0 92 33" fill="none" xmlns="http://www.w3.org/2000/svg">
<path fill-rule="evenodd" clip-rule="evenodd" d="M90.9249 10.0057C90.9276 8.42456 89.9307 6.54498 87.8213 6.54015C86.6078 6.53713 85.3376 7.30624 85.5211 9.12238C85.639 10.2987 87.3165 10.724 88.2401 11.043C90.9293 11.9735 92.0044 13.0972 92 15.2879C91.9961 17.4261 90.3308 19.0066 87.3755 19C85.9245 18.997 84.3154 18.6761 83.3411 17.6974L83 14.5285H83.2788C83.7004 17.3542 84.8158 18.4635 87.4824 18.5432C89.1901 18.5946 89.696 17.5312 89.6883 16.2117C89.6811 14.8995 88.3949 14.3285 86.8657 13.7703C84.6769 12.9993 83.3251 12.0738 83.3295 9.7779C83.334 7.42768 85.191 5.99398 87.9353 6.00002C88.9906 6.00244 90.3022 6.43986 91.1717 6.9969L91.1662 10.0063H90.9254L90.9249 10.0057Z" fill="#CAC1B6"/>
<path fill-rule="evenodd" clip-rule="evenodd" d="M81.139 6.6993C81.7911 6.25557 82.2838 5.87104 82.6167 5.54514C83.2115 4.96307 83.5097 4.41442 83.5109 3.90035C83.5109 3.76085 83.4769 3.64361 83.4048 3.54514C83.3272 3.45487 83.2186 3.40915 83.076 3.40915C82.8356 3.44432 82.6805 3.46132 82.6095 3.46132C82.143 3.46014 81.7582 3.30422 81.4546 2.99414C81.1497 2.68406 80.9994 2.28664 81 1.80012C81.0012 1.26437 81.1652 0.830017 81.491 0.498247C81.8173 0.164719 82.2599 -0.00116616 82.8183 6.17014e-06C83.4346 0.0011785 83.9512 0.222749 84.3718 0.665305C84.7912 1.10786 84.9845 1.73154 84.9988 2.23916C85.0244 3.13541 84.6504 4.28078 83.6303 5.32591C83.0737 5.89684 82.3089 6.45897 81.3251 7L81.139 6.6993Z" fill="#CAC1B6"/>
<path fill-rule="evenodd" clip-rule="evenodd" d="M54.8864 23.2102L54.8782 26.9442C54.8876 28.0746 55.4112 28.4274 55.9307 28.4285C56.2885 28.429 56.5605 28.3373 56.9194 28.2169L57 28.4483C56.4496 28.7324 55.8624 29.0016 55.0697 29C54.5029 28.9989 53.1055 28.8066 53.1085 27.5212L53.1178 23.2063L52 23.2041L52.0012 22.7843L53.2958 22.7871L54.5198 21H54.8917L54.8876 22.7898L56.8494 22.7937L56.8482 23.2135L54.8864 23.2096V23.2102Z" fill="#CAC1B6"/>
<path fill-rule="evenodd" clip-rule="evenodd" d="M50.4032 25.1564C50.4049 24.3053 49.8506 23.2934 48.6785 23.2909C48.0046 23.2897 47.299 23.7036 47.3999 24.6812C47.4657 25.3149 48.3985 25.5438 48.9115 25.716C50.4049 26.216 51.0023 26.8208 51 28.0014C50.9977 29.1525 50.0716 30.0036 48.4314 30C47.6238 29.9982 46.7306 29.8259 46.1893 29.2988L46 27.5924H46.1553C46.3894 29.1139 47.0083 29.7115 48.4904 29.7542C49.4391 29.7825 49.7202 29.2097 49.7163 28.4989C49.7117 27.793 48.9976 27.4858 48.148 27.1846C46.9323 26.7702 46.1808 26.2708 46.1831 25.0354C46.1853 23.7692 47.2174 22.997 48.7426 23C49.3286 23.0012 50.0569 23.2367 50.5403 23.5367L50.5369 25.157H50.4032V25.1564Z" fill="#CAC1B6"/>
<path fill-rule="evenodd" clip-rule="evenodd" d="M78.5116 6.00058C77.5791 5.99884 76.4434 6.52002 75.2101 8.06786L75.2141 6L71.1598 6.60145V6.94115C71.1598 6.94115 72.0535 6.83994 72.4153 6.80911L72.3959 16.6092C72.3925 17.0129 72.3303 17.5376 71.6575 17.5364L71.0011 17.5347L71 17.9878L76.7858 18H76.7921L76.7869 17.5469L76.0793 17.5451C75.5702 17.544 75.1918 17.3159 75.193 16.6144L75.2067 9.74716C75.3636 8.2319 76.295 7.36636 76.7213 7.3652C77.5374 7.36345 77.5066 7.95793 78.232 8.3081C79.2044 8.68968 79.9989 8.01842 80 7.25526C80.0017 6.53398 79.5229 6.00233 78.511 6.00058H78.5116Z" fill="#CAC1B6"/>
<path fill-rule="evenodd" clip-rule="evenodd" d="M23.3063 6.45517C26.5926 6.44114 26.4512 10.616 26.4512 10.6289C26.45 11.2216 25.8636 11.1554 25.8636 11.1554L20.9588 11.1464C20.9588 11.1464 20.3818 11.1722 20.3836 10.5807C20.3836 10.5723 20.3812 10.5655 20.3807 10.5577C20.442 9.18381 20.8345 6.46527 23.3063 6.45573V6.45517ZM20.9376 11.6852L25.1174 11.6936L27.8509 11.6986L28.9601 11.7009C28.9601 11.7009 29.1004 10.7726 28.8546 9.66702C28.7244 9.03228 28.4533 8.31561 27.9187 7.68424C27.9152 7.67862 27.9105 7.67245 27.9052 7.66684C27.1113 6.74027 25.7463 6.00451 23.4206 6.00002C19.2078 5.9916 17.0071 8.58499 17 12.0741C16.9924 15.7113 18.9249 17.9916 23.4242 18C26.4141 18.0056 27.983 16.6721 28.7851 14.7937L28.4663 14.6394C27.4054 16.6244 26.1082 17.3972 24.0354 17.3888C20.9954 17.3748 20.3659 14.6518 20.3406 12.3255C20.3447 12.3047 20.3482 12.2834 20.3482 12.2587C20.3494 11.8928 20.5993 11.6852 20.9388 11.6857L20.9376 11.6852Z" fill="#CAC1B6"/>
<path fill-rule="evenodd" clip-rule="evenodd" d="M42.6789 23.266C44.5959 23.2589 44.522 25.6096 44.522 25.6172C44.5214 25.963 44.1788 25.9234 44.1788 25.9234L41.3185 25.9187C41.3185 25.9187 40.9828 25.9335 40.9834 25.5889C40.9834 25.5841 40.9822 25.58 40.9822 25.5747C41.0169 24.7738 41.2372 23.2719 42.6789 23.266ZM41.2974 26.3165L43.7351 26.3212L45.3294 26.3242L45.9767 26.3253C45.9767 26.3253 46.0586 25.7845 45.9153 25.1391C45.8389 24.7691 45.6813 24.3506 45.3698 23.983C45.3667 23.98 45.3642 23.9759 45.3617 23.9729C44.8987 23.4321 44.1019 23.003 42.7459 23C40.2884 22.9953 39.0044 24.5084 39 26.5429C38.9957 28.6654 40.1233 29.9953 42.7471 30C44.491 30.0035 45.407 29.2257 45.8743 28.1293L45.6385 28.04C45.0197 29.1979 44.2626 29.6489 43.0537 29.6436C41.2801 29.6359 40.9642 28.0465 40.9493 26.6888C40.9518 26.677 40.9536 26.6646 40.9536 26.6498C40.9536 26.4371 41.1007 26.3147 41.2987 26.3153L41.2974 26.3165Z" fill="#CAC1B6"/>
<path fill-rule="evenodd" clip-rule="evenodd" d="M64.3066 6.45573C67.5933 6.4417 67.4513 10.6166 67.4513 10.6295C67.4501 11.2222 66.8637 11.1559 66.8637 11.1559L61.9598 11.147C61.9598 11.147 61.3828 11.1728 61.384 10.5812C61.384 10.5728 61.3823 10.5661 61.3811 10.5582C61.4435 9.18437 61.8349 6.46583 64.3066 6.45629V6.45573ZM61.9386 11.6857L66.1176 11.6936L68.851 11.6986L69.9607 11.7009C69.9607 11.7009 70.0998 10.7726 69.8546 9.66702C69.725 9.03228 69.4533 8.31561 68.9188 7.68424C68.9146 7.67862 68.9105 7.67245 68.9052 7.66684C68.1113 6.74027 66.7464 6.00451 64.4203 6.00002C60.2077 5.9916 58.0077 8.58499 58 12.0741C57.9924 15.7113 59.9248 17.9916 64.4238 18C67.413 18.0056 68.9824 16.6721 69.7839 14.7937L69.4657 14.6394C68.4048 16.6244 67.1077 17.3972 65.035 17.3888C61.9958 17.3748 61.3657 14.6518 61.3404 12.3255C61.3445 12.3047 61.3481 12.2834 61.3481 12.2587C61.3481 11.8928 61.5991 11.6852 61.9386 11.6857Z" fill="#CAC1B6"/>
<path fill-rule="evenodd" clip-rule="evenodd" d="M6.71596 8.48438L5.50369 8.48209C5.50369 8.48209 4.81363 8.5432 4.81537 7.78482C4.81537 7.7734 4.81304 7.76541 4.81246 7.75456L4.82524 1.55565C5.05933 1.48826 5.76392 1.46827 6.3413 1.46942C8.23201 1.47341 10.4004 2.06903 10.394 5.263C10.3893 7.63292 9.10796 8.48952 6.71654 8.48438H6.71596ZM9.67024 8.89212C11.9048 8.55576 13.4912 7.32797 13.4819 5.04485C13.4732 2.87309 12.2667 1.02456 7.8167 1.01542L0.0336902 1V1.40203L0.881172 1.40374C1.09377 1.40374 1.70774 1.47456 1.706 2.29518L1.67754 16.0384C1.68044 17.0366 0.82657 17.0098 0.82657 17.0098L0.000580865 17.0081V17.369L0 17.3844L6.55332 17.3976V17.3821L6.5539 17.0212L5.76102 17.0195C5.76102 17.0195 4.79388 17.14 4.79794 16.0447C4.79794 16.0339 4.80782 9.78698 4.80782 9.78698C4.8084 9.7767 4.8113 9.76813 4.8113 9.75671C4.81188 9.34611 4.97975 9.04573 5.50253 9.04688L6.38022 9.04859C7.77778 9.05145 10.2621 9.96743 10.976 13.8176C11.942 19.0228 16.5058 20.1632 21 19.9822V19.7458C11.9815 19.1056 16.6371 9.53685 9.66907 8.89155L9.67024 8.89212Z" fill="#CAC1B6"/>
<path fill-rule="evenodd" clip-rule="evenodd" d="M29.9973 22.9993C30.6003 23.0007 30.9989 22.5922 30.9996 22.0257C31.0155 21.4428 30.6039 21.0007 30.0163 21H30.0004C29.3975 20.9986 29.0012 21.4387 29 22.0216C28.9988 22.5887 29.3938 22.9986 29.9967 23L29.9973 22.9993Z" fill="#CAC1B6"/>
<path fill-rule="evenodd" clip-rule="evenodd" d="M30.5001 28.7108C30.4198 28.7015 30.2299 28.6492 30.2245 28.3676L30.2344 23L28.0802 23.3943L28.2921 23.6536C28.2921 23.6536 28.6435 23.61 28.6659 23.6133L28.6569 28.3273C28.6559 28.3355 28.6554 28.342 28.6554 28.3513C28.6544 28.6449 28.458 28.6961 28.3773 28.7053L28 28.7042V28.9935H28.0035L31 29V28.7108L30.4996 28.7097L30.5001 28.7108Z" fill="#CAC1B6"/>
<path fill-rule="evenodd" clip-rule="evenodd" d="M37.4709 14.8804C37.4675 16.4547 35.8073 17.0444 34.9855 16.9537C33.5112 16.7909 32.9738 15.6672 32.9766 14.3379C32.9789 13.2548 33.3214 12.6144 34.5258 12.1564C35.5127 11.7813 36.912 11.3527 37.4787 11.0339L37.4709 14.8804ZM41.8164 16.8185C41.5274 17.0861 41.2046 17.1965 40.9342 17.2151C40.4075 17.2511 40.2875 16.7701 40.2819 16.6918C40.2458 16.0863 40.2452 9.29508 40.2452 9.29508C40.2481 7.91679 39.3771 6.00791 35.4924 6.00002C32.5524 5.99382 30.5622 7.37156 30.4698 8.6969C30.4174 9.44435 30.8985 10.0296 31.6207 9.99634C31.6579 9.99465 31.6984 9.98902 31.7384 9.98339C31.7542 9.98226 31.7705 9.98057 31.7863 9.97775C31.8376 9.96874 31.8894 9.95748 31.9429 9.94227C31.9795 9.93269 32.0145 9.91974 32.05 9.90904C32.7581 9.62684 32.8972 8.74365 32.8972 8.74365H32.8978C33.1608 7.14569 33.7394 6.31319 35.4446 6.36896C37.4365 6.43429 37.4855 7.50618 37.4816 9.32719V9.5739C37.4725 9.79019 37.3486 10.5697 36.009 11.106C34.977 11.4112 33.6509 11.5076 32.3789 11.7295C30.5273 12.0517 30.0023 13.5454 30 14.6534C29.9966 16.4006 31.3159 17.8611 33.7151 17.9343C35.6124 17.9918 36.6963 16.9582 37.4675 16.4558C37.8162 17.3424 38.1519 17.6792 39.1372 17.9456C39.7123 18.1005 40.9539 17.9569 42 17.0906L41.8158 16.8202L41.8164 16.8185Z" fill="#CAC1B6"/>
<path fill-rule="evenodd" clip-rule="evenodd" d="M52.6934 14.1937C52.6922 14.6807 52.6916 15.0645 52.4931 15.4742C51.9814 16.652 50.8775 16.9918 49.5769 16.9894C47.1743 16.9847 46.5213 14.4208 46.5272 11.6291C46.5337 8.52875 47.2517 6.37676 49.8245 6.38204C51.0672 6.38439 52.041 7.00704 52.4913 7.98122C52.6893 8.36619 52.7046 8.88673 52.7035 9.52758L52.694 14.1948L52.6934 14.1937ZM56.6017 17.2535C55.8235 17.2711 55.5741 16.8679 55.5753 16.2259L55.5771 15.4255L55.5895 9.33626L55.609 0L50.7989 0.502934L50.7977 0.944248L52.7212 0.832159V1.21068L52.7082 7.26291C52.1291 6.3169 51.0057 5.63145 49.8275 5.57394C47.7084 5.47124 46.009 6.23239 44.9034 7.25528C43.7138 8.30398 43.0042 9.91607 43 12.0176C42.9929 15.5287 44.8537 17.9924 48.4725 18C49.8576 18.0029 51.42 17.5147 52.6893 16.3732L52.6863 17.7013L56.9988 17.7101L57 17.2547L56.6017 17.2535Z" fill="#CAC1B6"/>
<path fill-rule="evenodd" clip-rule="evenodd" d="M24.5401 27.886C24.5401 28.1561 24.5389 28.3697 24.4256 28.5977C24.1327 29.2519 23.5022 29.4408 22.759 29.4391C21.3853 29.4362 21.0119 28.0121 21.0155 26.4607C21.0191 24.7383 21.4295 23.5422 22.9004 23.5451C23.6108 23.5462 24.1673 23.8923 24.425 24.4342C24.5377 24.6479 24.5467 24.9369 24.5461 25.2928L24.5407 27.886H24.5401ZM26.7733 29.5865C26.3284 29.5963 26.1858 29.3717 26.187 29.0153L26.1882 28.5707L26.1953 25.1874L26.2061 20L23.4575 20.2793V20.5252L24.5562 20.463V20.6726L24.5485 24.0351C24.2168 23.5105 23.5756 23.1293 22.9022 23.0965C21.6913 23.0394 20.7197 23.4627 20.0874 24.0305C19.4074 24.6139 19.0024 25.5094 19 26.6766C18.9958 28.6277 20.0594 29.996 22.1274 30C22.9195 30.0017 23.8118 29.7305 24.5377 29.0965L24.5359 29.8347L27 29.8399V29.5871L26.7727 29.5865H26.7733Z" fill="#CAC1B6"/>
<path fill-rule="evenodd" clip-rule="evenodd" d="M34.9727 26.9033C34.1821 26.9068 33.7398 26.2542 33.6975 25.1104C33.6569 23.9408 34.2916 23.3492 34.9234 23.3504H34.9379C35.5129 23.3516 36.1586 23.7489 36.1349 25.1157C36.1152 26.2184 35.7854 26.8986 34.9733 26.9039L34.9727 26.9033ZM35.0521 29.5489C36.3731 29.5518 37.0901 29.8547 37.0449 30.8406C36.984 32.1036 36.0908 32.4973 35.2202 32.4956H35.2075C34.0122 32.4932 33.2877 31.8494 33.2668 30.762C33.2587 30.3905 33.4071 30.0624 33.6888 29.8617C33.9578 29.6469 34.2661 29.5477 35.0527 29.5495L35.0521 29.5489ZM37.1614 22.7594C37.6193 22.7582 37.6013 23.0898 38.0082 23.2847C38.5531 23.4971 38.9988 23.1233 39 22.6984C39.0006 22.297 38.7322 22.0012 38.1653 22C37.6489 21.9988 37.0206 22.2835 36.3383 23.1227C36.3302 23.1192 36.3215 23.1151 36.314 23.1115C35.9152 22.9625 35.4092 22.8668 34.982 22.8662C32.9034 22.8621 32.0421 23.7002 32.0525 25.0852C32.0664 26.8534 33.7085 27.124 33.7085 27.124C32.9278 27.2255 32.3029 27.6891 32.3017 28.2326C32.3012 29.0149 33.3167 29.3781 33.9085 29.4221V29.4509C33.3416 29.5008 32.0908 29.5336 32.0038 30.8881C31.9169 32.2151 33.3283 32.985 34.902 32.9997C37.4808 33.0214 38.4917 31.8606 38.4946 30.3529C38.4975 28.9075 37.2611 28.3816 35.8566 28.3793L34.6475 28.3769C33.7201 28.3752 33.439 28.0588 33.4396 27.8288C33.4402 27.4432 33.8552 27.2859 34.0378 27.2284C34.2893 27.2572 34.7629 27.2742 34.9031 27.2748C36.1667 27.2771 37.7086 26.7583 37.7121 25.0975C37.7121 24.8146 37.6419 24.4901 37.5074 24.2037C37.4866 24.1609 37.4657 24.1174 37.4414 24.0763C37.4396 24.0734 37.4396 24.0722 37.4379 24.0699C37.4367 24.0681 37.4356 24.0664 37.4338 24.064C37.3834 23.9848 37.3312 23.9109 37.2773 23.8422C37.2762 23.8404 37.275 23.8387 37.2733 23.8369C37.2472 23.8046 37.2211 23.7776 37.1944 23.7471C37.1458 23.6966 37.053 23.6027 36.9493 23.5065C36.809 23.3985 36.6867 23.3175 36.5829 23.2547C36.7742 22.9355 37.0188 22.7612 37.162 22.7606L37.1614 22.7594Z" fill="#CAC1B6"/>
</svg>
