<svg width="56" height="50" viewBox="0 0 56 50" fill="none" xmlns="http://www.w3.org/2000/svg">
<path d="M12.8308 33.8326H12.7818H12.7818H12.7817L12.7815 33.8325L12.7806 33.8325L12.7776 33.8323C12.7751 33.8321 12.7721 33.8317 12.7686 33.8311C12.7616 33.8298 12.7551 33.8279 12.7496 33.8257C12.7446 33.8235 12.7409 33.8213 12.7379 33.8189C12.7355 33.817 12.7311 33.8131 12.7254 33.8049C12.6179 33.6377 12.5029 33.2313 12.5001 32.4604C12.4973 31.7096 12.6001 30.6888 12.8496 29.3693C13.3484 26.7321 14.4234 22.9528 16.3515 17.8496L16.3516 17.8495C17.8487 13.8827 19.4336 10.2354 20.7664 7.44473C21.4329 6.04913 22.0348 4.87108 22.5298 3.97621C23.0342 3.06433 23.4048 2.489 23.6091 2.26141L23.6091 2.26134C24.5307 1.23417 25.8704 0.681038 27.3059 0.53769C28.7424 0.394244 30.231 0.666892 31.3979 1.24079L12.8308 33.8326ZM12.8308 33.8326C12.8794 33.8208 12.905 33.7968 12.9277 33.7644L12.9333 33.7564L12.9392 33.7486L21.2548 22.7801C21.9843 21.7308 23.1117 20.9973 24.4173 20.7612L24.4207 20.7606C24.7114 20.71 25.0029 20.6846 25.295 20.6846C26.3021 20.6846 27.2808 21 28.1212 21.5907L28.1231 21.592C29.2076 22.3619 29.9332 23.5135 30.1662 24.8301C30.3987 26.1441 30.1091 27.4763 29.3645 28.5721L22.152 40.1876L22.1457 40.1979L22.1388 40.2079C22.0999 40.2641 22.0866 40.3078 22.0825 40.3373C22.0789 40.3631 22.0808 40.3875 22.0883 40.4123C22.0985 40.4344 22.1086 40.4505 22.1181 40.4612C22.1228 40.4664 22.1259 40.4687 22.1276 40.4697C22.1286 40.4704 22.1315 40.4722 22.1386 40.474C22.498 40.5589 23.11 40.4442 23.9992 40.024C24.863 39.6158 25.8925 38.9664 27.0345 38.1339C29.3158 36.4707 31.9865 34.1208 34.5825 31.6436C37.1762 29.1687 39.6844 26.5774 41.639 24.4385C42.6164 23.369 43.4532 22.4149 44.092 21.6468C44.7398 20.8678 45.1605 20.3075 45.3283 20.0145C47.4936 16.229 46.578 11.5073 43.2476 9.0241L43.2471 9.0237C42.6308 8.56291 41.8759 8.1964 41.0277 7.94025C41.6139 8.5324 42.3437 9.15497 43.2788 9.81432C44.0149 10.3312 44.1953 11.3564 43.6803 12.0987C43.1708 12.8439 42.1496 13.0335 41.409 12.5043C37.656 9.85205 36.4657 7.45724 35.5269 5.56842L35.5202 5.55502L35.5195 5.55356C35.0614 4.62432 34.6941 3.8884 34.1147 3.21006C33.5424 2.54005 32.742 1.90405 31.3984 1.24105L12.8308 33.8326Z" fill="#0A3366" stroke="white"/>
<path d="M52.1319 22.5C53.9924 22.5018 55.5 24.0105 55.5 25.8714V46C55.5 47.933 53.933 49.5 52 49.5H4C2.067 49.5 0.5 47.933 0.5 46V26.0076C0.5 24.0746 2.067 22.5076 4 22.5076H5.26688C6.11913 22.5076 7.03844 22.8488 7.63255 23.5435C8.20928 24.2179 8.54233 25.3001 8.09463 26.926C8.04498 27.1063 7.97 27.2802 7.8763 27.4951C7.52412 28.3029 6.70135 30.5316 6.97743 33.2485C7.25623 35.9922 8.65166 39.1815 12.6479 41.871L12.648 41.8711C20.7763 47.3394 27.8614 43.9424 30.5364 41.85L30.5369 41.8496C32.5439 40.2756 35.9022 36.8687 39.2787 33.3574C40.1991 32.4002 41.1219 31.4341 42.0217 30.4922C44.4401 27.9604 46.6919 25.603 48.2825 24.0619C49.3211 23.0559 50.6952 22.5011 52.1319 22.5Z" fill="#0A3366" stroke="white"/>
</svg>
