<svg width="69" height="54" viewBox="0 0 69 54" fill="none" xmlns="http://www.w3.org/2000/svg">
<path d="M12.5 2.3465C13.1583 4.11793 14.4581 5.71685 16.4836 6.5C14.4581 7.28315 13.1583 8.88206 12.5 10.6535C11.8417 8.88206 10.5419 7.28315 8.51643 6.5C10.5419 5.71685 11.8417 4.11793 12.5 2.3465Z" fill="#0A3366" stroke="white"/>
<path d="M37.3313 17.6731C38.3589 17.1946 39.2369 16.8434 40.1412 16.6547C41.2477 16.4239 42.417 16.4332 43.9581 16.8067L44.4337 16.9383C46.6817 17.5607 47.9453 19.2315 48.6559 21.1118C49.3697 23.0008 49.5 25.0452 49.5 26.2706C49.5 30.1198 48.8117 34.4223 47.6925 38.4709C47.5668 38.9179 47.4347 39.3714 47.3026 39.8125C46.2935 43.1269 45.011 46.1973 43.6117 48.6241C42.3076 50.886 40.937 52.527 39.6405 53.325V45.0229C39.6405 42.1892 37.3316 39.8761 34.5 39.8761C31.6689 39.8761 29.3595 42.1824 29.3595 45.0229V53.3254C28.0604 52.5277 26.6897 50.8866 25.386 48.6242C23.9874 46.1972 22.7063 43.1264 21.6971 39.8115L21.6972 39.8115L21.6959 39.8074C21.5592 39.3719 21.4344 38.9284 21.3077 38.4718C20.1884 34.4229 19.5 30.12 19.5 26.2706C19.5 25.012 19.6305 22.9196 20.3402 21.0161C21.047 19.12 22.2973 17.4808 24.5103 16.9557L37.3313 17.6731ZM37.3313 17.6731C37.4521 17.682 37.5733 17.6835 37.6954 17.6774L37.6998 17.6772C38.5848 17.6407 39.3401 18.3177 39.3862 19.2046L39.3862 19.2049C39.4322 20.098 38.7431 20.8519 37.8606 20.898L37.8583 20.8981C35.5652 21.0071 33.7943 19.8619 32.2181 18.8425L32.1619 18.8062L32.1612 18.8058C31.0919 18.1122 30.0654 17.4496 28.8581 17.0556C27.6672 16.6669 26.2821 16.5355 24.5103 16.9556L37.3313 17.6731ZM29.671 53.5019L29.6713 53.5013C29.6736 53.5024 29.6747 53.5029 29.6747 53.5029C29.6747 53.5029 29.6744 53.5028 29.6739 53.5026C29.6744 53.5029 29.6749 53.5031 29.6754 53.5034L29.5951 53.66L29.5909 53.6683L29.5092 53.8278L29.4474 53.9484M29.671 53.5019L29.5932 53.6572L29.589 53.6656L29.5078 53.8278L29.4474 53.9484M29.671 53.5019C29.6669 53.501 29.6594 53.4999 29.6485 53.5C29.6369 53.5002 29.6197 53.5018 29.598 53.5081C29.5791 53.5135 29.5509 53.5241 29.5185 53.5453C29.5174 53.546 29.5163 53.5468 29.5151 53.5475L29.671 53.5019ZM29.4474 53.9484C29.5996 54.0246 29.7327 54.0055 29.7961 53.9611M29.4474 53.9484C26.3982 52.3868 23.2538 46.6417 21.2188 39.9572C21.0793 39.5128 20.9526 39.0621 20.8258 38.605L29.7961 53.9611M29.7961 53.9611C29.8342 53.9357 29.8595 53.9039 29.8595 53.8278V45.0229C29.8595 42.4583 31.9452 40.3761 34.5 40.3761C37.0548 40.3761 39.1405 42.4647 39.1405 45.0229V53.8278C39.1405 53.9103 39.1658 53.942 39.2039 53.9611H29.7961ZM34.8852 26.7487V27.7478C38.7425 27.9061 40.5818 30.811 40.7781 33.5809H41.7756C41.9719 30.811 43.8113 27.9061 47.6686 27.7478V26.7487C43.8113 26.5904 41.9719 23.6855 41.7756 20.9156H40.7781C40.5818 23.6855 38.7425 26.5904 34.8852 26.7487Z" fill="#0A3366" stroke="white"/>
<path d="M56.4343 33.8263L56.4282 33.8651V33.9044V33.9108V34.4108H56.9282H68.5V37.5H52.3235C53.2375 33.6667 53.7566 29.7598 53.7566 26.2919C53.7566 19.0544 50.6962 13.8758 45.1876 12.3343C43.7641 11.9316 42.4523 11.737 41.1784 11.737C38.2496 11.737 36.0178 12.7931 33.7904 13.8976C32.2439 12.9686 30.0195 11.9042 27.1189 11.9042C26.0882 11.9042 25.0234 12.0384 23.9447 12.2974L23.9444 12.2974C18.4219 13.6264 15.2434 18.9582 15.2434 26.2919C15.2434 29.7602 15.7626 33.6617 16.6767 37.5H0.5V34.4108H12.0718H12.6571L12.5657 33.8328C12.1258 31.05 11.8945 28.389 11.8945 26.0411C11.8945 16.9905 15.9704 10.7672 22.6464 9.16123L22.6487 9.16068C23.9467 8.84203 25.236 8.68646 26.4795 8.68646C29.5685 8.68646 31.9239 9.63567 33.5686 10.5116L33.7918 10.6304L34.0198 10.5212C36.3541 9.40249 38.7179 8.5 41.7545 8.5C43.2724 8.5 44.8411 8.72981 46.5511 9.20805C53.1066 11.0454 57.1055 17.2591 57.1055 26.0347C57.1055 28.3826 56.8742 31.0435 56.4343 33.8263Z" fill="#0A3366" stroke="white"/>
</svg>
