<svg width="59" height="47" viewBox="0 0 59 47" fill="none" xmlns="http://www.w3.org/2000/svg">
<path d="M58.5 11.5484C58.6753 11.5825 58.8427 11.6359 59 11.7045V5.83628C59.0074 4.25973 50.3095 0.18191 30.7894 0.00757959M58.5 11.5484V5.83628V5.83443C58.5 5.83679 58.4998 5.83638 58.4988 5.8332C58.493 5.81491 58.4579 5.70487 58.2454 5.50202C58.0141 5.28128 57.6405 5.01644 57.102 4.72453C56.0285 4.14267 54.372 3.49208 52.0879 2.879C47.5247 1.6542 40.5144 0.594604 30.7872 0.50758M58.5 11.5484C58.3584 11.5209 58.2116 11.5061 58.0609 11.5061C57.3825 11.5061 56.7531 11.6889 56.2049 11.9979M58.5 11.5484V12.0604C58.3593 12.0253 58.2123 12.0061 58.0609 12.0061C57.4801 12.0061 56.9384 12.1609 56.4625 12.4266C56.3879 12.2768 56.3016 12.1334 56.2049 11.9979M30.7872 0.50758C30.7879 0.50758 30.7887 0.50758 30.7894 0.50758V0.00757959M30.7872 0.50758C30.7864 0.507573 30.7857 0.507566 30.7849 0.50756L30.7894 0.00757959M30.7872 0.50758C30.5742 0.507566 30.3616 0.505678 30.1506 0.503804L30.1468 0.50377C29.9331 0.501872 29.721 0.5 29.5074 0.5C29.0745 0.5 28.654 0.500013 28.2268 0.507503L28.2225 0.507578C18.4941 0.594443 11.4831 1.6541 6.91858 2.87901C4.634 3.49208 2.97679 4.1427 1.90214 4.72463C1.36304 5.01656 0.988724 5.2815 0.756628 5.50247C0.542253 5.70656 0.506915 5.8173 0.501126 5.83544C0.500089 5.83869 0.5 5.83897 0.5 5.83628V11.5484M30.7894 0.00757959C30.5779 0.00757959 30.3664 0.00570113 30.154 0.00381451C29.9397 0.00191141 29.7245 0 29.5074 0C29.0752 0 28.6503 0 28.218 0.00757959C8.69795 0.18191 0 4.25973 0 5.83628L0 11.7045C0.157325 11.6359 0.324718 11.5825 0.5 11.5484M0.5 11.5484C0.641605 11.5209 0.788358 11.5061 0.939111 11.5061C1.61745 11.5061 2.24691 11.6889 2.79512 11.9979M0.5 11.5484V12.0604C0.640729 12.0253 0.78774 12.0061 0.939111 12.0061C1.51991 12.0061 2.06155 12.1609 2.53746 12.4266C2.61214 12.2768 2.69841 12.1334 2.79512 11.9979M2.79512 11.9979C2.94101 12.0801 3.08115 12.1713 3.21492 12.2703C3.68627 11.6208 4.44054 11.195 5.29181 11.195C6.65576 11.195 7.90791 11.7029 8.87683 12.5442C8.95709 12.6146 9.03529 12.687 9.11144 12.7616C9.18704 12.6064 9.27252 12.4569 9.36703 12.314M2.79512 11.9979C3.35321 11.2158 4.25906 10.695 5.29181 10.695C6.78257 10.695 8.14969 11.2506 9.20465 12.1667L9.20644 12.1682C9.26084 12.2159 9.31437 12.2645 9.36703 12.314M9.36703 12.314C9.49168 12.431 9.61146 12.5531 9.72633 12.68C10.3238 11.7118 11.3838 11.0662 12.5886 11.0662C14.6589 11.0662 16.513 12.0219 17.7564 13.5209C17.8322 13.3573 17.9156 13.198 18.0061 13.0433M9.36703 12.314C10.0614 11.2638 11.2438 10.5662 12.5886 10.5662C14.7433 10.5662 16.6759 11.5281 18.0061 13.0433M18.0061 13.0433C18.1241 13.1778 18.2374 13.3166 18.3457 13.4595C19.1942 11.8796 20.8383 10.8009 22.7324 10.8009C25.4669 10.8009 27.8671 12.2787 29.2102 14.4812C29.3013 14.3183 29.3978 14.1588 29.4994 14.0029M18.0061 13.0433C18.9624 11.4093 20.7152 10.3009 22.7324 10.3009C25.5608 10.3009 28.048 11.7815 29.4994 14.0029M29.4994 14.0029C29.6012 14.1587 29.6978 14.3181 29.7892 14.4809C31.1322 12.2727 33.5326 10.8009 36.2676 10.8009C38.1621 10.8009 39.8066 11.8739 40.6548 13.4588C40.7632 13.3158 40.8766 13.1769 40.9947 13.0424M29.4994 14.0029C30.951 11.7756 33.4391 10.3009 36.2676 10.3009C38.2845 10.3009 40.0382 11.4034 40.9947 13.0424M40.9947 13.0424C41.085 13.1972 41.1682 13.3567 41.2438 13.5206C42.4873 12.0217 44.3412 11.0662 46.4114 11.0662C47.6162 11.0662 48.6762 11.7118 49.2737 12.68C49.3885 12.5531 49.5083 12.431 49.633 12.314M40.9947 13.0424C42.3248 11.5277 44.2571 10.5662 46.4114 10.5662C47.7562 10.5662 48.9386 11.2638 49.633 12.314M49.633 12.314C49.7275 12.4569 49.813 12.6064 49.8886 12.7616C49.9647 12.687 50.0429 12.6146 50.1232 12.5442C51.0921 11.7029 52.3368 11.195 53.7082 11.195C54.5595 11.195 55.3137 11.6208 55.7851 12.2703C55.9188 12.1713 56.059 12.0801 56.2049 11.9979M49.633 12.314C49.6856 12.2645 49.7392 12.2159 49.7936 12.1682L49.7953 12.1667C50.85 11.2509 52.2096 10.695 53.7082 10.695C54.7409 10.695 55.6468 11.2158 56.2049 11.9979" fill="#0A3366" stroke="white"/>
<path d="M38.0933 38.5127C39.249 39.5916 40.8028 40.2606 42.5168 40.2606C44.1616 40.2606 45.5494 39.133 45.9327 37.6101C46.9262 38.334 48.1535 38.7671 49.4768 38.7671C51.1799 38.7671 52.5609 37.3903 52.5609 35.6995V35.2503C52.9447 35.3847 53.3579 35.462 53.7935 35.4637V35.4638H53.8083V35.4637C54.3874 35.4602 54.9147 35.2518 55.3252 34.9098L55.5 35.2757V41.3571C55.5 41.4673 55.4394 41.6573 55.1769 41.9262C54.9186 42.1907 54.5096 42.4839 53.933 42.7906C52.7824 43.4027 51.0533 44.0224 48.7872 44.5757C44.2615 45.6805 37.6777 46.5 29.5 46.5C21.3223 46.5 14.7385 45.6805 10.2128 44.5757C7.94669 44.0224 6.21762 43.4027 5.06704 42.7906C4.49044 42.4839 4.08138 42.1907 3.82313 41.9262C3.5606 41.6573 3.5 41.4673 3.5 41.3571V35.2757L3.6748 34.9098C4.08876 35.2547 4.6216 35.4638 5.20648 35.4638C5.6475 35.4638 6.06581 35.3862 6.4539 35.2503V35.6995C6.4539 37.3995 7.84419 38.7671 9.538 38.7671C10.8661 38.7671 12.0902 38.3392 13.0829 37.613C13.4672 39.1345 14.8543 40.2606 16.498 40.2606C18.2112 40.2606 19.7657 39.5975 20.9223 38.5142C21.7696 40.1239 23.4627 41.2244 25.4128 41.2244C27.0549 41.2244 28.5245 40.4865 29.5085 39.3344C30.495 40.4855 31.9585 41.2244 33.602 41.2244C35.5527 41.2244 37.2463 40.1232 38.0933 38.5127Z" fill="#0A3366" stroke="white"/>
<path d="M22.259 12.5C24.9378 12.5 27.1634 14.5244 27.4968 17.1366C27.4772 17.3524 27.464 17.5739 27.464 17.8048V22.9952C27.464 23.0797 27.4738 23.1522 27.4811 23.2013C27.4814 23.2029 27.4816 23.2045 27.4818 23.206C27.4017 23.3896 27.2358 23.5 27.0504 23.5H20.8201C20.0914 23.5 19.5 22.9093 19.5 22.1711V15.2747C19.5 13.7413 20.7388 12.5 22.259 12.5Z" fill="#0A3366" stroke="white"/>
<path d="M12.784 11.5C12.783 11.5 12.7821 11.5 12.7811 11.5L18.5 16.9077C18.5 13.8991 15.9071 11.5039 12.784 11.5Z" fill="#0A3366" stroke="white"/>
<path d="M4.99848 13.5C5.70183 13.5 6.35893 13.7022 6.90939 14.0378C7.8751 14.6332 8.5 15.6456 8.5 16.777V21.0072C8.5 21.251 8.27889 21.5 7.94817 21.5H5.07469C4.72873 21.5 4.5 21.2438 4.5 20.9856V13.9424C4.5 13.7274 4.69824 13.5 4.99848 13.5Z" fill="#0A3366" stroke="white"/>
<path d="M1.5 13.5294C2.04622 13.6394 2.5 14.1595 2.5 14.8376V19.5H1.61314C1.59654 19.5 1.57156 19.4932 1.54544 19.4653C1.51901 19.4371 1.5 19.3951 1.5 19.3459V13.5294Z" fill="#0A3366" stroke="white"/>
<path d="M30.5389 17.1929L30.539 17.1929L30.5396 17.1874C30.837 14.6401 32.924 12.6418 35.4813 12.5072H35.7566C37.2662 12.5072 38.5 13.7457 38.5 15.28V22.1722C38.5 22.9058 37.9093 23.5 37.1885 23.5H30.9881C30.7815 23.5 30.5974 23.36 30.534 23.1298C30.5283 23.1072 30.5224 23.0853 30.5179 23.0687L30.5159 23.0614C30.5103 23.0405 30.5068 23.0272 30.5041 23.0156C30.5011 23.0027 30.5002 22.9965 30.5 22.9946V17.8085C30.5 17.5984 30.513 17.3956 30.5389 17.1929Z" fill="#0A3366" stroke="white"/>
<path d="M41.5 16.9077C41.5 14.5068 43.5897 12.5 46.2235 12.5C46.951 12.5 47.5 13.0566 47.5 13.6761V20.4446C47.5 20.9989 47.0129 21.5 46.3445 21.5H42.6177C41.972 21.5 41.5 21.0131 41.5 20.4801V16.9077Z" fill="#0A3366" stroke="white"/>
<path d="M54.5 13.9424V20.9856C54.5 21.2438 54.2713 21.5 53.9253 21.5H51.0518C50.7211 21.5 50.5 21.251 50.5 21.0072V16.777C50.5 15.6389 51.1244 14.6335 52.0906 14.0378C52.6411 13.7022 53.2982 13.5 54.0015 13.5C54.3018 13.5 54.5 13.7274 54.5 13.9424Z" fill="#0A3366" stroke="white"/>
<path d="M57.5 13.5293V19.3459C57.5 19.3951 57.481 19.4371 57.4546 19.4653C57.4284 19.4932 57.4035 19.5 57.3869 19.5H56.5V14.8376C56.5 14.1634 56.9508 13.6396 57.5 13.5293Z" fill="#0A3366" stroke="white"/>
<path d="M22.5221 29.7255L22.5248 29.7186L22.5273 29.7116C22.5693 29.5955 22.652 29.5288 22.7342 29.5075H22.7919H27.5V35.6817C27.5 37.2594 26.2865 38.5 24.8537 38.5C23.5787 38.5 22.5 37.3957 22.5 35.9902V29.8352C22.5 29.7993 22.507 29.7636 22.5221 29.7255Z" fill="#0A3366" stroke="white"/>
<path d="M20.1166 29.6204L20.1166 29.6205L20.1232 29.6243C20.3084 29.7325 20.435 29.8982 20.4797 30.0733C20.4934 30.1501 20.5 30.1939 20.5 30.248V33.8138C20.5 35.8121 18.7331 37.5 16.473 37.5C15.9018 37.5 15.5 37.0744 15.5 36.6379V30.2623C15.5 30.213 15.5078 30.1554 15.5232 30.0931C15.5651 29.933 15.668 29.7844 15.8182 29.6764L15.9071 29.6246C16.0436 29.5452 16.1964 29.5 16.365 29.5H19.6735C19.8435 29.5 19.9932 29.5458 20.1166 29.6204Z" fill="#0A3366" stroke="white"/>
<path d="M11.8137 28.7851L11.839 28.7876H11.8643H11.8645H11.8647H11.8649H11.865H11.8652H11.8654H11.8656H11.8658H11.8659H11.8661H11.8663H11.8665H11.8666H11.8668H11.867H11.8672H11.8673H11.8675H11.8677H11.8679H11.868H11.8682H11.8684H11.8686H11.8687H11.8689H11.8691H11.8693H11.8694H11.8696H11.8698H11.87H11.8701H11.8703H11.8705H11.8707H11.8708H11.871H11.8712H11.8713H11.8715H11.8717H11.8719H11.872H11.8722H11.8724H11.8725H11.8727H11.8729H11.8731H11.8732H11.8734H11.8736H11.8737H11.8739H11.8741H11.8742H11.8744H11.8746H11.8748H11.8749H11.8751H11.8753H11.8754H11.8756H11.8758H11.8759H11.8761H11.8763H11.8764H11.8766H11.8768H11.8769H11.8771H11.8773H11.8775H11.8776H11.8778H11.878H11.8781H11.8783H11.8785H11.8786H11.8788H11.879H11.8791H11.8793H11.8795H11.8796H11.8798H11.8799H11.8801H11.8803H11.8804H11.8806H11.8808H11.8809H11.8811H11.8813H11.8814H11.8816H11.8818H11.8819H11.8821H11.8823H11.8824H11.8826H11.8827H11.8829H11.8831H11.8832H11.8834H11.8836H11.8837H11.8839H11.8841H11.8842H11.8844H11.8845H11.8847H11.8849H11.885H11.8852H11.8854H11.8855H11.8857H11.8858H11.886H11.8862H11.8863H11.8865H11.8867H11.8868H11.887H11.8871H11.8873H11.8875H11.8876H11.8878H11.8879H11.8881H11.8883H11.8884H11.8886H11.8887H11.8889H11.8891H11.8892H11.8894H11.8895H11.8897H11.8899H11.89H11.8902H11.8903H11.8905H11.8907H11.8908H11.891H11.8911H11.8913H11.8915H11.8916H11.8918H11.8919H11.8921H11.8923H11.8924H11.8926H11.8927H11.8929H11.8931H11.8932H11.8934H11.8935H11.8937H11.8938H11.894H11.8942H11.8943H11.8945H11.8946H11.8948H11.895H11.8951H11.8953H11.8954H11.8956H11.8957H11.8959H11.8961H11.8962H11.8964H11.8965H11.8967H11.8968H11.897H11.8972H11.8973H11.8975H11.8976H11.8978H11.8979H11.8981H11.8983H11.8984H11.8986H11.8987H11.8989H11.899H11.8992H11.8994H11.8995H11.8997H11.8998H11.9H11.9001H11.9003H11.9005H11.9006H11.9008H11.9009H11.9011H11.9012H11.9014H11.9016H11.9017H11.9019H11.902H11.9022H11.9023H11.9025H11.9027H11.9028H11.903H11.9031H11.9033H11.9034H11.9036H11.9037H11.9039H11.9041H11.9042H11.9044H11.9045H11.9047H11.9048H11.905H11.9052H11.9053H11.9055H11.9056H11.9058H11.9059H11.9061H11.9062H11.9064H11.9066H11.9067H11.9069H11.907H11.9072H11.9073H11.9075H11.9077H11.9078H11.908H11.9081H11.9083H11.9084H11.9086H11.9088H11.9089H11.9091H11.9092H11.9094H11.9095H11.9097H11.9098H11.91H11.9102H11.9103H11.9105H11.9106H11.9108H11.9109H11.9111H11.9113H11.9114H11.9116H11.9117H11.9119H11.912H11.9122H11.9124H11.9125H11.9127H11.9128H11.913H11.9131H11.9133H11.9135H11.9136H11.9138H11.9139H11.9141H11.9142H11.9144H11.9146H11.9147H11.9149H11.915H11.9152H11.9153H11.9155H11.9157H11.9158H11.916H11.9161H11.9163H11.9164H11.9166H11.9168H11.9169H11.9171H11.9172H11.9174H11.9175H11.9177H11.9179H11.918H11.9182H11.9183H11.9185H11.9187H11.9188H11.919H11.9191H11.9193H11.9194H11.9196H11.9198H11.9199H11.9201H11.9202H11.9204H11.9206H11.9207H11.9209H11.921H11.9212H11.9214H11.9215H11.9217H11.9218H11.922H11.9222H11.9223H11.9225H11.9226H11.9228H11.923H11.9231H11.9233H11.9234H11.9236H11.9238H11.9239H11.9241H11.9242H11.9244H11.9246H11.9247H11.9249H11.925H11.9252H11.9254H11.9255H11.9257H11.9258H11.926H11.9262H11.9263H11.9265H11.9267H11.9268H11.927H11.9271H11.9273H11.9275H11.9276H11.9278H11.928H11.9281H11.9283H11.9284H11.9286H11.9288H11.9289H11.9291H11.9293H11.9294H11.9296H11.9298H11.9299H11.9301H11.9302H11.9304H11.9306H11.9307H11.9309H11.9311H11.9312H11.9314H11.9316H11.9317H11.9319H11.9321H11.9322H11.9324H11.9326H11.9327H11.9329H11.933H11.9332H11.9334H11.9335H11.9337H11.9339H11.934H11.9342H11.9344H11.9345H11.9347H11.9349H11.935H11.9352H11.9354H11.9355H11.9357H11.9359H11.9361H11.9362H11.9364H11.9366H11.9367H11.9369H11.9371H11.9372H11.9374H11.9376H11.9377H11.9379H11.9381H11.9382H11.9384H11.9386H11.9388H11.9389H11.9391H11.9393H11.9394H11.9396H11.9398H11.94H11.9401H11.9403H11.9405H11.9406H11.9408H11.941H11.9412H11.9413H11.9415H11.9417H11.9418H11.942H11.9422H11.9424H11.9425H11.9427H11.9429H11.9431H11.9432H11.9434H11.9436H11.9438H11.9439H11.9441H11.9443H11.9445H11.9446H11.9448H11.945H11.9452H11.9453H11.9455H11.9457H11.9459H11.946H11.9462H11.9464H11.9466H11.9467H11.9469H11.9471H11.9473H11.9475H11.9476H11.9478H11.948H11.9482C12.208 28.7876 12.4323 28.9812 12.4749 29.2618C12.4806 29.3007 12.4886 29.3333 12.495 29.3569C12.4968 29.3634 12.4985 29.3694 12.5 29.3747V33.0261C12.5 34.9412 10.929 36.5 8.99848 36.5C8.72257 36.5 8.5 36.274 8.5 36.0084V29.0673C8.5 28.7714 8.73503 28.5231 9.02299 28.5012L11.8137 28.7851Z" fill="#0A3366" stroke="white"/>
<path d="M5.69273 27.6089V27.6253L6.02434 27.7439C6.16675 27.7949 6.31833 27.82 6.46182 27.82L6.46183 27.82C6.46207 27.8199 6.46717 27.8191 6.47695 27.8296C6.48758 27.841 6.5 27.8634 6.5 27.8974V32.1661C6.5 32.8467 6.04685 33.3711 5.5 33.4794V27.6477C5.5 27.6085 5.51141 27.5735 5.52883 27.546L5.69273 27.6089Z" fill="#0A3366" stroke="white"/>
<path d="M35.2081 29.5075H35.2658C35.348 29.5288 35.4307 29.5954 35.4727 29.7116L35.4752 29.7186L35.4779 29.7255C35.493 29.7636 35.5 29.7993 35.5 29.8352V35.9902C35.5 37.4016 34.4157 38.5 33.1463 38.5C31.7135 38.5 30.5 37.2594 30.5 35.6817V29.5075H35.2081Z" fill="#0A3366" stroke="white"/>
<path d="M38.5135 30.1004L38.5157 30.0924L38.5176 30.0843C38.5548 29.9258 38.6514 29.7806 38.7973 29.6751L38.884 29.6246C39.0218 29.5444 39.1747 29.5 39.3342 29.5H42.6427C42.8113 29.5 42.9641 29.5452 43.1006 29.6246L43.1006 29.6247L43.1049 29.6271C43.297 29.7364 43.4281 29.9069 43.4769 30.0931C43.4922 30.1554 43.5 30.213 43.5 30.2623V36.6379C43.5 37.0744 43.0982 37.5 42.527 37.5C40.2669 37.5 38.5 35.8121 38.5 33.8138V30.2338C38.5 30.169 38.5054 30.1303 38.5135 30.1004Z" fill="#0A3366" stroke="white"/>
<path d="M47.1357 28.795H47.6357V28.7392L49.9735 28.5016C50.2706 28.5285 50.5 28.7777 50.5 29.0664V36.0092C50.5 36.274 50.2778 36.5 50.0015 36.5C48.0643 36.5 46.5 34.936 46.5 33.0294V29.3893C46.5034 29.3778 46.5074 29.3641 46.5109 29.3501C46.5171 29.3251 46.5246 29.2896 46.5283 29.2465C46.5709 28.9861 46.7908 28.795 47.0518 28.795H47.052H47.0522H47.0524H47.0525H47.0527H47.0529H47.0531H47.0533H47.0535H47.0536H47.0538H47.054H47.0542H47.0544H47.0546H47.0547H47.0549H47.0551H47.0553H47.0555H47.0557H47.0559H47.0561H47.0563H47.0564H47.0566H47.0568H47.057H47.0572H47.0574H47.0576H47.0578H47.058H47.0582H47.0584H47.0586H47.0588H47.059H47.0592H47.0594H47.0596H47.0597H47.0599H47.0601H47.0603H47.0605H47.0607H47.0609H47.0611H47.0613H47.0615H47.0617H47.0619H47.0621H47.0623H47.0626H47.0628H47.063H47.0632H47.0634H47.0636H47.0638H47.064H47.0642H47.0644H47.0646H47.0648H47.065H47.0652H47.0654H47.0656H47.0658H47.066H47.0662H47.0665H47.0667H47.0669H47.0671H47.0673H47.0675H47.0677H47.0679H47.0681H47.0683H47.0686H47.0688H47.069H47.0692H47.0694H47.0696H47.0698H47.07H47.0702H47.0705H47.0707H47.0709H47.0711H47.0713H47.0715H47.0717H47.072H47.0722H47.0724H47.0726H47.0728H47.073H47.0732H47.0735H47.0737H47.0739H47.0741H47.0743H47.0745H47.0748H47.075H47.0752H47.0754H47.0756H47.0758H47.0761H47.0763H47.0765H47.0767H47.0769H47.0771H47.0774H47.0776H47.0778H47.078H47.0782H47.0784H47.0787H47.0789H47.0791H47.0793H47.0795H47.0798H47.08H47.0802H47.0804H47.0806H47.0808H47.0811H47.0813H47.0815H47.0817H47.0819H47.0822H47.0824H47.0826H47.0828H47.083H47.0833H47.0835H47.0837H47.0839H47.0841H47.0843H47.0846H47.0848H47.085H47.0852H47.0854H47.0857H47.0859H47.0861H47.0863H47.0865H47.0867H47.087H47.0872H47.0874H47.0876H47.0878H47.0881H47.0883H47.0885H47.0887H47.0889H47.0891H47.0894H47.0896H47.0898H47.09H47.0902H47.0905H47.0907H47.0909H47.0911H47.0913H47.0915H47.0918H47.092H47.0922H47.0924H47.0926H47.0928H47.093H47.0933H47.0935H47.0937H47.0939H47.0941H47.0943H47.0946H47.0948H47.095H47.0952H47.0954H47.0956H47.0958H47.096H47.0963H47.0965H47.0967H47.0969H47.0971H47.0973H47.0975H47.0977H47.098H47.0982H47.0984H47.0986H47.0988H47.099H47.0992H47.0994H47.0996H47.0998H47.1001H47.1003H47.1005H47.1007H47.1009H47.1011H47.1013H47.1015H47.1017H47.1019H47.1021H47.1023H47.1025H47.1027H47.1029H47.1032H47.1034H47.1036H47.1038H47.104H47.1042H47.1044H47.1046H47.1048H47.105H47.1052H47.1054H47.1056H47.1058H47.106H47.1062H47.1064H47.1066H47.1068H47.107H47.1072H47.1074H47.1076H47.1078H47.108H47.1082H47.1083H47.1085H47.1087H47.1089H47.1091H47.1093H47.1095H47.1097H47.1099H47.1101H47.1103H47.1105H47.1107H47.1108H47.111H47.1112H47.1114H47.1116H47.1118H47.112H47.1122H47.1123H47.1125H47.1127H47.1129H47.1131H47.1133H47.1135H47.1136H47.1138H47.114H47.1142H47.1144H47.1145H47.1147H47.1149H47.1151H47.1153H47.1154H47.1156H47.1158H47.116H47.1161H47.1163H47.1165H47.1167H47.1168H47.117H47.1172H47.1174H47.1175H47.1177H47.1179H47.118H47.1182H47.1184H47.1185H47.1187H47.1189H47.119H47.1192H47.1194H47.1195H47.1197H47.1199H47.12H47.1202H47.1203H47.1205H47.1207H47.1208H47.121H47.1211H47.1213H47.1214H47.1216H47.1218H47.1219H47.1221H47.1222H47.1224H47.1225H47.1227H47.1228H47.123H47.1231H47.1233H47.1234H47.1236H47.1237H47.1238H47.124H47.1241H47.1243H47.1244H47.1246H47.1247H47.1248H47.125H47.1251H47.1253H47.1254H47.1255H47.1257H47.1258H47.1259H47.1261H47.1262H47.1263H47.1265H47.1266H47.1267H47.1269H47.127H47.1271H47.1272H47.1274H47.1275H47.1276H47.1277H47.1279H47.128H47.1281H47.1282H47.1283H47.1285H47.1286H47.1287H47.1288H47.1289H47.129H47.1291H47.1293H47.1294H47.1295H47.1296H47.1297H47.1298H47.1299H47.13H47.1301H47.1302H47.1303H47.1304H47.1305H47.1306H47.1307H47.1308H47.1309H47.131H47.1311H47.1312H47.1313H47.1314H47.1315H47.1316H47.1317H47.1318H47.1319H47.132H47.1321H47.1321H47.1322H47.1323H47.1324H47.1325H47.1326H47.1326H47.1327H47.1328H47.1329H47.1329H47.133H47.1331H47.1332H47.1332H47.1333H47.1334H47.1335H47.1335H47.1336H47.1337H47.1337H47.1338H47.1339H47.1339H47.134H47.134H47.1341H47.1342H47.1342H47.1343H47.1343H47.1344H47.1344H47.1345H47.1345H47.1346H47.1346H47.1347H47.1347H47.1348H47.1348H47.1349H47.1349H47.1349H47.135H47.135H47.1351H47.1351H47.1351H47.1352H47.1352H47.1352H47.1353H47.1353H47.1353H47.1354H47.1354H47.1354H47.1354H47.1355H47.1355H47.1355H47.1355H47.1355H47.1356H47.1356H47.1356H47.1356H47.1356H47.1356H47.1356H47.1356H47.1356H47.1357H47.1357H47.1357H47.1357H47.1357Z" fill="#0A3366" stroke="white"/>
<path d="M52.9757 27.7439L53.3073 27.6253V27.6089L53.4712 27.546C53.4886 27.5735 53.5 27.6085 53.5 27.6477V33.4793C52.9561 33.3713 52.5 32.8505 52.5 32.1661V27.8974C52.5 27.8634 52.5124 27.841 52.5231 27.8296C52.5328 27.8191 52.5379 27.8199 52.5382 27.82C52.5382 27.82 52.5382 27.82 52.5382 27.82C52.6912 27.82 52.8354 27.7941 52.9757 27.7439Z" fill="#0A3366" stroke="white"/>
</svg>
