<svg width="48" height="59" viewBox="0 0 48 59" fill="none" xmlns="http://www.w3.org/2000/svg">
<path d="M24.5484 10.9257L25.0379 11.0279C25.3085 9.73165 25.9992 9.12337 26.6304 8.81992C27.2863 8.50458 27.9127 8.50409 28.0331 8.50409H28.0333H28.0336H28.0338H28.034H28.0342H28.0344H28.0347H28.0349H28.0351H28.0353H28.0356H28.0358H28.036H28.0362H28.0365H28.0367H28.0369H28.0372H28.0374H28.0376H28.0378H28.0381H28.0383H28.0385H28.0387H28.039H28.0392H28.0394H28.0397H28.0399H28.0401H28.0403H28.0406H28.0408H28.041H28.0413H28.0415H28.0417H28.0419H28.0422H28.0424H28.0426H28.0429H28.0431H28.0433H28.0436H28.0438H28.044H28.0442H28.0445H28.0447H28.0449H28.0452H28.0454H28.0456H28.0459H28.0461H28.0463H28.0466H28.0468H28.047H28.0473H28.0475H28.0477H28.0479H28.0482H28.0484H28.0486H28.0489H28.0491H28.0493H28.0496H28.0498H28.05H28.0503H28.0505H28.0507H28.051H28.0512H28.0514H28.0517H28.0519H28.0522H28.0524H28.0526H28.0529H28.0531H28.0533H28.0536H28.0538H28.054H28.0543H28.0545H28.0547H28.055H28.0552H28.0554H28.0557H28.0559H28.0561H28.0564H28.0566H28.0569H28.0571H28.0573H28.0576H28.0578H28.058H28.0583H28.0585H28.0587H28.059H28.0592H28.0595H28.0597H28.0599H28.0602H28.0604H28.0606H28.0609H28.0611H28.0613H28.0616H28.0618H28.0621H28.0623H28.0625H28.0628H28.063H28.0632H28.0635H28.0637H28.064H28.0642H28.0644H28.0647H28.0649H28.0651H28.0654H28.0656H28.0659H28.0661H28.0663H28.0666H28.0668H28.067H28.0673H28.0675H28.0678H28.068H28.0682H28.0685H28.0687H28.069H28.0692H28.0694H28.0697H28.0699H28.0701H28.0704H28.0706H28.0709H28.0711H28.0713H28.0716H28.0718H28.0721H28.0723H28.0725H28.0728H28.073H28.0732H28.0735H28.0737H28.074H28.0742H28.0744H28.0747H28.0749H28.0751H28.0754H28.0756H28.0759H28.0761H28.0763H28.0766H28.0768H28.0771H28.0773H28.0775H28.0778H28.078H28.0782H28.0785H28.0787H28.079H28.0792H28.0794H28.0797H28.0799H28.0801H28.0804H28.0806H28.0809H28.0811H28.0813H28.0816H28.0818H28.082H28.0823H28.0825H28.0828H28.083H28.0832H28.0835H28.0837H28.0839H28.0842H28.0844H28.0847H28.0849H28.0851H28.0854H28.0856H28.0858H28.0861H28.0863H28.0866H28.0868H28.087H28.0873H28.0875H28.0877H28.088H28.0882H28.0884H28.0887H28.0889H28.0892H28.0894H28.0896H28.0899H28.0901H28.0903H28.0906H28.0908H28.091H28.0913H28.0915H28.0917H28.092H28.0922H28.0924H28.0927H28.0929H28.0932H28.0934H28.0936H28.0939H28.0941H28.0943H28.0946H28.0948H28.095H28.0953H28.0955H28.0957H28.096H28.0962H28.0964H28.0967H28.0969H28.0971H28.0974H28.0976H28.0978H28.0981H28.0983H28.0985H28.0988H28.099H28.0992H28.0994H28.0997H28.0999H28.1001H28.1004H28.1006H28.1008H28.1011H28.1013H28.1015H28.1018H28.102H28.1022H28.1025H28.1027H28.1029H28.1031H28.1034H28.1036H28.1038H28.1041H28.1043H28.1045H28.1047H28.105H28.1052H28.1054H28.1057H28.1059H28.1061H28.1063H28.1066H28.1068H28.107H28.1073H28.1075H28.1077H28.1079H28.1082H28.1084H28.1086H28.1088H28.1091H28.1093H28.1095H28.1098H28.11H28.1102H28.1104H28.1107H28.1109H28.1111H28.1113H28.1115H28.1118H28.112H28.1122H28.1124H28.1127H28.1129H28.1131H28.1133H28.1136H28.1138H28.114H28.1142H28.1145H28.1147H28.1149H28.1151H28.1153H28.1156H28.1158H28.116H28.1162H28.1164H28.1167H28.1169H28.1171H28.1173H28.1175H28.1178H28.118H28.1182H28.1184H28.1186H28.1189H28.1191H28.1193H28.1195H28.1197H28.1199H28.1202H28.1204H28.1206H28.1208H28.121H28.1212H28.1215H28.1217H28.1219H28.1221H28.1223H28.1225H28.1227H28.123H28.1232H28.1234H28.1236H28.1238H28.124H28.1242H28.1245H28.1247H28.1249H28.1251H28.1253H28.1255H28.1257H28.1259H28.1261H28.1264H28.1266H28.1268H28.127H28.1272H28.1274H28.1276H28.1278H28.128H28.1282H28.1285H28.1287H28.1289H28.1291H28.1293H28.1295H28.1297H28.1299H28.1301H28.1303H28.1305H28.1307H28.1309H28.1311H28.1313H28.1315H28.1317H28.132H28.1322H28.1324H28.1326H28.1328H28.133H28.1332H28.1334H28.1336H28.1338H28.134H28.1342H28.1344H28.1346H28.1348H28.135H28.1352H28.1354H28.1356H28.1358H28.136H28.1362H28.1364H28.1366H28.1368H28.137H28.1372H28.1373H28.1375H28.1377H28.1379H28.1381H28.1383H28.1385H28.1387H28.1389H28.1391H28.1393H28.1395H28.1397H28.1399H28.1401H28.1403H28.1404H28.1406H28.1408H28.141H28.1412H28.1414H28.1416H28.1418H28.142H28.1422H28.1423H28.1425H28.1427H28.1429H28.1431H28.1433H28.1435H28.1437H28.1438H28.144H28.1442H28.1444H28.1446H28.1448H28.1449H28.1451H28.1453H28.1455H28.1457H28.1459H28.146H28.1462H28.1464H28.1466H28.1468H28.1469H28.1471H28.1473H28.1475H28.1668L28.186 8.5026C28.2778 8.49551 28.8936 8.4756 29.5299 8.86852C30.1405 9.24559 30.8576 10.0569 31.0901 11.8757C31.1606 12.4779 31.5962 12.966 32.1727 13.1108C32.3034 13.1485 32.426 13.1587 32.5319 13.1587C33.0078 13.1587 33.4447 12.9264 33.7191 12.5424L33.7215 12.5392L33.7338 12.5229C33.7429 12.5106 33.7559 12.4935 33.7727 12.4717C33.8062 12.4282 33.8558 12.3655 33.9198 12.2896C34.0481 12.1372 34.2327 11.9334 34.4605 11.7247C34.9278 11.2963 35.5224 10.8973 36.1481 10.8072C36.6738 10.7326 37.2123 10.8844 37.8289 11.3784C40.9628 14.3839 42.6967 19.0361 43.418 23.4923H42.5284C42.4556 23.4923 42.3889 23.4633 42.3373 23.4025L39.6391 18.5364C39.6104 18.4728 39.5773 18.4245 39.5689 18.4121C39.5681 18.411 39.5675 18.4102 39.5672 18.4096L39.5669 18.4092C37.2948 14.9897 33.5099 12.9409 29.4361 12.9409H23.7783C23.6682 12.9409 23.5686 12.9589 23.4873 12.9797C23.4045 12.9588 23.3048 12.9409 23.1988 12.9409H17.541C13.4665 12.9409 9.67369 14.9827 7.37122 18.4719L7.36055 18.488L7.35117 18.505L4.63665 23.405L4.60594 23.4604C4.5653 23.4873 4.51952 23.5 4.47164 23.5H3.58202C4.30345 19.0429 6.03845 14.3894 9.1881 11.3766C9.78758 10.8852 10.3251 10.7325 10.8517 10.8072C11.4778 10.8973 12.0745 11.2967 12.5427 11.725C12.7709 11.9337 12.9555 12.1373 13.0831 12.2891C13.1466 12.3648 13.1953 12.4268 13.2275 12.469C13.2414 12.4874 13.252 12.5017 13.2592 12.5115L13.2735 12.5319C13.5474 12.9221 13.9879 13.1587 14.4681 13.1587C14.5954 13.1587 14.7147 13.1346 14.7841 13.1205C14.788 13.1197 14.7918 13.1189 14.7954 13.1182L14.8038 13.1165L14.812 13.1146C15.4136 12.9722 15.837 12.4667 15.9166 11.8828L15.9167 11.8828L15.9172 11.8784C16.1493 10.0584 16.8682 9.24823 17.4793 8.87164C18.1151 8.47982 18.7297 8.49815 18.8254 8.50336L18.8389 8.50409H18.8525H18.8527H18.853H18.8532H18.8534H18.8536H18.8539H18.8541H18.8543H18.8545H18.8548H18.855H18.8552H18.8554H18.8557H18.8559H18.8561H18.8563H18.8566H18.8568H18.857H18.8572H18.8575H18.8577H18.8579H18.8582H18.8584H18.8586H18.8588H18.8591H18.8593H18.8595H18.8598H18.86H18.8602H18.8604H18.8607H18.8609H18.8611H18.8614H18.8616H18.8618H18.862H18.8623H18.8625H18.8627H18.863H18.8632H18.8634H18.8637H18.8639H18.8641H18.8644H18.8646H18.8648H18.8651H18.8653H18.8655H18.8657H18.866H18.8662H18.8664H18.8667H18.8669H18.8671H18.8674H18.8676H18.8678H18.8681H18.8683H18.8685H18.8688H18.869H18.8692H18.8695H18.8697H18.87H18.8702H18.8704H18.8707H18.8709H18.8711H18.8714H18.8716H18.8718H18.8721H18.8723H18.8725H18.8728H18.873H18.8732H18.8735H18.8737H18.874H18.8742H18.8744H18.8747H18.8749H18.8751H18.8754H18.8756H18.8759H18.8761H18.8763H18.8766H18.8768H18.877H18.8773H18.8775H18.8778H18.878H18.8782H18.8785H18.8787H18.879H18.8792H18.8794H18.8797H18.8799H18.8801H18.8804H18.8806H18.8809H18.8811H18.8813H18.8816H18.8818H18.8821H18.8823H18.8825H18.8828H18.883H18.8833H18.8835H18.8837H18.884H18.8842H18.8845H18.8847H18.885H18.8852H18.8854H18.8857H18.8859H18.8862H18.8864H18.8866H18.8869H18.8871H18.8874H18.8876H18.8879H18.8881H18.8883H18.8886H18.8888H18.8891H18.8893H18.8895H18.8898H18.89H18.8903H18.8905H18.8908H18.891H18.8912H18.8915H18.8917H18.892H18.8922H18.8925H18.8927H18.8929H18.8932H18.8934H18.8937H18.8939H18.8942H18.8944H18.8947H18.8949H18.8951H18.8954H18.8956H18.8959H18.8961H18.8964H18.8966H18.8968H18.8971H18.8973H18.8976H18.8978H18.8981H18.8983H18.8986H18.8988H18.899H18.8993H18.8995H18.8998H18.9H18.9003H18.9005H18.9008H18.901H18.9012H18.9015H18.9017H18.902H18.9022H18.9025H18.9027H18.903H18.9032H18.9035H18.9037H18.9039H18.9042H18.9044H18.9047H18.9049H18.9052H18.9054H18.9057H18.9059H18.9062H18.9064H18.9066H18.9069H18.9071H18.9074H18.9076H18.9079H18.9081H18.9084H18.9086H18.9089H18.9091H18.9093H18.9096H18.9098H18.9101H18.9103H18.9106H18.9108H18.9111H18.9113H18.9116H18.9118H18.912H18.9123H18.9125H18.9128H18.913H18.9133H18.9135H18.9138H18.914H18.9143H18.9145H18.9147H18.915H18.9152H18.9155H18.9157H18.916H18.9162H18.9165H18.9167H18.917H18.9172H18.9175H18.9177H18.9179H18.9182H18.9184H18.9187H18.9189H18.9192H18.9194H18.9197H18.9199H18.9202H18.9204H18.9206H18.9209H18.9211H18.9214H18.9216H18.9219H18.9221H18.9224H18.9226H18.9229H18.9231H18.9233H18.9236H18.9238H18.9241H18.9243H18.9246H18.9248H18.9251H18.9253H18.9255H18.9258H18.926H18.9263H18.9265H18.9268H18.927H18.9273H18.9275H18.9278H18.928H18.9282H18.9285H18.9287H18.929H18.9292H18.9295H18.9297H18.93H18.9302H18.9304H18.9307H18.9309H18.9312H18.9314H18.9317H18.9319H18.9321H18.9324H18.9326H18.9329H18.9331H18.9334H18.9336H18.9339H18.9341H18.9343H18.9346H18.9348H18.9351H18.9353H18.9356H18.9358H18.936H18.9363H18.9365H18.9368H18.937H18.9373H18.9375H18.9377H18.938H18.9382H18.9385H18.9387H18.9389H18.9392H18.9394H18.9397H18.9399H18.9402H18.9404H18.9406H18.9409H18.9411H18.9414H18.9416H18.9418H18.9421H18.9423H18.9426H18.9428H18.9431H18.9433H18.9435H18.9438H18.944H18.9443H18.9445H18.9447H18.945H18.9452H18.9455H18.9457H18.9459H18.9462H18.9464H18.9467H18.9469H18.9471H18.9474H18.9476H18.9479H18.9481H18.9483H18.9486H18.9488H18.949H18.9493H18.9495H18.9498H18.95H18.9502H18.9505H18.9507H18.9509H18.9512H18.9514H18.9517H18.9519H18.9521H18.9524H18.9526H18.9528H18.9531H18.9533H18.9536H18.9538H18.954H18.9543H18.9545H18.9547H18.955H18.9552H18.9554H18.9557H18.9559H18.9562H18.9564H18.9566H18.9569H18.9571H18.9573H18.9576H18.9578H18.958H18.9583H18.9585H18.9587H18.959H18.9592H18.9594H18.9597H18.9599H18.9601H18.9604H18.9606H18.9608H18.9611H18.9613H18.9615H18.9618H18.962H18.9622H18.9625H18.9627H18.9629H18.9631H18.9634H18.9636H18.9638H18.9641H18.9643H18.9645H18.9648H18.965H18.9652H18.9655H18.9657H18.9659H18.9661H18.9664H18.9666H18.9668H18.9671H18.9673H18.9675H18.9677H18.968H18.9682H18.9684H18.9687H18.9689H18.9691H18.9693H18.9696H18.9698H18.97H18.9702H18.9705H18.9707H18.9709H18.9712H18.9714H18.9716H18.9718H18.9721H18.9723H18.9725H18.9727H18.973H18.9732H18.9734H18.9736H18.9739H18.9741H18.9743H18.9745C18.9765 8.50409 18.9794 8.50406 18.9832 8.50402C19.0734 8.50299 19.6716 8.49621 20.3185 8.79003C20.9669 9.08453 21.6923 9.69203 21.9694 11.0263C22.1188 11.7616 22.8005 12.2438 23.5298 12.1717C24.2264 12.2108 24.8886 11.7557 25.0382 11.0262L24.5484 10.9257ZM24.5484 10.9257C24.4493 11.4088 23.9994 11.7155 23.5191 11.6695L28.1475 8.00409H28.0331C27.751 8.00409 25.1585 8.00409 24.5484 10.9257Z" fill="#0A3366" stroke="white"/>
<path d="M14.6604 9.2048C14.5281 9.1123 14.39 9.02219 14.2466 8.93563C14.4596 8.86575 14.6749 8.80179 14.8926 8.74393C14.8115 8.89158 14.734 9.04517 14.6604 9.2048Z" fill="#0A3366" stroke="white"/>
<path d="M34.3371 9.20358C34.2643 9.04525 34.1876 8.89311 34.1075 8.74692C34.3226 8.80459 34.5357 8.86825 34.7464 8.93772C34.6047 9.02325 34.4681 9.11216 34.3371 9.20358Z" fill="#0A3366" stroke="white"/>
<path d="M16.3288 34.5C18.6051 34.5 20.7629 35.2661 22.4117 36.6341L24.5958 36.6342C26.2424 35.2603 28.3983 34.5009 30.6747 34.5C32.7282 34.501 34.9333 35.4001 36.6262 36.9217C38.3159 38.4403 39.4616 40.5471 39.4616 42.9401C39.4616 42.9928 39.4648 43.044 39.4702 43.0934C36.2641 47.4321 31.1518 50.5 23.5 50.5C15.8486 50.5 10.7364 47.4325 7.53034 43.094C7.5355 43.0446 7.53839 42.9933 7.53839 42.9401C7.53839 40.5511 8.68401 38.4442 10.3739 36.9245C12.068 35.4009 14.2746 34.5 16.3288 34.5Z" fill="#0A3366" stroke="white"/>
<path d="M37.6284 2.19947L37.6286 2.19958C40.9795 4.34253 43.4548 8.35813 45.0919 13.1431C46.725 17.9165 47.5 23.3875 47.5 28.3464C47.5 40.9324 44.259 48.4442 39.7576 52.8147C35.2534 57.1878 29.401 58.5 24 58.5C18.599 58.5 12.7466 57.1878 8.24243 52.8147C3.74104 48.4442 0.5 40.9324 0.5 28.3464C0.5 23.3875 1.27497 17.9165 2.90811 13.1431C4.54519 8.35813 7.02051 4.34253 10.3714 2.19958L10.3724 2.19893C12.1372 1.06425 14.1064 0.5 16.231 0.5C18.3602 0.5 20.6831 1.05938 23.1901 2.20177C23.7023 2.44028 24.2937 2.43815 24.8088 2.20229L24.6006 1.74769L24.8077 2.20276C29.8397 -0.0879229 34.1244 -0.0436001 37.6284 2.19947ZM38.6432 7.70555L38.643 7.70543C34.5478 4.89263 29.6019 4.52468 24 6.51322C18.3982 4.52471 13.4524 4.89262 9.35713 7.70532C6.07162 9.95997 3.87043 13.4673 2.49131 17.2142C1.11131 20.9635 0.539461 24.9916 0.539461 28.3464C0.539461 33.8603 2.01253 39.2923 4.61422 43.5293C4.70191 43.9484 4.93331 44.3131 5.275 44.5605C5.32285 44.6393 5.38996 44.7494 5.44452 44.8256C9.5861 50.6404 16.024 53.6897 24 53.6897C31.9764 53.6897 38.4139 50.6325 42.5553 44.8259L42.562 44.8165L42.5683 44.8068C42.6054 44.7492 42.6422 44.6902 42.6765 44.6353C42.6926 44.6093 42.7083 44.5842 42.7236 44.5598C43.0583 44.3132 43.3026 43.9521 43.3875 43.5264C45.9881 39.2898 47.4605 33.8591 47.4605 28.3464C47.4605 24.9916 46.8887 20.9654 45.5087 17.217C44.1295 13.471 41.9284 9.96395 38.6432 7.70555Z" fill="#0A3366" stroke="white"/>
<path d="M35.4042 32.2199C34.9964 29.2102 33.8363 26.7863 32.0865 25.2034L31.8064 24.95C30.4272 23.8268 28.8373 23.3396 27.4155 23.5466L27.4132 23.5469C27.238 23.5716 27.0862 23.623 26.976 23.6825C26.886 23.731 26.8473 23.7716 26.8345 23.787C26.8332 23.8015 26.8317 23.8402 26.8456 23.912C26.8678 24.0268 26.9216 24.1821 27.0167 24.3694L27.6269 25.339C27.6272 25.3393 27.6274 25.3397 27.6277 25.3401C28.4417 26.6214 28.6189 28.2419 28.1158 29.6845L35.4042 32.2199ZM35.4042 32.2199C33.9415 31.5603 32.3466 31.1842 30.6907 31.1842C29.2581 31.1842 27.8552 31.4178 26.5355 31.8665C27.2524 31.3345 27.8036 30.5812 28.1157 29.6848L35.4042 32.2199ZM24.7117 32.6523C24.3419 32.7188 23.9683 32.7383 23.5963 32.7272H23.5962H23.596H23.5957H23.5955H23.5952H23.595H23.5947H23.5945H23.5942H23.594H23.5937H23.5935H23.5932H23.593H23.5927H23.5925H23.5922H23.592H23.5917H23.5915H23.5912H23.591H23.5907H23.5905H23.5902H23.59H23.5898H23.5895H23.5893H23.589H23.5888H23.5885H23.5883H23.5881H23.5878H23.5876H23.5873H23.5871H23.5869H23.5866H23.5864H23.5862H23.5859H23.5857H23.5854H23.5852H23.585H23.5847H23.5845H23.5843H23.584H23.5838H23.5836H23.5833H23.5831H23.5829H23.5827H23.5824H23.5822H23.582H23.5817H23.5815H23.5813H23.581H23.5808H23.5806H23.5804H23.5801H23.5799H23.5797H23.5795H23.5792H23.579H23.5788H23.5786H23.5783H23.5781H23.5779H23.5777H23.5775H23.5772H23.577H23.5768H23.5766H23.5764H23.5761H23.5759H23.5757H23.5755H23.5753H23.575H23.5748H23.5746H23.5744H23.5742H23.574H23.5737H23.5735H23.5733H23.5731H23.5729H23.5727H23.5725H23.5722H23.572H23.5718H23.5716H23.5714H23.5712H23.571H23.5708H23.5706H23.5703H23.5701H23.5699H23.5697H23.5695H23.5693H23.5691H23.5689H23.5687H23.5685H23.5683H23.5681H23.5679H23.5676H23.5674H23.5672H23.567H23.5668H23.5666H23.5664H23.5662H23.566H23.5658H23.5656H23.5654H23.5652H23.565H23.5648H23.5646H23.5644H23.5642H23.564H23.5638H23.5636H23.5634H23.5632H23.563H23.5628H23.5626H23.5624H23.5622H23.562H23.5618H23.5616H23.5614H23.5612H23.561H23.5608H23.5606H23.5604H23.5602H23.5601H23.5599H23.5597H23.5595H23.5593H23.5591H23.5589H23.5587H23.5585H23.5583H23.5581H23.5579H23.5577H23.5575H23.5574H23.5572H23.557H23.5568H23.5566H23.5564H23.5562H23.556H23.5558H23.5556H23.5555H23.5553H23.5551H23.5549H23.5547H23.5545H23.5543H23.5541H23.554H23.5538H23.5536H23.5534H23.5532H23.553H23.5528H23.5527H23.5525H23.5523H23.5521H23.5519H23.5517H23.5516H23.5514H23.5512H23.551H23.5508H23.5506H23.5505H23.5503H23.5501H23.5499H23.5497H23.5495H23.5494H23.5492H23.549H23.5488H23.5486H23.5485H23.5483H23.5481H23.5479H23.5477H23.5476H23.5474H23.5472H23.547H23.5468H23.5467H23.5465H23.5463H23.5461H23.5459H23.5458H23.5456H23.5454H23.5452H23.545H23.5449H23.5447H23.5445H23.5443H23.5442H23.544H23.5438H23.5436H23.5435H23.5433H23.5431H23.5429H23.5428H23.5426H23.5424H23.5422H23.5421H23.5419H23.5417H23.5415H23.5414H23.5412H23.541H23.5408H23.5407H23.5405H23.5403H23.5401H23.54H23.5398H23.5396H23.5394H23.5393H23.5391H23.5389H23.5387H23.5386H23.5384H23.5382H23.5381H23.5379H23.5377H23.5375H23.5374H23.5372H23.537H23.5368H23.5367H23.5365H23.5363H23.5362H23.536H23.5358H23.5356H23.5355H23.5353H23.5351H23.535H23.5348H23.5346H23.5345H23.5343H23.5341H23.5339H23.5338H23.5336H23.5334H23.5333H23.5331H23.5329H23.5327H23.5326H23.5324H23.5322H23.5321H23.5319H23.5317H23.5316H23.5314H23.5312H23.531H23.5309H23.5307H23.5305H23.5304H23.5302H23.53H23.5299H23.5297H23.5295H23.5294H23.5292H23.529H23.5288H23.5287H23.5285H23.5283H23.5282H23.528H23.5278H23.5277H23.5275H23.5273H23.5272H23.527H23.5268H23.5266H23.5265H23.5263H23.5261H23.526H23.5258H23.5256H23.5255H23.5253H23.5251H23.525H23.5248H23.5246H23.5244H23.5243H23.5241H23.5239H23.5238H23.5236H23.5234H23.5233H23.5231H23.5229H23.5228H23.5226H23.5224H23.5222H23.5221H23.5219H23.5217H23.5216H23.5214H23.5212H23.5211H23.5209H23.5207H23.5206H23.5204H23.5202H23.52H23.5199H23.5197H23.5195H23.5194H23.5192H23.519H23.5189H23.5187H23.5185H23.5183H23.5182H23.518H23.5178H23.5177H23.5175H23.5173H23.5171H23.517H23.5168H23.5166H23.5165H23.5163H23.5161H23.5159H23.5158H23.5156H23.5154H23.5153H23.5151H23.5149H23.5147H23.5146H23.5144H23.5142H23.5141H23.5139H23.5137H23.5135H23.5134H23.5132H23.513H23.5128H23.5127H23.5125H23.5123H23.5122H23.512H23.5118H23.5116H23.5115H23.5113H23.5111H23.5109H23.5108H23.5106H23.5104H23.5102H23.5101H23.5099H23.5097H23.5095H23.5094H23.5092H23.509H23.5088H23.5087H23.5085H23.5083H23.5081H23.508H23.5078H23.5076H23.5074H23.5072H23.5071H23.5069H23.5067H23.5065H23.5064H23.5062H23.506H23.5058H23.5056H23.5055H23.5053H23.5051H23.5049H23.5047H23.5046H23.5044H23.5042H23.504H23.5038H23.5037H23.5035H23.5033H23.5031H23.5029H23.5028H23.5026H23.5024H23.5022H23.5021H23.5019H23.5017H23.5015H23.5013H23.5012H23.501H23.5008H23.5006H23.5005H23.5003H23.5001H23.4999H23.4997H23.4996H23.4994H23.4992H23.499H23.4989H23.4987H23.4985H23.4983H23.4982H23.498H23.4978H23.4976H23.4975H23.4973H23.4971H23.4969H23.4968H23.4966H23.4964H23.4962H23.4961H23.4959H23.4957H23.4956H23.4954H23.4952H23.495H23.4949H23.4947H23.4945H23.4944H23.4942H23.494H23.4938H23.4937H23.4935H23.4933H23.4932H23.493H23.4928H23.4927H23.4925H23.4923H23.4921H23.492H23.4918H23.4916H23.4915H23.4913H23.4911H23.491H23.4908H23.4906H23.4905H23.4903H23.4901H23.49H23.4898H23.4896H23.4895H23.4893H23.4891H23.489H23.4888H23.4886H23.4885H23.4883H23.4881H23.488H23.4878H23.4876H23.4875H23.4873H23.4871H23.487H23.4868H23.4866H23.4865H23.4863H23.4861H23.486H23.4858H23.4857H23.4855H23.4853H23.4852H23.485H23.4848H23.4847H23.4845H23.4843H23.4842H23.484H23.4839H23.4837H23.4835H23.4834H23.4832H23.4831H23.4829H23.4827H23.4826H23.4824H23.4822H23.4821H23.4819H23.4818H23.4816H23.4814H23.4813H23.4811H23.481H23.4808H23.4806H23.4805H23.4803H23.4802H23.48H23.4798H23.4797H23.4795H23.4794H23.4792H23.4791H23.4789H23.4787H23.4786H23.4784H23.4783H23.4781H23.478H23.4778H23.4776H23.4775H23.4773H23.4772H23.477H23.4769H23.4767H23.4765H23.4764H23.4762H23.4761H23.4759H23.4758H23.4756H23.4755H23.4753H23.4751H23.475H23.4748H23.4747H23.4745H23.4744H23.4742H23.4741H23.4739H23.4737H23.4736H23.4734H23.4733H23.4731H23.473H23.4728H23.4727H23.4725H23.4724H23.4722H23.4721H23.4719H23.4718H23.4716H23.4714H23.4713H23.4711H23.471H23.4708H23.4707H23.4705H23.4704H23.4702H23.4701H23.4699H23.4698H23.4696H23.4695H23.4693H23.4692H23.469H23.4689H23.4687H23.4686H23.4684H23.4683H23.4681H23.468H23.4678H23.4677H23.4675H23.4674H23.4672H23.4671H23.4669H23.4668H23.4666H23.4665H23.4663H23.4662H23.466H23.4659H23.4657H23.4656H23.4654H23.4653H23.4651H23.465H23.4648H23.4647H23.4645H23.4644H23.4643H23.4641H23.464H23.4638H23.4637H23.4635H23.4634H23.4632H23.4631H23.4629H23.4628H23.4626H23.4625H23.4623H23.4622H23.462H23.4619H23.4618H23.4616H23.4615H23.4613H23.4612H23.461H23.4609H23.4607H23.4606H23.4604H23.4603H23.4602H23.46H23.4599H23.4597H23.4596H23.4594H23.4593H23.4591H23.459H23.4589H23.4587H23.4586H23.4584H23.4583H23.4581H23.458H23.4578H23.4577H23.4576H23.4574H23.4573H23.4571H23.457H23.4568H23.4567H23.4565H23.4564H23.4563H23.4561H23.456H23.4558H23.4557H23.4555H23.4554H23.4553H23.4551H23.455H23.4548H23.4547H23.4546H23.4544H23.4543H23.4541H23.454H23.4538H23.4537H23.4536H23.4534H23.4533H23.4531H23.453H23.4529H23.4527H23.4526H23.4524H23.4523H23.4521H23.452H23.4519H23.4517H23.4516H23.4514H23.4513H23.4512H23.451H23.4509H23.4507H23.4506H23.4505H23.4503H23.4502H23.45H23.4499H23.4498H23.4496H23.4495H23.4493H23.4492H23.4491H23.4489H23.4488H23.4486H23.4485H23.4484H23.4482H23.4481H23.4479H23.4478H23.4477H23.4475H23.4474H23.4472H23.4471H23.447H23.4468H23.4467H23.4465H23.4464H23.4463H23.4461H23.446H23.4459H23.4457H23.4456H23.4454H23.4453H23.4452H23.445H23.4449H23.4447H23.4446H23.4445H23.4443H23.4442H23.4441H23.4439H23.4438H23.4436H23.4435H23.4434H23.4432H23.4431H23.443H23.4428H23.4427H23.4425H23.4424H23.4423H23.4421H23.442H23.4419H23.4417H23.4416H23.4414H23.4413H23.4412H23.441H23.4409H23.4408H23.4406H23.4405H23.4403H23.4402H23.4401H23.4399H23.4398H23.4397H23.4395H23.4394H23.4393H23.4391H23.439H23.4388H23.4387H23.4386H23.4384H23.4383H23.4382H23.438H23.4379H23.4377H23.4376H23.4375H23.4373H23.4372H23.4371H23.4369H23.4368H23.4367H23.4365H23.4364H23.4363H23.4361H23.436H23.4358H23.4357H23.4356H23.4354H23.4353H23.4352H23.435H23.4349H23.4348H23.4346H23.4345H23.4343H23.4343H23.4342H23.4341H23.4339H23.4338H23.4337H23.4335H23.4334H23.4333H23.4331H23.433H23.4329H23.4327H23.4326H23.4324H23.4323H23.4322H23.432H23.4319H23.4318H23.4316H23.4315H23.4314H23.4312H23.4311H23.431H23.4308H23.4307H23.4306H23.4304H23.4303H23.4301H23.43H23.4299H23.4297H23.4296H23.4295H23.4293H23.4292H23.4291H23.4289H23.4288H23.4287H23.4285H23.4284H23.4283H23.4281H23.428H23.4278H23.4277H23.4276H23.4274H23.4273H23.4272H23.427H23.4269V32.2272L24.7117 32.6523ZM24.7117 32.6523C24.2931 32.8736 23.8873 33.1189 23.4962 33.3873L24.7117 32.6523ZM18.9005 29.6871C19.2204 30.5899 19.7769 31.3488 20.5024 31.8818C19.1707 31.4231 17.7541 31.1842 16.3093 31.1842C14.6534 31.1842 13.0585 31.5603 11.5958 32.2199C12.0036 29.2085 13.1638 26.7793 14.9127 25.2041L14.913 25.2038C16.3571 23.9009 18.0752 23.3247 19.5999 23.5466L19.6034 23.5471C19.78 23.5715 19.9328 23.6242 20.0432 23.6844C20.1257 23.7294 20.1635 23.7666 20.1773 23.782C20.1789 23.7991 20.1803 23.8406 20.1664 23.9145C20.1447 24.0298 20.0924 24.1846 19.9987 24.3694L19.3884 25.339C19.3883 25.3393 19.3881 25.3396 19.3879 25.3399C18.5737 26.6212 18.3965 28.242 18.8997 29.6848L18.8997 29.6848L18.9005 29.6871Z" fill="#0A3366" stroke="white"/>
</svg>
