<svg width="316" height="66" viewBox="0 0 316 66" fill="none" xmlns="http://www.w3.org/2000/svg">
<mask id="mask0_1_64" style="mask-type:luminance" maskUnits="userSpaceOnUse" x="0" y="0" width="126" height="66">
<path d="M125.973 0H0V65.4665H125.973V0Z" fill="white"/>
</mask>
<g mask="url(#mask0_1_64)">
<path d="M53.5513 21.6767C53.5513 27.6034 48.9149 31.9706 43.2248 31.9706C37.5349 31.9706 32.8984 27.6034 32.8984 21.6767C32.8984 15.7083 37.5349 11.3828 43.2248 11.3828C48.9149 11.3828 53.5513 15.7083 53.5513 21.6767ZM49.0308 21.6767C49.0308 17.9731 46.3437 15.4391 43.2248 15.4391C40.106 15.4391 37.4189 17.9731 37.4189 21.6767C37.4189 25.3431 40.106 27.9144 43.2248 27.9144C46.3437 27.9144 49.0308 25.3386 49.0308 21.6767Z" fill="#EA4335"/>
<path d="M75.8326 21.6767C75.8326 27.6034 71.1962 31.9706 65.5062 31.9706C59.8162 31.9706 55.1797 27.6034 55.1797 21.6767C55.1797 15.7129 59.8162 11.3828 65.5062 11.3828C71.1962 11.3828 75.8326 15.7083 75.8326 21.6767ZM71.3122 21.6767C71.3122 17.9731 68.625 15.4391 65.5062 15.4391C62.3874 15.4391 59.7002 17.9731 59.7002 21.6767C59.7002 25.3431 62.3874 27.9144 65.5062 27.9144C68.625 27.9144 71.3122 25.3386 71.3122 21.6767Z" fill="#FBBC05"/>
<path d="M97.1793 12.0047V30.4855C97.1793 38.0876 92.696 41.1925 87.3958 41.1925C82.4067 41.1925 79.4039 37.8556 78.2715 35.1266L82.2071 33.4882C82.9079 35.1637 84.6251 37.1408 87.3913 37.1408C90.7838 37.1408 92.8863 35.0477 92.8863 31.1075V29.6269H92.7285C91.7167 30.8753 89.7675 31.9661 87.3076 31.9661C82.1607 31.9661 77.4453 27.4827 77.4453 21.7138C77.4453 15.9032 82.1607 11.3828 87.3076 11.3828C89.7628 11.3828 91.712 12.4734 92.7285 13.6847H92.8863V12.0093H97.1793V12.0047ZM93.2065 21.7138C93.2065 18.0891 90.7885 15.4391 87.7114 15.4391C84.5927 15.4391 81.9797 18.0891 81.9797 21.7138C81.9797 25.3014 84.5927 27.9144 87.7114 27.9144C90.7885 27.9144 93.2065 25.3014 93.2065 21.7138Z" fill="#4285F4"/>
<path d="M104.261 1.17578V31.3428H99.8516V1.17578H104.261Z" fill="#34A853"/>
<path d="M121.439 25.0655L124.947 27.4046C123.815 29.08 121.087 31.9667 116.371 31.9667C110.523 31.9667 106.156 27.4464 106.156 21.6728C106.156 15.5512 110.56 11.3789 115.865 11.3789C121.207 11.3789 123.819 15.6302 124.673 17.9274L125.143 19.097L111.382 24.7962C112.435 26.8615 114.074 27.9151 116.371 27.9151C118.673 27.9151 120.269 26.7827 121.439 25.0655ZM110.639 21.3618L119.838 17.5423C119.332 16.2566 117.809 15.3609 116.018 15.3609C113.721 15.3609 110.523 17.3891 110.639 21.3618Z" fill="#EA4335"/>
<path d="M16.2113 19.0006V14.6333H30.9282C31.0721 15.3944 31.1464 16.2949 31.1464 17.2694C31.1464 20.546 30.2506 24.5977 27.3639 27.4845C24.556 30.4084 20.9684 31.9678 16.2159 31.9678C7.40717 31.9678 0 24.7926 0 15.9839C0 7.17513 7.40717 0 16.2159 0C21.0891 0 24.5606 1.91213 27.1689 4.4044L24.0872 7.48607C22.2168 5.73175 19.6829 4.36726 16.2113 4.36726C9.77876 4.36726 4.74784 9.55141 4.74784 15.9839C4.74784 22.4164 9.77876 27.6006 16.2113 27.6006C20.3837 27.6006 22.7599 25.9251 24.2822 24.4028C25.5167 23.1683 26.3289 21.4046 26.6491 18.996L16.2113 19.0006Z" fill="#4285F4"/>
<path d="M11.5823 46.6188H9.24637L7.84228 44.2954C7.73734 44.1191 7.6366 43.9617 7.54006 43.8231C7.44351 43.6847 7.34487 43.5671 7.24413 43.4706C7.14758 43.3698 7.04474 43.2942 6.93561 43.244C6.83067 43.1893 6.71524 43.162 6.5893 43.162H6.04153V46.6188H4.00781V37.5898H7.23154C9.42266 37.5898 10.5182 38.4084 10.5182 40.0453C10.5182 40.3602 10.4699 40.6519 10.3734 40.9206C10.2769 41.185 10.1404 41.4243 9.96415 41.6383C9.78785 41.8524 9.57377 42.0371 9.32192 42.1924C9.07426 42.3478 8.79723 42.4695 8.49081 42.5577V42.5828C8.62512 42.6248 8.75525 42.694 8.88118 42.7906C9.0071 42.8829 9.12884 42.9921 9.24637 43.118C9.3639 43.244 9.47513 43.3803 9.58007 43.5272C9.68921 43.67 9.78785 43.8105 9.876 43.9491L11.5823 46.6188ZM6.04153 39.1135V41.6257H6.92301C7.35956 41.6257 7.71006 41.4999 7.9745 41.2479C8.24314 40.9919 8.37747 40.675 8.37747 40.2973C8.37747 39.5081 7.90524 39.1135 6.9608 39.1135H6.04153Z" fill="white"/>
<path d="M20.4227 46.6188H15.0078V37.5898H20.2149V39.2457H17.0415V41.2543H19.9945V42.9039H17.0415V44.9691H20.4227V46.6188Z" fill="white"/>
<path d="M32.0343 37.5898L28.924 46.6188H26.6194L23.5469 37.5898H25.7379L27.6206 43.8735C27.7214 44.2136 27.7822 44.5137 27.8032 44.7739H27.841C27.8703 44.4927 27.9354 44.1842 28.0361 43.8483L29.9061 37.5898H32.0343Z" fill="white"/>
<path d="M37.729 46.6188H35.6953V37.5898H37.729V46.6188Z" fill="white"/>
<path d="M47.7821 46.6188H42.3672V37.5898H47.5743V39.2457H44.401V41.2543H47.3539V42.9039H44.401V44.9691H47.7821V46.6188Z" fill="white"/>
<path d="M63.8874 37.5898L61.5011 46.6188H59.247L57.7485 40.8262C57.6688 40.5239 57.6205 40.186 57.6037 39.8124H57.5785C57.5407 40.2238 57.4862 40.5617 57.4147 40.8262L55.8785 46.6188H53.5299L51.1562 37.5898H53.3788L54.6507 43.6028C54.7052 43.8588 54.7451 44.203 54.7703 44.6354H54.8081C54.8248 44.3122 54.8858 43.9596 54.9907 43.5776L56.6278 37.5898H58.8063L60.2859 43.6532C60.3405 43.8756 60.3887 44.1989 60.4308 44.6228H60.456C60.4727 44.2912 60.5168 43.9554 60.5882 43.6154L61.8348 37.5898H63.8874Z" fill="white"/>
<path d="M67.194 46.2752V44.2603C67.5591 44.5667 67.9558 44.7976 68.384 44.953C68.8121 45.1041 69.2445 45.1796 69.681 45.1796C69.937 45.1796 70.1595 45.1565 70.3484 45.1104C70.5415 45.0642 70.701 45.0012 70.827 44.9214C70.957 44.8375 71.0536 44.741 71.1165 44.6318C71.1795 44.5185 71.2111 44.3968 71.2111 44.2667C71.2111 44.0903 71.1607 43.933 71.0599 43.7944C70.9592 43.656 70.8206 43.5279 70.6444 43.4104C70.4723 43.2928 70.2666 43.1794 70.0273 43.0703C69.7881 42.9612 69.5299 42.85 69.2528 42.7366C68.5477 42.4428 68.0209 42.084 67.6725 41.6599C67.3283 41.236 67.1562 40.7239 67.1562 40.1236C67.1562 39.6536 67.2506 39.2506 67.4395 38.9148C67.6284 38.5748 67.8845 38.2956 68.2076 38.0773C68.5351 37.8591 68.9129 37.6996 69.341 37.5988C69.7691 37.4939 70.2225 37.4414 70.701 37.4414C71.1712 37.4414 71.5867 37.4708 71.9477 37.5296C72.3129 37.5841 72.6486 37.6701 72.9551 37.7877V39.6703C72.804 39.5654 72.6382 39.473 72.4577 39.3933C72.2814 39.3135 72.0989 39.2485 71.91 39.1981C71.7211 39.1435 71.5321 39.1037 71.3433 39.0785C71.1586 39.0533 70.9822 39.0407 70.8144 39.0407C70.5835 39.0407 70.3736 39.0638 70.1847 39.1099C69.9959 39.152 69.8364 39.2128 69.7062 39.2925C69.5761 39.3723 69.4753 39.4689 69.404 39.5822C69.3326 39.6913 69.2971 39.8152 69.2971 39.9536C69.2971 40.1048 69.3368 40.2412 69.4166 40.3629C69.4963 40.4804 69.6096 40.5938 69.7565 40.7029C69.9035 40.8079 70.0819 40.9128 70.2918 41.0178C70.5016 41.1184 70.7388 41.2234 71.0033 41.3326C71.3642 41.4837 71.6875 41.6452 71.9729 41.8173C72.2625 41.9853 72.5102 42.1763 72.7158 42.3904C72.9215 42.6044 73.0789 42.85 73.188 43.1271C73.2972 43.3998 73.3518 43.7188 73.3518 44.0841C73.3518 44.5878 73.2552 45.0117 73.0622 45.3559C72.8732 45.6959 72.6152 45.973 72.2878 46.187C71.9604 46.3969 71.5783 46.548 71.1417 46.6403C70.7094 46.7327 70.2519 46.7789 69.7691 46.7789C69.2738 46.7789 68.8016 46.7369 68.3525 46.6529C67.9076 46.569 67.5213 46.443 67.194 46.2752Z" fill="white"/>
<path d="M72.4102 53.5625L73.7464 57.6749H78.0703L74.5721 60.2165L75.9084 64.3289L72.4102 61.7873L68.912 64.3289L70.2482 60.2165L66.75 57.6749H71.074L72.4102 53.5625Z" fill="#DDDDDD"/>
<path d="M72.4102 53.5625L73.7464 57.6749H78.0703L74.5721 60.2165L75.9084 64.3289L72.4102 61.7873L68.912 64.3289L70.2482 60.2165L66.75 57.6749H71.074L72.4102 53.5625Z" fill="url(#paint0_linear_1_64)"/>
<path d="M88.2188 61.6579V59.4757L94.7058 50.1914H97.9395V59.2376H99.6853V61.6579H97.9395V64.475H95.1621V61.6579H88.2188ZM95.3407 53.1671L91.2738 59.2376H95.3407V53.1671Z" fill="white"/>
<path d="M102.999 64.6148C102.496 64.6148 102.08 64.4627 101.749 64.1585C101.432 63.8411 101.273 63.451 101.273 62.9881C101.273 62.5252 101.432 62.1417 101.749 61.8375C102.08 61.5201 102.496 61.3613 102.999 61.3613C103.488 61.3613 103.892 61.5201 104.209 61.8375C104.526 62.1417 104.685 62.5252 104.685 62.9881C104.685 63.451 104.526 63.8411 104.209 64.1585C103.892 64.4627 103.488 64.6148 102.999 64.6148Z" fill="white"/>
<path d="M109.82 60.4083C109.925 60.9902 110.163 61.4399 110.534 61.7573C110.917 62.0615 111.427 62.2136 112.061 62.2136C112.881 62.2136 113.476 61.8763 113.847 61.2018C114.217 60.5141 114.402 59.3635 114.402 57.75C114.098 58.1732 113.668 58.5038 113.113 58.7419C112.571 58.9799 111.982 59.099 111.347 59.099C110.501 59.099 109.734 58.927 109.046 58.5832C108.371 58.2261 107.836 57.7037 107.439 57.016C107.042 56.315 106.844 55.4686 106.844 54.4766C106.844 53.0086 107.28 51.8448 108.153 50.9851C109.026 50.1122 110.216 49.6758 111.724 49.6758C113.602 49.6758 114.925 50.2775 115.692 51.4811C116.472 52.6846 116.862 54.4965 116.862 56.9168C116.862 58.6361 116.71 60.0446 116.406 61.1423C116.115 62.24 115.606 63.0733 114.878 63.642C114.164 64.2107 113.186 64.495 111.942 64.495C110.964 64.495 110.13 64.3098 109.443 63.9395C108.755 63.556 108.226 63.06 107.856 62.4517C107.499 61.8301 107.294 61.1489 107.241 60.4083H109.82ZM111.922 56.8374C112.61 56.8374 113.152 56.6258 113.549 56.2026C113.946 55.7794 114.144 55.2107 114.144 54.4965C114.144 53.7162 113.933 53.1144 113.51 52.6912C113.1 52.2548 112.537 52.0365 111.823 52.0365C111.109 52.0365 110.54 52.2614 110.117 52.711C109.707 53.1475 109.502 53.7294 109.502 54.4568C109.502 55.1578 109.701 55.7331 110.097 56.1827C110.507 56.6192 111.116 56.8374 111.922 56.8374Z" fill="white"/>
<path fill-rule="evenodd" clip-rule="evenodd" d="M10.262 57.6749L8.92583 53.5625L7.58963 57.6749H3.26562L6.76382 60.2165L5.42763 64.3289L8.92583 61.7873L12.424 64.3289L11.0878 60.2165L14.586 57.6749H10.262ZM25.1407 57.6749L23.8045 53.5625L22.4683 57.6749H18.1443L21.6426 60.2165L20.3063 64.3289L23.8045 61.7873L27.3027 64.3289L25.9665 60.2165L29.4647 57.6749H25.1407ZM40.6671 53.5625L42.0033 57.6749H46.3273L42.8291 60.2165L44.1653 64.3289L40.6671 61.7873L37.1689 64.3289L38.5051 60.2165L35.0068 57.6749H39.3309L40.6671 53.5625ZM56.8821 57.6749L55.5458 53.5625L54.2096 57.6749H49.8856L53.3839 60.2165L52.0477 64.3289L55.5458 61.7873L59.044 64.3289L57.7078 60.2165L61.206 57.6749H56.8821Z" fill="#FBBC05"/>
</g>
<path d="M206.641 12.8945H221.655V15.7194H215.751V31.4398H212.516V15.7053H206.641V12.8945ZM221.005 18.0076H223.83V20.6064C223.923 20.2216 224.097 19.8607 224.339 19.5471C224.598 19.1903 224.902 18.8676 225.242 18.5867C225.601 18.3011 226.001 18.0724 226.429 17.9087C226.851 17.7374 227.301 17.6463 227.757 17.6403H228.463H228.872V20.4652L228.237 20.3804H227.601C227.115 20.3798 226.634 20.4808 226.189 20.6771C225.743 20.8807 225.352 21.1854 225.045 21.5669C224.691 21.9787 224.426 22.4597 224.268 22.9793C224.06 23.6126 223.96 24.2762 223.971 24.9426V31.341H221.005V18.0076ZM242.446 31.4398H239.55V29.5613C239.176 30.247 238.612 30.8108 237.926 31.1856C237.262 31.5765 236.507 31.786 235.737 31.7929C235.04 31.8575 234.337 31.7739 233.675 31.5475C233.013 31.3211 232.406 30.9571 231.895 30.4794C231.031 29.3503 230.613 27.9422 230.723 26.5245V18.0499H233.675V26.2844C233.588 27.1682 233.829 28.0531 234.353 28.7703C234.597 29.0213 234.893 29.2167 235.219 29.3434C235.546 29.4701 235.896 29.5252 236.245 29.5048C236.782 29.52 237.316 29.4238 237.813 29.2223C238.202 29.0427 238.545 28.7771 238.816 28.4455C239.089 28.1122 239.282 27.7208 239.381 27.3014C239.493 26.8389 239.55 26.3648 239.55 25.889V18.0076H242.502L242.446 31.4398ZM247.502 27.1178C247.504 27.4795 247.595 27.8353 247.768 28.1532C247.94 28.4712 248.189 28.7414 248.491 28.9398C249.111 29.3035 249.821 29.4847 250.539 29.4624C250.856 29.4574 251.172 29.4338 251.486 29.3918C251.828 29.3503 252.164 29.2697 252.488 29.1517C252.784 29.0403 253.046 28.8556 253.251 28.615C253.46 28.3569 253.562 28.0279 253.534 27.6969C253.517 27.3724 253.382 27.0654 253.152 26.8353C252.863 26.57 252.521 26.368 252.149 26.2421C251.689 26.0828 251.217 25.96 250.737 25.8748L249.127 25.4228C248.578 25.319 248.035 25.1822 247.502 25.0132C246.999 24.8572 246.522 24.6237 246.09 24.3211C245.69 24.0167 245.358 23.6317 245.115 23.1912C244.863 22.658 244.742 22.0719 244.762 21.4821C244.739 20.8347 244.922 20.1966 245.285 19.6601C245.661 19.1606 246.144 18.7506 246.697 18.4595C247.268 18.1537 247.883 17.9392 248.519 17.8239C249.149 17.7095 249.787 17.6481 250.426 17.6403C251.092 17.6417 251.755 17.7175 252.404 17.8663C253.018 17.9977 253.602 18.2419 254.127 18.5867C254.641 18.9151 255.075 19.3542 255.398 19.872C255.736 20.4542 255.934 21.1069 255.977 21.7788H252.94C252.905 21.4818 252.798 21.1978 252.628 20.9517C252.458 20.7055 252.231 20.5046 251.966 20.3663C251.419 20.1078 250.819 19.9819 250.214 19.9991H249.48C249.206 20.0385 248.936 20.1048 248.675 20.1968C248.433 20.2874 248.216 20.4324 248.039 20.6206C247.948 20.713 247.876 20.8236 247.83 20.9453C247.784 21.0669 247.764 21.1969 247.771 21.3268C247.765 21.4941 247.795 21.6607 247.861 21.8146C247.927 21.9685 248.027 22.1058 248.152 22.2166C248.441 22.465 248.778 22.6524 249.141 22.7675C249.599 22.9367 250.072 23.0644 250.553 23.1488L252.164 23.4878C252.691 23.6326 253.21 23.8071 253.717 24.0104C254.222 24.1695 254.699 24.4079 255.13 24.7166C255.533 25.0118 255.866 25.3929 256.104 25.8325C256.372 26.341 256.504 26.9104 256.486 27.485C256.505 28.1788 256.329 28.864 255.977 29.4624C255.615 30.0114 255.131 30.4703 254.565 30.8042C253.968 31.1663 253.313 31.4243 252.63 31.5669C251.938 31.7181 251.233 31.7939 250.525 31.7929C249.734 31.8044 248.946 31.7094 248.18 31.5105C247.507 31.3466 246.872 31.0488 246.316 30.6347C245.794 30.2712 245.367 29.7866 245.073 29.2223C244.752 28.5769 244.583 27.8667 244.579 27.146L247.502 27.1178ZM257.262 18.0076H259.494V13.9821H262.46V18.0076H265.13V20.211H262.446V27.3861C262.43 27.6542 262.43 27.9231 262.446 28.1912C262.464 28.391 262.527 28.5842 262.63 28.7562C262.726 28.9193 262.876 29.0441 263.053 29.1093C263.302 29.1989 263.566 29.2373 263.83 29.2223H264.452C264.662 29.2229 264.871 29.1944 265.073 29.1376V31.4257L264.113 31.5246C263.802 31.5246 263.491 31.5246 263.152 31.5246C262.518 31.5449 261.885 31.4687 261.274 31.2986C260.851 31.1853 260.465 30.961 260.158 30.6489C259.908 30.3675 259.733 30.0273 259.649 29.6602C259.562 29.1936 259.505 28.7218 259.48 28.2477V20.211H257.248L257.262 18.0076ZM267.149 18.0076H269.974V19.7731C270.345 19.0315 270.958 18.4386 271.711 18.0923C272.469 17.7469 273.294 17.5732 274.127 17.5838C275.099 17.556 276.065 17.7491 276.952 18.1488C277.734 18.5195 278.413 19.0774 278.929 19.7731C279.465 20.4469 279.863 21.2196 280.101 22.0471C280.369 22.9647 280.502 23.9162 280.497 24.872C280.494 25.7594 280.376 26.6426 280.144 27.4991C279.916 28.277 279.552 29.0085 279.07 29.6602C278.598 30.3071 277.984 30.8383 277.276 31.2138C276.479 31.6115 275.597 31.8102 274.706 31.7929C274.27 31.798 273.835 31.7602 273.406 31.6799C272.974 31.6021 272.552 31.4742 272.149 31.2986C271.754 31.1271 271.384 30.9039 271.048 30.6347C270.716 30.3714 270.434 30.0509 270.214 29.6884V36.3975H267.248L267.149 18.0076ZM277.488 24.7308C277.487 24.1342 277.406 23.5405 277.248 22.9652C277.108 22.4248 276.873 21.9133 276.556 21.4539C276.252 21.012 275.851 20.6449 275.384 20.3804C274.892 20.1078 274.336 19.9713 273.774 19.985C273.231 19.9455 272.688 20.0439 272.194 20.2712C271.7 20.4984 271.272 20.847 270.949 21.2844C270.303 22.3123 270.006 23.5208 270.101 24.7308C270.092 25.3698 270.173 26.0069 270.341 26.6234C270.495 27.1364 270.744 27.6157 271.076 28.0359C271.399 28.4437 271.803 28.7804 272.262 29.0246C272.757 29.275 273.304 29.4011 273.858 29.3918C274.456 29.4113 275.048 29.2646 275.567 28.9681C276.033 28.7064 276.429 28.3386 276.726 27.8946C277.039 27.4381 277.26 26.9247 277.375 26.3833C277.487 25.8397 277.539 25.2856 277.531 24.7308H277.488ZM282.813 12.8945H285.765V15.7194H282.813V12.8945ZM282.813 18.0076H285.765V31.4398H282.813V18.0076ZM288.463 12.8945H291.288V31.4398H288.322L288.463 12.8945ZM300.497 31.7929C299.53 31.8042 298.571 31.6267 297.672 31.2703C296.877 30.9479 296.157 30.4674 295.553 29.8579C294.911 29.2102 294.419 28.429 294.113 27.5698C293.803 26.6605 293.65 25.7053 293.661 24.7449C293.647 23.7842 293.8 22.8283 294.113 21.92C294.393 21.0909 294.846 20.3304 295.44 19.6884C296.04 19.0744 296.762 18.5932 297.559 18.2759C299.409 17.5604 301.458 17.5604 303.308 18.2759C304.105 18.5932 304.827 19.0744 305.426 19.6884C306.021 20.3304 306.474 21.0909 306.754 21.92C307.067 22.8283 307.22 23.7842 307.206 24.7449C307.217 25.7053 307.064 26.6605 306.754 27.5698C306.469 28.4 306.012 29.1606 305.412 29.8014C304.809 30.4109 304.088 30.8915 303.294 31.2138C302.373 31.6009 301.383 31.7979 300.384 31.7929H300.497ZM300.497 29.4624C301.094 29.4769 301.685 29.3306 302.206 29.0387C302.681 28.7732 303.087 28.4008 303.392 27.9511C303.68 27.486 303.886 26.9747 304 26.4398C304.301 25.3108 304.301 24.1225 304 22.9935C303.865 22.451 303.63 21.9385 303.308 21.4821C302.998 21.0357 302.593 20.6641 302.121 20.3946C301.589 20.1253 301.001 19.9849 300.405 19.9849C299.809 19.9849 299.221 20.1253 298.689 20.3946C298.217 20.6641 297.812 21.0357 297.503 21.4821C297.18 21.9385 296.945 22.451 296.81 22.9935C296.509 24.1225 296.509 25.3108 296.81 26.4398C296.951 26.9803 297.185 27.4918 297.503 27.9511C297.808 28.4008 298.214 28.7732 298.689 29.0387C299.207 29.3275 299.791 29.4737 300.384 29.4624H300.497ZM308.124 18.0076H310.356V13.9821H313.322V18.0076H315.991V20.211H313.322V27.3861C313.322 27.6969 313.322 27.9652 313.322 28.1912C313.34 28.391 313.402 28.5842 313.505 28.7562C313.611 28.9168 313.764 29.0403 313.943 29.1093C314.192 29.2 314.456 29.2385 314.72 29.2223H315.299C315.509 29.2218 315.718 29.1933 315.921 29.1376V31.4257L314.96 31.5246C314.65 31.5246 314.325 31.5246 314 31.5246C313.366 31.546 312.732 31.4698 312.121 31.2986C311.698 31.1853 311.313 30.961 311.005 30.6489C310.727 30.3484 310.536 29.977 310.455 29.5754C310.354 29.1109 310.298 28.638 310.285 28.163V20.211H308.011L308.124 18.0076Z" fill="white"/>
<path d="M203.183 12.8955H189.638L185.443 0L181.262 12.8955H167.703L178.664 20.8617L174.483 33.7572L185.443 25.7911L196.404 33.7572L192.223 20.8617L203.183 12.8955Z" fill="#56B27F"/>
<path d="M193.171 23.787L192.225 20.8633L185.445 25.7927L193.171 23.787Z" fill="#224F2C"/>
<path d="M183.737 48.7305H167V65.4678H183.737V48.7305Z" fill="#56B27F"/>
<path d="M175.375 60.0584L179.005 62.6996L177.932 59.3945L175.375 60.0584Z" fill="white"/>
<path d="M181.25 55.7758H176.758L175.374 51.4961L173.976 55.7758H169.484L173.114 58.417L171.73 62.6967L175.374 60.0555L177.62 58.417L181.25 55.7758Z" fill="white"/>
<path d="M201.847 48.7305H185.109V65.4678H201.847V48.7305Z" fill="#56B27F"/>
<path d="M193.484 60.0584L197.114 62.6996L196.055 59.3945L193.484 60.0584Z" fill="white"/>
<path d="M199.373 55.7758H194.868L193.484 51.4961L192.099 55.7758H187.594L191.238 58.417L189.854 62.6967L193.484 60.0555L195.729 58.417L199.373 55.7758Z" fill="white"/>
<path d="M219.972 48.7305H203.234V65.4678H219.972V48.7305Z" fill="#56B27F"/>
<path d="M211.586 60.0584L215.23 62.6996L214.157 59.3945L211.586 60.0584Z" fill="white"/>
<path d="M217.477 55.7758H212.985L211.587 51.4961L210.203 55.7758H205.711L209.341 58.417L207.957 62.6967L211.587 60.0555L213.847 58.417L217.477 55.7758Z" fill="white"/>
<path d="M238.073 48.7305H221.336V65.4678H238.073V48.7305Z" fill="#56B27F"/>
<path d="M229.711 60.0584L233.341 62.6996L232.268 59.3945L229.711 60.0584Z" fill="white"/>
<path d="M235.586 55.7758H231.094L229.71 51.4961L228.312 55.7758H223.82L227.464 58.417L226.066 62.6967L229.71 60.0555L231.956 58.417L235.586 55.7758Z" fill="white"/>
<path d="M256.191 48.7305H239.453V65.4678H256.191V48.7305Z" fill="#DDDDDD"/>
<path d="M247.636 48.7305H239.453V65.4678H247.636V48.7305Z" fill="#56B27F"/>
<path d="M247.82 60.0584L251.464 62.6996L250.391 59.3945L247.82 60.0584Z" fill="white"/>
<path d="M253.709 55.7758H249.218L247.82 51.4961L246.435 55.7758H241.93L245.574 58.417L244.19 62.6967L247.82 60.0555L250.065 58.417L253.709 55.7758Z" fill="white"/>
<path d="M287.184 56.6459C285.85 55.9526 285.184 54.8793 285.184 53.4259C285.184 52.7059 285.364 52.0526 285.724 51.4659C286.097 50.8659 286.65 50.3926 287.384 50.0459C288.13 49.6859 289.037 49.5059 290.104 49.5059C291.17 49.5059 292.07 49.6859 292.804 50.0459C293.55 50.3926 294.104 50.8659 294.464 51.4659C294.837 52.0526 295.024 52.7059 295.024 53.4259C295.024 54.1593 294.844 54.8059 294.484 55.3659C294.124 55.9126 293.644 56.3393 293.044 56.6459C293.777 56.9659 294.35 57.4326 294.764 58.0459C295.177 58.6593 295.384 59.3859 295.384 60.2259C295.384 61.1326 295.15 61.9259 294.684 62.6059C294.23 63.2726 293.604 63.7859 292.804 64.1459C292.004 64.5059 291.104 64.6859 290.104 64.6859C289.104 64.6859 288.204 64.5059 287.404 64.1459C286.617 63.7859 285.99 63.2726 285.524 62.6059C285.07 61.9259 284.844 61.1326 284.844 60.2259C284.844 59.3859 285.05 58.6593 285.464 58.0459C285.877 57.4193 286.45 56.9526 287.184 56.6459ZM292.304 53.8259C292.304 53.1726 292.104 52.6659 291.704 52.3059C291.317 51.9459 290.784 51.7659 290.104 51.7659C289.437 51.7659 288.904 51.9459 288.504 52.3059C288.117 52.6659 287.924 53.1793 287.924 53.8459C287.924 54.4459 288.124 54.9259 288.524 55.2859C288.937 55.6459 289.464 55.8259 290.104 55.8259C290.744 55.8259 291.27 55.6459 291.684 55.2859C292.097 54.9126 292.304 54.4259 292.304 53.8259ZM290.104 57.8659C289.344 57.8659 288.724 58.0593 288.244 58.4459C287.777 58.8326 287.544 59.3859 287.544 60.1059C287.544 60.7726 287.77 61.3193 288.224 61.7459C288.69 62.1593 289.317 62.3659 290.104 62.3659C290.89 62.3659 291.51 62.1526 291.964 61.7259C292.417 61.2993 292.644 60.7593 292.644 60.1059C292.644 59.3993 292.41 58.8526 291.944 58.4659C291.477 58.0659 290.864 57.8659 290.104 57.8659Z" fill="white"/>
<path d="M281.107 64.5066C280.6 64.5066 280.18 64.3532 279.847 64.0466C279.527 63.7266 279.367 63.3332 279.367 62.8666C279.367 62.3999 279.527 62.0132 279.847 61.7066C280.18 61.3866 280.6 61.2266 281.107 61.2266C281.6 61.2266 282.007 61.3866 282.327 61.7066C282.647 62.0132 282.807 62.3999 282.807 62.8666C282.807 63.3332 282.647 63.7266 282.327 64.0466C282.007 64.3532 281.6 64.5066 281.107 64.5066Z" fill="white"/>
<path d="M266.203 61.5268V59.3268L272.743 49.9668H276.003V59.0868H277.763V61.5268H276.003V64.3668H273.203V61.5268H266.203ZM273.383 52.9668L269.283 59.0868H273.383V52.9668Z" fill="white"/>
<defs>
<linearGradient id="paint0_linear_1_64" x1="66.6945" y1="57.6913" x2="77.7419" y2="57.6913" gradientUnits="userSpaceOnUse">
<stop stop-color="#FBBC05"/>
<stop offset="0.517528" stop-color="#FBBC05"/>
<stop offset="0.518818" stop-color="#FBBC05" stop-opacity="0"/>
<stop offset="1" stop-color="#FBBC05" stop-opacity="0"/>
</linearGradient>
</defs>
</svg>
