<svg width="59" height="47" viewBox="0 0 59 47" fill="none" xmlns="http://www.w3.org/2000/svg">
<path d="M30.7894 0.00757959C30.3646 0.00757959 29.9397 0 29.5074 0C29.0752 0 28.6503 0 28.218 0.00757959C8.69795 0.18191 0 4.25973 0 5.83628V12.2638C0.275771 12.1046 0.596261 12.0061 0.939111 12.0061C1.69934 12.0061 2.3925 12.2713 2.95894 12.7034C3.37633 11.8166 4.26326 11.195 5.29181 11.195C6.65576 11.195 7.90791 11.7029 8.87683 12.5442C9.09297 12.7337 9.29421 12.9384 9.48054 13.1582C9.99482 11.9303 11.1948 11.0662 12.5886 11.0662C14.8618 11.0662 16.8742 12.2183 18.104 13.9768C18.8493 12.1198 20.6381 10.8009 22.7324 10.8009C25.6765 10.8009 28.2329 12.5139 29.5 15C30.767 12.5063 33.3235 10.8009 36.2676 10.8009C38.3619 10.8009 40.1507 12.1122 40.896 13.9768C42.1258 12.2183 44.1382 11.0662 46.4114 11.0662C47.8052 11.0662 49.0052 11.9303 49.5194 13.1582C49.7058 12.9384 49.907 12.7337 50.1232 12.5442C51.0921 11.7029 52.3368 11.195 53.7082 11.195C54.7367 11.195 55.6237 11.8166 56.041 12.7034C56.6075 12.2713 57.3006 12.0061 58.0609 12.0061C58.4037 12.0061 58.7242 12.1046 59 12.2638V5.83628C59.0074 4.25973 50.3095 0.18191 30.7894 0.00757959Z" fill="white"/>
<path d="M53.8083 34.9638C53.1642 34.9638 52.5718 34.7725 52.0609 34.4635V35.6995C52.0609 37.1121 50.9058 38.2671 49.4768 38.2671C47.9367 38.2671 46.5373 37.6271 45.5377 36.6118V36.7589C45.5377 38.4143 44.1827 39.7606 42.5168 39.7606C40.6731 39.7606 39.0293 38.9219 37.9335 37.6197C37.3263 39.4222 35.616 40.7244 33.602 40.7244C31.8842 40.7244 30.3811 39.8342 29.5074 38.5025C28.6411 39.8342 27.1306 40.7244 25.4128 40.7244C23.3989 40.7244 21.6885 39.4222 21.0813 37.6197C19.9855 38.9293 18.3417 39.7606 16.498 39.7606C14.8321 39.7606 13.4771 38.4143 13.4771 36.7589V36.6118C12.4775 37.6344 11.0855 38.2671 9.538 38.2671C8.11637 38.2671 6.9539 37.1194 6.9539 35.6995V34.4635C6.443 34.7725 5.85066 34.9638 5.20648 34.9638C4.49567 34.9638 3.88111 34.5739 3.55532 34L3 35.1624V41.3571C3 43.7114 13.0847 47 29.5 47C45.9153 47 56 43.7114 56 41.3571V35.1624L55.4447 34C55.1189 34.5739 54.5043 34.9638 53.7935 34.9638H53.8083Z" fill="white"/>
<path d="M28 17.1325C27.6619 14.2482 25.2158 12 22.259 12C20.4604 12 19 13.4675 19 15.2747V22.1711C19 23.1831 19.813 24 20.8201 24H27.0504C27.5108 24 27.8777 23.6819 27.9928 23.2554C27.9856 23.1687 27.964 23.0892 27.964 22.9952V17.8048C27.964 17.5735 27.9784 17.3494 28 17.1253V17.1325Z" fill="white"/>
<path d="M12.784 12C11.8013 12 11 12.7528 11 13.6761V20.4446C11 21.304 11.7408 22 12.6555 22H16.3823C17.2743 22 18 21.3182 18 20.4801V16.9077C18 14.2017 15.6566 12 12.7765 12H12.784Z" fill="white"/>
<path d="M7.17073 13.6115C6.54573 13.2302 5.79878 13 4.99848 13C4.4497 13 4 13.4245 4 13.9424V20.9856C4 21.5468 4.48018 22 5.07469 22H7.94817C8.52744 22 9 21.554 9 21.0072V16.777C9 15.4532 8.26829 14.2878 7.17073 13.6115Z" fill="white"/>
<path d="M1.29197 13C1.13139 13 1 13.1402 1 13.3115V19.3459C1 19.7041 1.27737 20 1.61314 20H2.78102C2.90511 20 3 19.891 3 19.7664V14.8376C3 13.8254 2.22628 13.0078 1.28467 13.0078L1.29197 13Z" fill="white"/>
<path d="M35.7566 12C32.8138 12 30.3795 14.2468 30.043 17.1294C30.0143 17.3534 30 17.5774 30 17.8085V22.9958C30 23.0897 30.0286 23.1692 30.0501 23.2559C30.1647 23.6821 30.5298 24 30.9881 24H37.1885C38.1909 24 39 23.1764 39 22.1722V15.28C39 13.4738 37.5465 12.0072 35.7566 12.0072V12Z" fill="white"/>
<path d="M46.2235 12C43.3434 12 41 14.2017 41 16.9077V20.4801C41 21.3182 41.7257 22 42.6177 22H46.3445C47.2592 22 48 21.304 48 20.4446V13.6761C48 12.7528 47.1987 12 46.2235 12Z" fill="white"/>
<path d="M55 20.9856V13.9424C55 13.4245 54.5503 13 54.0015 13C53.2012 13 52.4543 13.2302 51.8293 13.6115C50.7317 14.2878 50 15.446 50 16.777V21.0072C50 21.554 50.4726 22 51.0518 22H53.9253C54.5198 22 55 21.5468 55 20.9856Z" fill="white"/>
<path d="M57.7153 13.0078C56.7664 13.0078 56 13.8331 56 14.8376V19.7664C56 19.8988 56.1022 20 56.219 20H57.3869C57.7226 20 58 19.7041 58 19.3459V13.3115C58 13.1402 57.8686 13 57.708 13L57.7153 13.0078Z" fill="white"/>
<path d="M22.7919 29C22.4566 29 22.1712 29.2257 22.0571 29.5418C22.0214 29.6321 22 29.7299 22 29.8352V35.9902C22 37.6456 23.2771 39 24.8537 39C26.5874 39 28 37.5102 28 35.6817V29.3386C28 29.158 27.8573 29.0075 27.6861 29.0075H22.7919V29Z" fill="white"/>
<path d="M15.6478 29.1926C15.347 29.3637 15.1234 29.6418 15.0386 29.9699C15.0154 30.0626 15 30.1624 15 30.2623V36.6379C15 37.3867 15.6632 38 16.473 38C18.9717 38 21 36.1244 21 33.8138V30.248C21 30.141 20.9846 30.0555 20.9692 29.9699C20.892 29.6418 20.6684 29.3637 20.3753 29.1926C20.1748 29.0713 19.9357 29 19.6735 29H16.365C16.1028 29 15.8638 29.0713 15.6555 29.1926H15.6478Z" fill="white"/>
<path d="M8 29.0597V36.0084C8 36.5534 8.44969 37 8.99848 37C11.2012 37 13 35.2212 13 33.0261V29.3322C13 29.2792 12.9771 29.2414 12.9695 29.1884C12.8933 28.6812 12.4741 28.2876 11.9482 28.2876C11.9177 28.2876 11.8948 28.2876 11.8643 28.2876L9.03658 28C8.46494 28.0151 8 28.492 8 29.0673V29.0597Z" fill="white"/>
<path d="M6.19273 27.2653L5.50182 27C5.21818 27.0546 5 27.3278 5 27.6477V33.6957C5 33.8673 5.13091 34 5.29091 34C6.23636 34 7 33.1728 7 32.1661V27.8974C7 27.5775 6.76 27.32 6.46182 27.32C6.37455 27.32 6.28 27.3043 6.19273 27.2731V27.2653Z" fill="white"/>
<path d="M35.2081 29.0075H30.3139C30.1427 29.0075 30 29.158 30 29.3386V35.6817C30 37.5102 31.4126 39 33.1463 39C34.7158 39 36 37.6531 36 35.9902V29.8352C36 29.7299 35.9786 29.6321 35.9429 29.5418C35.8288 29.2257 35.5434 29 35.2081 29V29.0075Z" fill="white"/>
<path d="M38.6247 29.1926C38.3239 29.3637 38.108 29.6418 38.0308 29.9699C38.0077 30.0555 38 30.141 38 30.2338V33.8138C38 36.1244 40.0283 38 42.527 38C43.3368 38 44 37.3867 44 36.6379V30.2623C44 30.1624 43.9846 30.0626 43.9614 29.9699C43.8766 29.6418 43.653 29.3637 43.3522 29.1926C43.144 29.0713 42.9049 29 42.6427 29H39.3342C39.0797 29 38.8406 29.0713 38.6324 29.1926H38.6247Z" fill="white"/>
<path d="M47.1357 28.295C47.1357 28.295 47.0823 28.295 47.0518 28.295C46.5259 28.295 46.0991 28.6882 46.0305 29.195C46.0305 29.2403 46 29.2857 46 29.3387V33.0294C46 35.2151 47.7912 37 50.0015 37C50.5503 37 51 36.5538 51 36.0092V29.0664C51 28.4916 50.5351 28.0227 49.9634 28L47.1357 28.2874V28.295Z" fill="white"/>
<path d="M52.8073 27.2731C52.72 27.3043 52.6327 27.32 52.5382 27.32C52.24 27.32 52 27.5775 52 27.8974V32.1661C52 33.1806 52.7709 34 53.7091 34C53.8691 34 54 33.8595 54 33.6956V27.6477C54 27.3278 53.7818 27.0546 53.4982 27L52.8073 27.2653V27.2731Z" fill="white"/>
</svg>
