<svg width="69" height="54" viewBox="0 0 69 54" fill="none" xmlns="http://www.w3.org/2000/svg">
<path d="M12.5 13C12.7134 9.95312 14.7378 6.67692 19 6.5C14.7378 6.32308 12.7134 3.04688 12.5 0C12.2866 3.04688 10.2622 6.32308 6 6.5C10.2622 6.67692 12.2866 9.95312 12.5 13Z" fill="white"/>
<path d="M44.5734 16.4501C40.8838 15.4281 39.0644 16.2597 35.8947 17.8086C36.4906 18.0625 37.0865 18.2085 37.7205 18.1768C38.3354 18.1514 38.8552 18.6212 38.8869 19.2306C38.9186 19.8463 38.4431 20.3669 37.8346 20.3986C35.6982 20.5002 34.0436 19.4274 32.4333 18.3863C30.3096 17.0087 28.1162 15.5868 24.3949 16.4692C19.5262 17.6245 19 23.706 19 26.2706C19 30.1747 19.6973 34.5232 20.8258 38.605C20.9526 39.0621 21.0793 39.5128 21.2188 39.9572C23.2538 46.6417 26.3982 52.3868 29.4474 53.9484C29.5996 54.0246 29.7327 54.0055 29.7961 53.9611C29.8342 53.9357 29.8595 53.9039 29.8595 53.8278V45.0229C29.8595 42.4583 31.9452 40.3761 34.5 40.3761C37.0548 40.3761 39.1405 42.4647 39.1405 45.0229V53.8278C39.1405 53.9103 39.1658 53.942 39.2039 53.9611C39.2736 54.0055 39.4067 54.0246 39.5526 53.9484C42.5955 52.3868 45.7462 46.6417 47.7812 39.9572C47.9143 39.5128 48.0474 39.0557 48.1742 38.605C49.3027 34.5232 50 30.1747 50 26.2706C50 23.7695 49.4738 17.815 44.5671 16.4565L44.5734 16.4501ZM41.2769 33.5456C41.0677 30.5937 39.0834 27.4196 34.9057 27.2482C39.0834 27.0768 41.0677 23.9028 41.2769 20.9509C41.4861 23.9028 43.4703 27.0768 47.6481 27.2482C43.4703 27.4196 41.4861 30.5937 41.2769 33.5456Z" fill="white"/>
<path d="M56.9282 33.9044C57.3713 31.1012 57.6055 28.4136 57.6055 26.0347C57.6055 17.1106 53.5225 10.6425 46.6858 8.72653C44.9386 8.23789 43.3244 8 41.7545 8C38.6083 8 36.1649 8.93871 33.8037 10.0703C32.1135 9.17017 29.6763 8.18646 26.4795 8.18646C25.1945 8.18646 23.8651 8.34719 22.5294 8.6751C15.5535 10.3532 11.3945 16.847 11.3945 26.0411C11.3945 28.4201 11.6287 31.1076 12.0718 33.9108H0V38H17.3133C16.3131 33.9944 15.7434 29.8988 15.7434 26.2919C15.7434 19.0844 18.8516 14.0373 24.0614 12.7835C25.1059 12.5328 26.1314 12.4042 27.1189 12.4042C30.0372 12.4042 32.2464 13.5294 33.7657 14.4681C36.0826 13.3172 38.2728 12.237 41.1784 12.237C42.4002 12.237 43.6662 12.4235 45.0526 12.8157C50.2687 14.2752 53.2566 19.1873 53.2566 26.2919C53.2566 29.8988 52.6869 34.0009 51.6867 38H69V33.9108H56.9282V33.9044Z" fill="white"/>
</svg>
