<svg width="15" height="15" viewBox="0 0 15 15" fill="none" xmlns="http://www.w3.org/2000/svg">
<path d="M7.5 0C3.35796 0 0 3.35796 0 7.5C0 11.642 3.35796 15 7.5 15C11.642 15 15 11.6424 15 7.5C15 3.35764 11.6424 0 7.5 0ZM12.422 8.78904C12.422 8.98243 12.2638 9.14057 12.0705 9.14057H9.49221C9.29882 9.14057 9.14068 9.29871 9.14068 9.49211V12.0702C9.14068 12.2636 8.98254 12.4217 8.78914 12.4217H6.21107C6.01768 12.4217 5.85954 12.2636 5.85954 12.0702V9.49211C5.85954 9.29871 5.70139 9.14057 5.508 9.14057H2.92971C2.73643 9.14057 2.57818 8.98243 2.57818 8.78904V6.21096C2.57818 6.01757 2.73643 5.85943 2.92971 5.85943H5.508C5.70139 5.85943 5.85954 5.70129 5.85954 5.50789V2.92982C5.85954 2.73643 6.01768 2.57829 6.21107 2.57829H8.78914C8.98254 2.57829 9.14068 2.73643 9.14068 2.92982V5.50789C9.14068 5.70129 9.29882 5.85943 9.49221 5.85943H12.0705C12.2638 5.85943 12.422 6.01757 12.422 6.21096V8.78904Z" fill="white"/>
</svg>
