<svg width="233" height="69" viewBox="0 0 233 69" fill="none" xmlns="http://www.w3.org/2000/svg">
<path fill-rule="evenodd" clip-rule="evenodd" d="M176.68 14.1824V20.6391L171.632 14.1824H169.688V24.8176H172.009V18.3601L177.071 24.8176H179V14.1824H176.68ZM165.841 14.1824L163.477 21.718L161.156 14.1824H158.98L156.586 21.6575L154.294 14.1824H151.858L155.194 24.8176H157.704L160.009 17.6161L162.244 24.8176H164.767L168.089 14.1824H165.841H165.841ZM145.46 22.9035C143.647 22.9035 142.283 21.5211 142.283 19.5004C142.283 17.4797 143.647 16.0974 145.46 16.0974C147.274 16.0974 148.637 17.4797 148.637 19.5004C148.637 21.5211 147.273 22.9035 145.46 22.9035ZM145.46 25C148.651 25 151.016 22.6759 151.016 19.5004C151.016 16.3249 148.651 14 145.46 14C142.269 14 139.905 16.3403 139.905 19.5004C139.905 22.6606 142.255 25 145.46 25ZM133.534 24.8176H135.884V16.1877H139.133V14.1824H130.285V16.1877H133.534V24.8176ZM126.41 14.1824V20.6391L121.363 14.1824H119.419V24.8176H121.739V18.3601L126.802 24.8176H128.731V14.1824H126.409H126.41ZM115.572 14.1824L113.208 21.718L110.887 14.1824H108.712L106.318 21.6575L104.026 14.1824H101.589L104.925 24.8176H107.434L109.741 17.6161L111.974 24.8176H114.499L117.82 14.1824H115.572ZM95.1909 22.9035C93.3774 22.9035 92.0138 21.5211 92.0138 19.5004C92.0138 17.4797 93.3774 16.0974 95.1909 16.0974C97.0045 16.0974 98.3673 17.4797 98.3673 19.5004C98.3673 21.5211 97.0037 22.9035 95.1909 22.9035ZM95.1909 25C98.382 25 100.746 22.6759 100.746 19.5004C100.746 16.3249 98.382 14 95.1909 14C91.9999 14 89.6355 16.3403 89.6355 19.5004C89.6355 22.6606 91.9853 25 95.1909 25ZM80.3498 22.7969V16.2031H82.4961C84.5123 16.2031 85.832 17.4644 85.832 19.5004C85.832 21.5364 84.5123 22.7977 82.4961 22.7977H80.3498V22.7969ZM78 24.8176H82.6124C85.9337 24.8176 88.211 22.7211 88.211 19.4996C88.211 16.2781 85.9337 14.1816 82.6124 14.1816H78V24.8168V24.8176Z" fill="white"/>
<path fill-rule="evenodd" clip-rule="evenodd" d="M213.918 56H233V51.097H219.944V30H213.918V56H213.918ZM192.418 45.8603L196.547 35.9056L200.676 45.8603H192.418ZM204.879 56H211.203L199.56 30H193.609L182.003 56H188.179L190.485 50.4288H202.574L204.88 56H204.879ZM169.132 56H175.159V34.903H183.491V30H160.8V34.903H169.132V56ZM151.613 30V45.7856L138.669 30H133.684V56H139.636V40.2144L152.618 56H157.565V30H151.614H151.613ZM114.713 51.1718V45.1544H126.802V40.4741H114.713V34.8282H128.401V30H108.725V56H128.885V51.171H114.713V51.1718ZM84.0253 51.06V34.94H89.5305C94.7007 34.94 98.0857 38.0226 98.0857 43.0004C98.0857 47.9781 94.7007 51.06 89.5305 51.06H84.0253ZM78 56H89.8284C98.3466 56 104.187 50.8743 104.187 43.0004C104.187 35.1265 98.3466 30 89.8284 30H78V56Z" fill="white"/>
<path fill-rule="evenodd" clip-rule="evenodd" d="M56.1414 0.976495C49.9503 3.48155 45.2836 7.4573 36.7862 5.49225C45.1285 9.67998 50.2938 7.92536 55.273 5.73904C65.6808 1.17068 66.1956 16.9801 64.3216 23.7131C73.1377 13.8561 68.9836 -4.21929 56.1406 0.977268M34.0245 42.853L36.0985 43.5091L36.0838 43.8209L34.0091 43.1648L34.0245 42.853ZM36.6658 43.7435L38.7406 44.3995L38.7251 44.7113L36.6511 44.0553L36.6658 43.7435ZM39.3063 44.6657L41.3811 45.321L41.3657 45.6335L39.2917 44.9767L39.3063 44.6657ZM39.304 45.6142L41.3741 46.281L41.3579 46.5921L39.287 45.9259L39.304 45.6142ZM36.6697 44.6788L38.7398 45.3457L38.7236 45.6575L36.6535 44.9906L36.6697 44.6788ZM34.033 43.7744L36.1031 44.4405L36.0869 44.7531L34.016 44.087L34.033 43.7744ZM39.3056 46.4188L41.3788 47.0794L41.3633 47.3905L39.2901 46.7313L39.3056 46.4188ZM36.6673 45.4927L38.7406 46.1526L38.7251 46.4644L36.6519 45.8045L36.6673 45.4927ZM34.0268 44.5968L36.1 45.2567L36.0838 45.5685L34.0106 44.9086L34.026 44.5968H34.0268ZM39.3102 47.3371L41.3896 47.9784L41.3772 48.291L39.2978 47.6488L39.3102 47.3371ZM36.6627 46.4327L38.7413 47.0756L38.729 47.3874L36.6496 46.7452L36.6619 46.4327H36.6627ZM34.0137 45.56L36.0931 46.2021L36.08 46.5139L34.0006 45.8726L34.0129 45.56H34.0137ZM39.3202 48.1974L41.4166 48.79L41.4135 49.1017L39.3164 48.5091L39.3202 48.1974ZM36.6488 47.3564L38.7452 47.949L38.7413 48.2608L36.645 47.6682L36.6488 47.3564ZM33.9766 46.5456L36.0738 47.1382L36.0699 47.4508L33.9735 46.8582L33.9774 46.5456H33.9766ZM39.3202 48.9811L41.4166 49.5737L41.4135 49.8847L39.3164 49.2921L39.3202 48.9803V48.9811ZM36.6488 48.1401L38.7452 48.7327L38.7413 49.0453L36.645 48.4527L36.6488 48.1409V48.1401ZM33.9766 47.3301L36.0738 47.9227L36.0699 48.2353L33.9735 47.6427L33.9774 47.3301H33.9766ZM39.3202 49.9226L41.4166 50.5152L41.4135 50.8285L39.3164 50.2351L39.3202 49.9234V49.9226ZM36.6488 49.0809L38.7452 49.6742L38.7413 49.986L36.645 49.3934L36.6488 49.0801V49.0809ZM33.9766 48.2709L36.0738 48.8642L36.0699 49.176L33.9735 48.5834L33.9774 48.2709H33.9766ZM39.3202 50.9461L41.4166 51.5387L41.4135 51.8505L39.3164 51.2571L39.3202 50.9461ZM36.6488 50.1044L38.7452 50.6978L38.7413 51.0096L36.645 50.4169L36.6488 50.1052V50.1044ZM33.9766 49.2944L36.0738 49.887L36.0699 50.1996L33.9735 49.6069L33.9774 49.2944H33.9766ZM39.3202 51.7855L41.4166 52.3789L41.4135 52.6915L39.3164 52.0981L39.3202 51.7855ZM36.6488 50.9446L38.7452 51.5372L38.7413 51.8497L36.645 51.2564L36.6488 50.9438V50.9446ZM33.9766 50.1346L36.0738 50.7272L36.0699 51.039L33.9735 50.4463L33.9774 50.1338L33.9766 50.1346ZM33.9766 52.2714L36.0738 52.864L36.0699 53.1765L33.9735 52.5831L33.9774 52.2721L33.9766 52.2714ZM36.6488 51.9596L38.7452 52.553L38.7413 52.8648L36.645 52.2721L36.6488 51.9596ZM33.9766 51.1496L36.0738 51.743L36.0699 52.0555L33.9735 51.4621L33.9774 51.1496H33.9766ZM29.9406 57.3024L29.6635 57.3078V55.3698L28.4185 55.3613V34.0892L27.9067 33.9144V54.1807H27.4096V59.334L26.6378 59.327V52.8075L26.1245 53.0504L26.126 59.7293L25.5958 59.7246V53.1046L25.084 53.3483V59.1622L24.6248 59.1576V53.4813L24.1123 53.715V58.158L23.5727 58.1526L23.5859 53.1587L26.2827 51.9255L26.4232 31.8077L30.4431 33.2498L30.4678 42.525L29.9406 42.7772V57.3031V57.3024ZM51.9394 55.5346L51.2926 55.5524V59.6751H50.3154V49.1629L48.8018 48.3745V58.0675H47.5174L47.5359 45.6088L51.9486 47.9328L51.9378 55.5338L51.9394 55.5346ZM55.8581 54.8646H54.3098L54.3044 40.659L53.7996 40.7975V52.136H52.9142V57.9809L52.6039 57.9894V47.7456L51.7564 47.2589L51.775 40.1329L55.7956 38.6916L55.8581 54.8654V54.8646ZM45.6047 56.4521C45.4272 56.2293 45.2435 56.0197 45.0544 55.8216V46.9758H43.1718V45.601L42.5644 45.3674V54.0283C42.1892 53.855 41.8056 53.7142 41.4143 53.602L41.4166 53.3947L40.6594 53.1812L39.5657 52.8717L39.3195 52.8021V53.1518L40.0242 53.332C39.2639 53.2508 38.492 53.2717 37.7279 53.3885L36.648 53.0829L36.6442 53.3947L37.0625 53.5131C36.7291 53.5881 36.3987 53.6809 36.0715 53.79V53.732L33.9751 53.1386L33.9712 53.4504L35.674 53.9324C35.3482 54.0569 35.0271 54.1985 34.7122 54.3563L33.9743 54.1475L33.9712 54.5598L34.4467 54.494C33.6926 54.8994 32.9794 55.4 32.3295 55.9856V54.4244H33.4464L33.3653 41.6152L39.2153 43.7389L39.2014 42.7625L43.8001 44.4676V46.1696H45.6032V56.4529L45.6047 56.4521ZM19.2225 21.714C18.8073 21.4115 18.2492 21.2266 17.6333 21.2266C17.0173 21.2266 16.494 21.4007 16.0826 21.6877C15.6812 21.967 15.408 22.3523 15.3393 22.7816L15.2976 23.0423L15.0375 23.0129C14.9711 23.0052 14.9024 22.999 14.8337 22.9952C14.7735 22.9921 14.7064 22.9897 14.6323 22.9897C13.9739 22.9897 13.3826 23.1685 12.9589 23.457H12.9581C12.5652 23.7247 12.3221 24.086 12.3221 24.4751C12.3221 24.8643 12.5652 25.2263 12.9581 25.4932H12.9589C13.3826 25.7818 13.9739 25.9613 14.6323 25.9613C15.0985 25.9613 15.5315 25.8716 15.895 25.7161C16.2594 25.5606 16.5527 25.3408 16.7356 25.084L16.9602 24.7691L17.1848 25.084C17.3677 25.3408 17.6611 25.5613 18.0254 25.7161C18.3889 25.8716 18.8219 25.9613 19.2881 25.9613C19.9465 25.9613 20.5378 25.7826 20.9615 25.4932H20.9623C21.3552 25.2256 21.5983 24.8651 21.5983 24.4751C21.5983 24.1827 21.4601 23.905 21.2255 23.6729C20.9646 23.4145 20.5864 23.2102 20.1403 23.095L19.9558 23.047L19.9357 22.8567C19.8894 22.4111 19.6231 22.008 19.221 21.7148L19.2225 21.714ZM17.634 20.6735C18.3689 20.6735 19.0411 20.8986 19.5467 21.2668C20.0175 21.6103 20.3479 22.0792 20.4567 22.6114C20.9222 22.7584 21.3228 22.9905 21.6145 23.2799H21.6153C21.9534 23.6148 22.1517 24.0264 22.1517 24.4751C22.1517 25.0577 21.816 25.5791 21.2734 25.9489C20.7616 26.2978 20.0592 26.5145 19.2897 26.5145C18.7486 26.5145 18.2415 26.4077 17.8108 26.2243C17.4774 26.0828 17.1879 25.8917 16.9617 25.6673C16.7356 25.8917 16.4461 26.0828 16.1127 26.2243C15.682 26.4085 15.1749 26.5145 14.6338 26.5145C13.8643 26.5145 13.1619 26.2986 12.6501 25.9497C12.1075 25.5791 11.7718 25.0585 11.7718 24.4759C11.7718 23.8934 12.1075 23.3719 12.6501 23.0021C13.1619 22.6532 13.8643 22.4366 14.6338 22.4366C14.7025 22.4366 14.7766 22.4389 14.8546 22.4428C14.9989 21.9623 15.3246 21.543 15.7692 21.2336C16.2686 20.8854 16.9224 20.6742 17.634 20.6742V20.6735ZM31.4843 14.7706C31.069 14.4681 30.511 14.2832 29.8958 14.2832C29.2806 14.2832 28.7558 14.4572 28.3451 14.7443C27.9445 15.0235 27.6705 15.4088 27.6018 15.8382L27.5602 16.0989L27.3 16.0687C27.2344 16.061 27.165 16.0556 27.0963 16.0509C27.0361 16.0478 26.9689 16.0455 26.8956 16.0455C26.2372 16.0455 25.6459 16.2242 25.2222 16.5136H25.2214C24.8286 16.7813 24.5854 17.1418 24.5854 17.5317C24.5854 17.9216 24.8286 18.2821 25.2214 18.5498H25.2222C25.6459 18.8391 26.2372 19.0179 26.8956 19.0179C27.3618 19.0179 27.7948 18.9281 28.1584 18.7726C28.5227 18.6171 28.816 18.3974 28.9989 18.1405L29.2235 17.8257L29.4481 18.1405C29.6311 18.3974 29.9244 18.6171 30.2887 18.7726C30.6522 18.9273 31.0852 19.0179 31.5515 19.0179C32.2099 19.0179 32.8011 18.8391 33.2248 18.5498H33.2256C33.6185 18.2821 33.8616 17.9216 33.8616 17.5317C33.8616 17.2393 33.7235 16.9615 33.4888 16.7294C33.2279 16.471 32.8497 16.2668 32.4036 16.1515L32.2191 16.1035L32.199 15.9132C32.1535 15.4676 31.8864 15.0645 31.4843 14.7713V14.7706ZM29.895 13.73C30.6299 13.73 31.3021 13.9551 31.8077 14.3234C32.2785 14.6669 32.6081 15.1357 32.717 15.668C33.1832 15.815 33.583 16.0471 33.8748 16.3364H33.8755C34.2136 16.6714 34.412 17.083 34.412 17.5317C34.412 18.1142 34.0762 18.6357 33.5336 19.0055C33.0218 19.3544 32.3195 19.5702 31.5499 19.5702C31.0088 19.5702 30.5017 19.4635 30.071 19.2801C29.7384 19.1378 29.4481 18.9475 29.222 18.7223C28.9958 18.9467 28.7064 19.1378 28.3729 19.2801C27.9422 19.4635 27.4351 19.5702 26.894 19.5702C26.1237 19.5702 25.4221 19.3544 24.9104 19.0055C24.3678 18.6349 24.032 18.1142 24.032 17.5317C24.032 16.9491 24.3678 16.4277 24.9104 16.0579C25.4221 15.709 26.1245 15.4924 26.894 15.4924C26.962 15.4924 27.0368 15.4947 27.1148 15.4993C27.2591 15.0189 27.5849 14.5996 28.0287 14.2901C28.5281 13.942 29.1818 13.7308 29.8943 13.7308L29.895 13.73ZM56.312 15.9117C55.8967 15.6092 55.3386 15.4243 54.7227 15.4243C54.1068 15.4243 53.5834 15.5984 53.172 15.8846C52.7707 16.1631 52.4974 16.5492 52.4287 16.9785L52.3871 17.2393L52.1269 17.2091C52.0613 17.2013 51.9919 17.1959 51.9232 17.1921C51.863 17.189 51.7958 17.1866 51.7217 17.1866C51.0641 17.1866 50.4721 17.3654 50.0483 17.6547H50.0475C49.6547 17.9224 49.4115 18.2829 49.4115 18.6728C49.4115 19.0627 49.6547 19.424 50.0475 19.6909H50.0483C50.4721 19.9803 51.0641 20.159 51.7217 20.159C52.1879 20.159 52.6209 20.0692 52.9845 19.9137C53.3488 19.7582 53.6421 19.5385 53.825 19.2817L54.0489 18.9668L54.2735 19.2817C54.4564 19.5385 54.7497 19.7582 55.114 19.9137C55.4776 20.0692 55.9106 20.159 56.3768 20.159C57.0352 20.159 57.6264 19.9803 58.0502 19.6909H58.051C58.4438 19.4232 58.687 19.0627 58.687 18.6728C58.687 18.3804 58.5488 18.1034 58.3142 17.8705C58.0533 17.6121 57.6751 17.4079 57.2289 17.2919L57.0445 17.2439L57.0244 17.0536C56.9781 16.608 56.7118 16.2049 56.3096 15.9117H56.312ZM54.7235 14.8711C55.4583 14.8711 56.1306 15.0963 56.6361 15.4645C57.107 15.808 57.4373 16.2768 57.5462 16.8091C58.0124 16.9561 58.4122 17.1882 58.704 17.4775H58.7047C59.0428 17.8125 59.2412 18.2241 59.2412 18.6728C59.2412 19.2554 58.9054 19.7768 58.3628 20.1466C57.8511 20.4955 57.1487 20.7121 56.3791 20.7121C55.838 20.7121 55.3309 20.6054 54.9002 20.422C54.5668 20.2797 54.2773 20.0894 54.0512 19.8642C53.825 20.0886 53.5356 20.2789 53.2021 20.422C52.7714 20.6054 52.2643 20.7121 51.7232 20.7121C50.9537 20.7121 50.2513 20.4963 49.7396 20.1474C49.1969 19.7768 48.8612 19.2561 48.8612 18.6736C48.8612 18.091 49.1969 17.5696 49.7396 17.1998C50.2513 16.8509 50.9537 16.6343 51.7232 16.6343C51.7919 16.6343 51.866 16.6366 51.944 16.6412C52.0883 16.1608 52.4133 15.7407 52.8579 15.432C53.3573 15.0839 54.011 14.8727 54.7227 14.8727L54.7235 14.8711ZM19.0481 7.80854C26.1237 9.33107 29.6434 11.8036 36.8572 9.28156C28.0271 7.34822 24.8478 0.477495 15.1571 0.0249133C-12.257 -1.25547 4.20367 47.1963 12.8385 57.7225C19.7798 66.6936 28.4393 70.9084 33.6 62.0549C36.8047 54.9722 41.5957 55.7125 44.6098 63.787C51.0324 76.7092 66.0204 63.9433 63.2834 43.7164C62.5586 48.4039 61.6563 51.8103 60.7301 54.344V39.5078L56.0217 38.051L51.3196 39.7476L51.298 46.9967L48.5 45.3906L48.3958 36.1463H46.7517V26.3868H44.3713V19.3892H44.3497L44.3242 17.1859H44.1814L44.1559 19.3892H43.567V18.956H43.4752L43.3987 12.1928H43.2559L43.1795 18.956H40.2905L39.8852 19.3892L39.8003 11.8292H39.6568C39.6259 14.5594 39.568 17.3166 39.568 20.0391L39.2129 20.1435L39.1767 16.9329H39.0339C38.9976 20.094 38.9822 23.2126 38.9822 26.3868H38.4256V36.1463H37.2107L37.2833 42.5776L33.3375 41.151L30.9239 42.3061L30.8954 32.8653L26.1932 31.1679L21.4848 32.6255V50.9268L18.7092 51.9689L18.6977 57.0796C18.3403 56.6819 18.013 56.2672 17.7236 55.8417C13.6018 50.6398 10.7583 43.6274 9.20918 36.2043C7.38836 27.4622 3.85093 4.54144 19.0481 7.80854Z" fill="white"/>
</svg>
