<svg width="213" height="69" viewBox="0 0 213 69" fill="none" xmlns="http://www.w3.org/2000/svg">
<path fill-rule="evenodd" clip-rule="evenodd" d="M156.68 14.1824V20.6391L151.632 14.1824H149.688V24.8176H152.009V18.3601L157.071 24.8176H159V14.1824H156.68ZM145.841 14.1824L143.477 21.718L141.156 14.1824H138.98L136.586 21.6575L134.294 14.1824H131.858L135.194 24.8176H137.704L140.009 17.6161L142.244 24.8176H144.767L148.089 14.1824H145.841H145.841ZM125.46 22.9035C123.647 22.9035 122.283 21.5211 122.283 19.5004C122.283 17.4797 123.647 16.0974 125.46 16.0974C127.274 16.0974 128.637 17.4797 128.637 19.5004C128.637 21.5211 127.273 22.9035 125.46 22.9035ZM125.46 25C128.651 25 131.016 22.6759 131.016 19.5004C131.016 16.3249 128.651 14 125.46 14C122.269 14 119.905 16.3403 119.905 19.5004C119.905 22.6606 122.255 25 125.46 25ZM113.534 24.8176H115.884V16.1877H119.133V14.1824H110.285V16.1877H113.534V24.8176ZM106.41 14.1824V20.6391L101.363 14.1824H99.4188V24.8176H101.739V18.3601L106.802 24.8176H108.731V14.1824H106.409H106.41ZM95.5721 14.1824L93.2077 21.718L90.8873 14.1824H88.7116L86.318 21.6575L84.026 14.1824H81.5892L84.9251 24.8176H87.4343L89.7409 17.6161L91.9743 24.8176H94.499L97.8202 14.1824H95.5721ZM75.1909 22.9035C73.3774 22.9035 72.0138 21.5211 72.0138 19.5004C72.0138 17.4797 73.3774 16.0974 75.1909 16.0974C77.0045 16.0974 78.3673 17.4797 78.3673 19.5004C78.3673 21.5211 77.0037 22.9035 75.1909 22.9035ZM75.1909 25C78.382 25 80.7464 22.6759 80.7464 19.5004C80.7464 16.3249 78.382 14 75.1909 14C71.9999 14 69.6355 16.3403 69.6355 19.5004C69.6355 22.6606 71.9853 25 75.1909 25ZM60.3498 22.7969V16.2031H62.4961C64.5123 16.2031 65.832 17.4644 65.832 19.5004C65.832 21.5364 64.5123 22.7977 62.4961 22.7977H60.3498V22.7969ZM58 24.8176H62.6124C65.9337 24.8176 68.211 22.7211 68.211 19.4996C68.211 16.2781 65.9337 14.1816 62.6124 14.1816H58V24.8168V24.8176Z" fill="white"/>
<path fill-rule="evenodd" clip-rule="evenodd" d="M193.918 56H213V51.097H199.944V30H193.918V56H193.918ZM172.418 45.8603L176.547 35.9056L180.676 45.8603H172.418ZM184.879 56H191.203L179.56 30H173.609L162.003 56H168.179L170.485 50.4288H182.574L184.88 56H184.879ZM149.132 56H155.159V34.903H163.491V30H140.8V34.903H149.132V56ZM131.613 30V45.7856L118.669 30H113.684V56H119.636V40.2144L132.618 56H137.565V30H131.614H131.613ZM94.7131 51.1718V45.1544H106.802V40.4741H94.7131V34.8282H108.401V30H88.7248V56H108.885V51.171H94.7131V51.1718ZM64.0253 51.06V34.94H69.5305C74.7007 34.94 78.0857 38.0226 78.0857 43.0004C78.0857 47.9781 74.7007 51.06 69.5305 51.06H64.0253ZM58 56H69.8284C78.3466 56 84.1867 50.8743 84.1867 43.0004C84.1867 35.1265 78.3466 30 69.8284 30H58V56Z" fill="white"/>
<path fill-rule="evenodd" clip-rule="evenodd" d="M36.1414 0.976495C29.9503 3.48155 25.2836 7.4573 16.7862 5.49225C25.1285 9.67998 30.2938 7.92536 35.273 5.73904C45.6808 1.17068 46.1956 16.9801 44.3216 23.7131C53.1377 13.8561 48.9836 -4.21929 36.1406 0.977268M14.0245 42.853L16.0985 43.5091L16.0838 43.8209L14.0091 43.1648L14.0245 42.853ZM16.6658 43.7435L18.7406 44.3995L18.7251 44.7113L16.6511 44.0553L16.6658 43.7435ZM19.3063 44.6657L21.3811 45.321L21.3657 45.6335L19.2917 44.9767L19.3063 44.6657ZM19.304 45.6142L21.3741 46.281L21.3579 46.5921L19.287 45.9259L19.304 45.6142ZM16.6697 44.6788L18.7398 45.3457L18.7236 45.6575L16.6535 44.9906L16.6697 44.6788ZM14.033 43.7744L16.1031 44.4405L16.0869 44.7531L14.016 44.087L14.033 43.7744ZM19.3056 46.4188L21.3788 47.0794L21.3633 47.3905L19.2901 46.7313L19.3056 46.4188ZM16.6673 45.4927L18.7406 46.1526L18.7251 46.4644L16.6519 45.8045L16.6673 45.4927ZM14.0268 44.5968L16.1 45.2567L16.0838 45.5685L14.0106 44.9086L14.026 44.5968H14.0268ZM19.3102 47.3371L21.3896 47.9784L21.3772 48.291L19.2978 47.6488L19.3102 47.3371ZM16.6627 46.4327L18.7413 47.0756L18.729 47.3874L16.6496 46.7452L16.6619 46.4327H16.6627ZM14.0137 45.56L16.0931 46.2021L16.08 46.5139L14.0006 45.8726L14.0129 45.56H14.0137ZM19.3202 48.1974L21.4166 48.79L21.4135 49.1017L19.3164 48.5091L19.3202 48.1974ZM16.6488 47.3564L18.7452 47.949L18.7413 48.2608L16.645 47.6682L16.6488 47.3564ZM13.9766 46.5456L16.0738 47.1382L16.0699 47.4508L13.9735 46.8582L13.9774 46.5456H13.9766ZM19.3202 48.9811L21.4166 49.5737L21.4135 49.8847L19.3164 49.2921L19.3202 48.9803V48.9811ZM16.6488 48.1401L18.7452 48.7327L18.7413 49.0453L16.645 48.4527L16.6488 48.1409V48.1401ZM13.9766 47.3301L16.0738 47.9227L16.0699 48.2353L13.9735 47.6427L13.9774 47.3301H13.9766ZM19.3202 49.9226L21.4166 50.5152L21.4135 50.8285L19.3164 50.2351L19.3202 49.9234V49.9226ZM16.6488 49.0809L18.7452 49.6742L18.7413 49.986L16.645 49.3934L16.6488 49.0801V49.0809ZM13.9766 48.2709L16.0738 48.8642L16.0699 49.176L13.9735 48.5834L13.9774 48.2709H13.9766ZM19.3202 50.9461L21.4166 51.5387L21.4135 51.8505L19.3164 51.2571L19.3202 50.9461ZM16.6488 50.1044L18.7452 50.6978L18.7413 51.0096L16.645 50.4169L16.6488 50.1052V50.1044ZM13.9766 49.2944L16.0738 49.887L16.0699 50.1996L13.9735 49.6069L13.9774 49.2944H13.9766ZM19.3202 51.7855L21.4166 52.3789L21.4135 52.6915L19.3164 52.0981L19.3202 51.7855ZM16.6488 50.9446L18.7452 51.5372L18.7413 51.8497L16.645 51.2564L16.6488 50.9438V50.9446ZM13.9766 50.1346L16.0738 50.7272L16.0699 51.039L13.9735 50.4463L13.9774 50.1338L13.9766 50.1346ZM13.9766 52.2714L16.0738 52.864L16.0699 53.1765L13.9735 52.5831L13.9774 52.2721L13.9766 52.2714ZM16.6488 51.9596L18.7452 52.553L18.7413 52.8648L16.645 52.2721L16.6488 51.9596ZM13.9766 51.1496L16.0738 51.743L16.0699 52.0555L13.9735 51.4621L13.9774 51.1496H13.9766ZM9.94058 57.3024L9.66348 57.3078V55.3698L8.41847 55.3613V34.0892L7.90673 33.9144V54.1807H7.40965V59.334L6.63779 59.327V52.8075L6.1245 53.0504L6.12605 59.7293L5.59578 59.7246V53.1046L5.08404 53.3483V59.1622L4.62478 59.1576V53.4813L4.11226 53.715V58.158L3.57273 58.1526L3.58585 53.1587L6.28273 51.9255L6.42321 31.8077L10.4431 33.2498L10.4678 42.525L9.94058 42.7772V57.3031V57.3024ZM31.9394 55.5346L31.2926 55.5524V59.6751H30.3154V49.1629L28.8018 48.3745V58.0675H27.5174L27.5359 45.6088L31.9486 47.9328L31.9378 55.5338L31.9394 55.5346ZM35.8581 54.8646H34.3098L34.3044 40.659L33.7996 40.7975V52.136H32.9142V57.9809L32.6039 57.9894V47.7456L31.7564 47.2589L31.775 40.1329L35.7956 38.6916L35.8581 54.8654V54.8646ZM25.6047 56.4521C25.4272 56.2293 25.2435 56.0197 25.0544 55.8216V46.9758H23.1718V45.601L22.5644 45.3674V54.0283C22.1892 53.855 21.8056 53.7142 21.4143 53.602L21.4166 53.3947L20.6594 53.1812L19.5657 52.8717L19.3195 52.8021V53.1518L20.0242 53.332C19.2639 53.2508 18.492 53.2717 17.7279 53.3885L16.648 53.0829L16.6442 53.3947L17.0625 53.5131C16.7291 53.5881 16.3987 53.6809 16.0715 53.79V53.732L13.9751 53.1386L13.9712 53.4504L15.674 53.9324C15.3482 54.0569 15.0271 54.1985 14.7122 54.3563L13.9743 54.1475L13.9712 54.5598L14.4467 54.494C13.6926 54.8994 12.9794 55.4 12.3295 55.9856V54.4244H13.4464L13.3653 41.6152L19.2153 43.7389L19.2014 42.7625L23.8001 44.4676V46.1696H25.6032V56.4529L25.6047 56.4521ZM-0.777473 21.714C-1.19273 21.4115 -1.75079 21.2266 -2.36673 21.2266C-2.98268 21.2266 -3.506 21.4007 -3.9174 21.6877C-4.31877 21.967 -4.59201 22.3523 -4.6607 22.7816L-4.70238 23.0423L-4.9625 23.0129C-5.02888 23.0052 -5.09758 22.999 -5.16627 22.9952C-5.22648 22.9921 -5.29363 22.9897 -5.36773 22.9897C-6.02612 22.9897 -6.61737 23.1685 -7.04112 23.457H-7.04189C-7.43477 23.7247 -7.6779 24.086 -7.6779 24.4751C-7.6779 24.8643 -7.43477 25.2263 -7.04189 25.4932H-7.04112C-6.61737 25.7818 -6.02612 25.9613 -5.36773 25.9613C-4.90152 25.9613 -4.46851 25.8716 -4.10496 25.7161C-3.74064 25.5606 -3.44734 25.3408 -3.26441 25.084L-3.03979 24.7691L-2.81518 25.084C-2.63225 25.3408 -2.33895 25.5613 -1.97463 25.7161C-1.61108 25.8716 -1.17807 25.9613 -0.711864 25.9613C-0.0534668 25.9613 0.537779 25.7826 0.961529 25.4932H0.962299C1.35518 25.2256 1.59831 24.8651 1.59831 24.4751C1.59831 24.1827 1.46015 23.905 1.2255 23.6729C0.964615 23.4145 0.586405 23.2102 0.140268 23.095L-0.0442047 23.047L-0.0642738 22.8567C-0.110586 22.4111 -0.376877 22.008 -0.779016 21.7148L-0.777473 21.714ZM-2.36596 20.6735C-1.63115 20.6735 -0.958858 20.8986 -0.453291 21.2668C0.0175438 21.6103 0.3479 22.0792 0.456732 22.6114C0.922163 22.7584 1.32276 22.9905 1.61452 23.2799H1.6153C1.95337 23.6148 2.15174 24.0264 2.15174 24.4751C2.15174 25.0577 1.81598 25.5791 1.27336 25.9489C0.761616 26.2978 0.0592251 26.5145 -0.71032 26.5145C-1.25139 26.5145 -1.75851 26.4077 -2.18921 26.2243C-2.52265 26.0828 -2.8121 25.8917 -3.03825 25.6673C-3.26441 25.8917 -3.55385 26.0828 -3.8873 26.2243C-4.318 26.4085 -4.82511 26.5145 -5.36618 26.5145C-6.13573 26.5145 -6.83812 26.2986 -7.34986 25.9497C-7.89248 25.5791 -8.22824 25.0585 -8.22824 24.4759C-8.22824 23.8934 -7.89248 23.3719 -7.34986 23.0021C-6.83812 22.6532 -6.13573 22.4366 -5.36618 22.4366C-5.29749 22.4366 -5.22339 22.4389 -5.14543 22.4428C-5.00109 21.9623 -4.67537 21.543 -4.23078 21.2336C-3.73138 20.8854 -3.07762 20.6742 -2.36596 20.6742V20.6735ZM11.4843 14.7706C11.069 14.4681 10.511 14.2832 9.89581 14.2832C9.28064 14.2832 8.75578 14.4572 8.34515 14.7443C7.94455 15.0235 7.67054 15.4088 7.60184 15.8382L7.56016 16.0989L7.30005 16.0687C7.23444 16.061 7.16497 16.0556 7.09627 16.0509C7.03607 16.0478 6.96892 16.0455 6.89559 16.0455C6.2372 16.0455 5.64595 16.2242 5.2222 16.5136H5.22143C4.82855 16.7813 4.58541 17.1418 4.58541 17.5317C4.58541 17.9216 4.82855 18.2821 5.22143 18.5498H5.2222C5.64595 18.8391 6.2372 19.0179 6.89559 19.0179C7.3618 19.0179 7.79481 18.9281 8.15835 18.7726C8.52267 18.6171 8.81598 18.3974 8.99891 18.1405L9.22352 17.8257L9.44813 18.1405C9.63106 18.3974 9.92437 18.6171 10.2887 18.7726C10.6522 18.9273 11.0852 19.0179 11.5515 19.0179C12.2099 19.0179 12.8011 18.8391 13.2248 18.5498H13.2256C13.6185 18.2821 13.8616 17.9216 13.8616 17.5317C13.8616 17.2393 13.7235 16.9615 13.4888 16.7294C13.2279 16.471 12.8497 16.2668 12.4036 16.1515L12.2191 16.1035L12.199 15.9132C12.1535 15.4676 11.8864 15.0645 11.4843 14.7713V14.7706ZM9.89504 13.73C10.6299 13.73 11.3021 13.9551 11.8077 14.3234C12.2785 14.6669 12.6081 15.1357 12.717 15.668C13.1832 15.815 13.583 16.0471 13.8748 16.3364H13.8755C14.2136 16.6714 14.412 17.083 14.412 17.5317C14.412 18.1142 14.0762 18.6357 13.5336 19.0055C13.0218 19.3544 12.3195 19.5702 11.5499 19.5702C11.0088 19.5702 10.5017 19.4635 10.071 19.2801C9.73835 19.1378 9.44813 18.9475 9.22198 18.7223C8.99582 18.9467 8.70638 19.1378 8.37293 19.2801C7.94223 19.4635 7.43512 19.5702 6.89405 19.5702C6.12373 19.5702 5.42211 19.3544 4.91037 19.0055C4.36775 18.6349 4.03199 18.1142 4.03199 17.5317C4.03199 16.9491 4.36775 16.4277 4.91037 16.0579C5.42211 15.709 6.1245 15.4924 6.89405 15.4924C6.96197 15.4924 7.03684 15.4947 7.1148 15.4993C7.25914 15.0189 7.58486 14.5996 8.02868 14.2901C8.52808 13.942 9.18184 13.7308 9.89427 13.7308L9.89504 13.73ZM36.312 15.9117C35.8967 15.6092 35.3386 15.4243 34.7227 15.4243C34.1068 15.4243 33.5834 15.5984 33.172 15.8846C32.7707 16.1631 32.4974 16.5492 32.4287 16.9785L32.3871 17.2393L32.1269 17.2091C32.0613 17.2013 31.9919 17.1959 31.9232 17.1921C31.863 17.189 31.7958 17.1866 31.7217 17.1866C31.0641 17.1866 30.4721 17.3654 30.0483 17.6547H30.0475C29.6547 17.9224 29.4115 18.2829 29.4115 18.6728C29.4115 19.0627 29.6547 19.424 30.0475 19.6909H30.0483C30.4721 19.9803 31.0641 20.159 31.7217 20.159C32.1879 20.159 32.6209 20.0692 32.9845 19.9137C33.3488 19.7582 33.6421 19.5385 33.825 19.2817L34.0489 18.9668L34.2735 19.2817C34.4564 19.5385 34.7497 19.7582 35.114 19.9137C35.4776 20.0692 35.9106 20.159 36.3768 20.159C37.0352 20.159 37.6264 19.9803 38.0502 19.6909H38.051C38.4438 19.4232 38.687 19.0627 38.687 18.6728C38.687 18.3804 38.5488 18.1034 38.3142 17.8705C38.0533 17.6121 37.6751 17.4079 37.2289 17.2919L37.0445 17.2439L37.0244 17.0536C36.9781 16.608 36.7118 16.2049 36.3096 15.9117H36.312ZM34.7235 14.8711C35.4583 14.8711 36.1306 15.0963 36.6361 15.4645C37.107 15.808 37.4373 16.2768 37.5462 16.8091C38.0124 16.9561 38.4122 17.1882 38.704 17.4775H38.7047C39.0428 17.8125 39.2412 18.2241 39.2412 18.6728C39.2412 19.2554 38.9054 19.7768 38.3628 20.1466C37.8511 20.4955 37.1487 20.7121 36.3791 20.7121C35.838 20.7121 35.3309 20.6054 34.9002 20.422C34.5668 20.2797 34.2773 20.0894 34.0512 19.8642C33.825 20.0886 33.5356 20.2789 33.2021 20.422C32.7714 20.6054 32.2643 20.7121 31.7232 20.7121C30.9537 20.7121 30.2513 20.4963 29.7396 20.1474C29.1969 19.7768 28.8612 19.2561 28.8612 18.6736C28.8612 18.091 29.1969 17.5696 29.7396 17.1998C30.2513 16.8509 30.9537 16.6343 31.7232 16.6343C31.7919 16.6343 31.866 16.6366 31.944 16.6412C32.0883 16.1608 32.4133 15.7407 32.8579 15.432C33.3573 15.0839 34.011 14.8727 34.7227 14.8727L34.7235 14.8711ZM-0.951914 7.80854C6.12373 9.33107 9.64342 11.8036 16.8572 9.28156C8.02714 7.34822 4.84785 0.477495 -4.84286 0.0249133C-32.257 -1.25547 -15.7963 47.1963 -7.16153 57.7225C-0.22019 66.6936 8.43931 70.9084 13.6 62.0549C16.8047 54.9722 21.5957 55.7125 24.6098 63.787C31.0324 76.7092 46.0204 63.9433 43.2834 43.7164C42.5586 48.4039 41.6563 51.8103 40.7301 54.344V39.5078L36.0217 38.051L31.3196 39.7476L31.298 46.9967L28.5 45.3906L28.3958 36.1463H26.7517V26.3868H24.3713V19.3892H24.3497L24.3242 17.1859H24.1814L24.1559 19.3892H23.567V18.956H23.4752L23.3987 12.1928H23.2559L23.1795 18.956H20.2905L19.8852 19.3892L19.8003 11.8292H19.6568C19.6259 14.5594 19.568 17.3166 19.568 20.0391L19.2129 20.1435L19.1767 16.9329H19.0339C18.9976 20.094 18.9822 23.2126 18.9822 26.3868H18.4256V36.1463H17.2107L17.2833 42.5776L13.3375 41.151L10.9239 42.3061L10.8954 32.8653L6.1932 31.1679L1.48485 32.6255V50.9268L-1.29076 51.9689L-1.30234 57.0796C-1.65971 56.6819 -1.98698 56.2672 -2.27643 55.8417C-6.39816 50.6398 -9.24169 43.6274 -10.7908 36.2043C-12.6116 27.4622 -16.1491 4.54144 -0.951914 7.80854Z" fill="white"/>
</svg>
