<svg width="167" height="69" viewBox="0 0 167 69" fill="none" xmlns="http://www.w3.org/2000/svg">
<mask id="mask0_1_233" style="mask-type:alpha" maskUnits="userSpaceOnUse" x="0" y="0" width="237" height="69">
<path fill-rule="evenodd" clip-rule="evenodd" d="M59.9849 14.3428C58.8378 3.59279 53.6867 -3.14782 41.8652 1.4843C41.1144 1.77805 40.3715 2.08933 39.6311 2.39952L39.631 2.39954C37.3963 3.3358 35.1853 4.26209 32.856 4.66604L32.8556 4.66577L32.8168 4.67279L32.856 4.66604C35.0757 6.12438 37.4932 7.28622 40.0452 8.11177C34.2006 7.09888 28.4787 5.50152 22.9681 3.34464C22.2041 3.04742 21.4427 2.72822 20.6783 2.40777L20.6782 2.40775C19.9315 2.0947 19.1819 1.78045 18.4241 1.4843C13.7772 -0.33702 10.1634 -0.396327 7.41805 0.852225C6.54408 1.24864 6.01448 2.05396 6.00023 3.00285C5.98757 3.95175 6.495 4.76955 7.35788 5.19016C14.1406 8.4996 21.2234 11.1356 28.5001 13.0709C37.9348 15.582 47.6901 16.9117 57.5364 16.9999C58.2576 17.0061 58.8806 16.7377 59.3643 16.2125C59.8488 15.6866 60.0609 15.0498 59.9849 14.3428ZM59.7228 26.7794C59.8531 25.3857 59.9469 24.0125 59.9977 22.6678C60.0255 21.984 59.7975 21.3848 59.3223 20.8894C58.8472 20.3939 58.256 20.1398 57.5687 20.1351C47.3886 20.0655 37.3053 18.6883 27.5598 16.0694C19.6546 13.9443 11.967 11.0016 4.63065 7.27463C3.97354 6.94064 3.2751 6.91056 2.59176 7.18836C1.91001 7.46617 1.43168 7.97349 1.19648 8.67077C0.663318 10.2513 0.276358 12.0131 0.0228874 13.9126C-0.119342 14.9708 0.409847 15.957 1.37288 16.4255C9.31867 20.3021 17.6363 23.3065 26.1788 25.407C36.3193 27.8986 46.7807 29.1142 57.3128 28.9916C58.5715 28.9765 59.6052 28.0284 59.722 26.7786L59.7228 26.7794ZM58.9597 33.192C58.601 35.189 58.1772 37.1889 57.6995 39.1666H57.7003C57.4345 40.2726 56.4314 41.0255 55.2633 40.9993C44.6874 40.7627 34.2027 39.3816 23.9998 36.9007C16.4665 35.0695 9.09027 32.6394 1.94578 29.6306C1.12284 29.2838 0.592741 28.5894 0.490371 27.7239C0.236429 25.589 0.0689858 23.4888 0.0015325 21.4611C-0.0278295 20.6148 0.36578 19.8742 1.0919 19.4056C1.81801 18.937 2.67348 18.8715 3.46546 19.2245C10.6949 22.4499 18.2076 24.9955 25.8965 26.8383C35.8883 29.2337 46.1801 30.4406 56.5433 30.4082C57.2924 30.4067 57.9384 30.6965 58.4209 31.2529C58.9034 31.8086 59.0898 32.4761 58.9597 33.192ZM7.17351 53.3983C9.3447 59.0948 11.8081 63.805 14.2311 66.5728C18.9836 71.9993 24.7394 67.8249 24.6309 59.0253C24.6159 57.9081 24.6278 56.85 24.661 55.8517C24.7038 54.6254 23.8882 53.5689 22.71 53.3248C18.4816 52.4453 14.2897 51.3718 10.1452 50.1092C9.22988 49.8311 8.30107 50.0914 7.65335 50.8084C7.00643 51.5238 6.82669 52.4914 7.17351 53.3983ZM36.0958 58.1935L36.0949 58.3624C36.0938 58.5813 36.0926 58.8021 36.0895 59.0244C35.981 67.8249 41.736 72.0001 46.4877 66.572C47.9075 64.9488 49.3431 62.6588 50.7248 59.8934C51.1176 59.1069 51.0891 58.2412 50.6448 57.4837C50.2006 56.7263 49.4666 56.2898 48.6027 56.272C45.3119 56.2009 42.0258 56.015 38.7532 55.7159C38.0461 55.652 37.4142 55.8703 36.89 56.3577C36.3666 56.8459 36.0974 57.4684 36.0958 58.1935ZM35.6175 51.3305C34.8154 46.2149 32.9713 43.7564 30.3132 43.9589L30.314 43.9574C28.0347 43.7842 26.3518 45.5688 25.4155 49.311C25.1026 50.5576 23.8303 51.3406 22.539 51.0786C16.8383 49.9239 11.2036 48.4307 5.66976 46.6013C4.8851 46.3424 4.33156 45.7751 4.10363 45.0007C3.32613 42.356 2.6344 39.6216 2.05385 36.8671C1.86722 35.9876 2.17139 35.1405 2.87821 34.5632C3.58582 33.9866 4.49516 33.8444 5.35367 34.1752C11.3005 36.4721 17.3895 38.3796 23.5809 39.8874C33.393 42.2795 43.4648 43.6675 53.632 44.0161C54.419 44.0432 55.0845 44.3909 55.5404 45.0154C55.997 45.6391 56.117 46.3648 55.8843 47.0975C55.2989 48.9462 54.6739 50.74 54.0179 52.4504C53.6542 53.3995 52.7679 54 51.7259 54C47.0704 54.0008 42.4221 53.7805 37.7992 53.3423C36.669 53.2349 35.7875 52.4226 35.6175 51.3305ZM223.695 22.1106H232.53C232.276 20.9204 231.75 20.0334 230.953 19.4495C230.156 18.8656 229.25 18.5736 228.233 18.5736C227.032 18.5736 226.039 18.8831 225.254 19.502C224.468 20.1209 223.949 20.9905 223.695 22.1106ZM223.763 25.6126C224.363 27.8059 225.993 28.9037 228.648 28.9037C230.358 28.9037 231.652 28.3198 232.53 27.1535L236.133 29.253C234.423 31.751 231.906 33 228.58 33C225.716 33 223.417 32.1241 221.685 30.3739C219.953 28.6221 219.086 26.4177 219.086 23.7558C219.086 21.0939 219.94 18.9181 221.65 17.1559C223.36 15.3946 225.554 14.5123 228.233 14.5123C230.912 14.5123 232.87 15.3986 234.523 17.1726C236.174 18.9467 237 21.1416 237 23.755C237 24.3389 236.942 24.9578 236.826 25.6118H223.764L223.763 25.6126ZM209.627 14.5123C211.521 14.5125 213.086 15.1553 214.322 16.4375C215.558 17.7216 216.175 19.4956 216.175 21.7597V32.5099H211.706V22.3206C211.706 21.1527 211.393 20.2609 210.77 19.642C210.146 19.0231 209.315 18.7136 208.276 18.7136C207.12 18.7136 206.196 19.0756 205.504 19.7987C204.81 20.5227 204.464 21.6078 204.464 23.0557V32.5091H199.994V8H204.464V16.9642C205.549 15.3294 207.27 14.5123 209.627 14.5123ZM189.806 33C187.196 32.9998 185.02 32.1128 183.276 30.3397C181.533 28.5656 180.66 26.3707 180.66 23.7558C180.66 21.1408 181.533 18.9475 183.276 17.1734C185.02 15.3994 187.197 14.5131 189.807 14.5131C191.494 14.5131 193.03 14.9212 194.417 15.7399C195.802 16.5569 196.853 17.6523 197.569 19.0294L193.723 21.3063C193.376 20.5831 192.85 20.0111 192.146 19.5911C191.443 19.1702 190.65 18.961 189.772 18.961C188.433 18.961 187.324 19.4089 186.446 20.3087C185.57 21.2068 185.13 22.3564 185.13 23.7566C185.13 25.1567 185.57 26.2721 186.446 27.1702C187.324 28.07 188.433 28.5195 189.772 28.5195C190.673 28.5195 191.477 28.3142 192.181 27.9053C192.885 27.498 193.411 26.9316 193.758 26.2076L197.638 28.4487C196.876 29.8258 195.801 30.9284 194.416 31.7574C193.03 32.5855 191.494 33 189.806 33ZM164.79 27.3095C165.69 28.2315 166.835 28.6929 168.22 28.6929C169.606 28.6929 170.756 28.2323 171.667 27.3095C172.579 26.3874 173.037 25.2037 173.037 23.7558C173.037 22.3079 172.579 21.1249 171.667 20.2029C170.755 19.2808 169.607 18.8194 168.22 18.8194C166.834 18.8194 165.69 19.28 164.79 20.2029C163.889 21.1249 163.438 22.3087 163.438 23.7558C163.438 25.2029 163.889 26.3874 164.79 27.3095ZM173.037 15.0016H177.507V32.5099H173.037V30.4439C171.698 32.148 169.814 32.9992 167.389 32.9992C164.963 32.9992 163.098 32.1058 161.447 30.3206C159.795 28.5338 158.969 26.3461 158.969 23.755C158.969 21.1639 159.795 18.9761 161.447 17.1901C163.098 15.4049 165.079 14.5115 167.389 14.5115C169.814 14.5115 171.698 15.3636 173.037 17.0684V15.0016ZM149.511 14.5123C151.403 14.5125 152.97 15.1553 154.206 16.4375C155.44 17.7216 156.059 19.4956 156.059 21.7597V32.5099H151.59V22.3206C151.59 21.1527 151.277 20.2609 150.653 19.642C150.03 19.0231 149.199 18.7136 148.159 18.7136C147.004 18.7136 146.08 19.0756 145.388 19.7987C144.694 20.5227 144.348 21.6078 144.348 23.0557V32.5091H139.878V8H144.348V16.9642C145.433 15.3294 147.154 14.5123 149.511 14.5123ZM136.725 19.3445H132.81V26.6269C132.81 27.2339 132.96 27.6778 133.26 27.957C133.56 28.2379 134.001 28.3954 134.577 28.4304C135.155 28.4654 135.871 28.4598 136.725 28.4129V32.5091C133.654 32.8584 131.488 32.5664 130.229 31.6333C128.969 30.7001 128.341 29.0294 128.341 26.6261V19.3437H125.326V15.0016H128.341V11.4662L132.81 10.1002V15.0016H136.725V19.3437L136.725 19.3445ZM111.518 27.222C112.406 28.1329 113.521 28.5879 114.861 28.5879C116.201 28.5879 117.32 28.1329 118.222 27.222C119.123 26.3111 119.574 25.1559 119.574 23.7558C119.574 22.3556 119.123 21.1997 118.222 20.2904C117.32 19.3795 116.2 18.9244 114.861 18.9244C113.522 18.9244 112.406 19.3795 111.518 20.2904C110.627 21.1997 110.184 22.3564 110.184 23.7558C110.184 25.1551 110.628 26.3126 111.518 27.222ZM121.375 30.3214C119.596 32.1066 117.425 33 114.861 33C112.297 33 110.131 32.1066 108.364 30.3214C106.597 28.5346 105.713 26.3469 105.713 23.7558C105.713 21.1647 106.597 18.9769 108.364 17.1909C110.132 15.4057 112.298 14.5123 114.861 14.5123C117.424 14.5123 119.596 15.4057 121.375 17.1909C123.154 18.9777 124.043 21.1655 124.043 23.7558C124.043 26.3461 123.154 28.5354 121.375 30.3214ZM90.9365 27.222C91.8253 28.1329 92.9401 28.5879 94.28 28.5879C95.6199 28.5879 96.7394 28.1329 97.6408 27.222C98.5422 26.3111 98.9925 25.1559 98.9925 23.7558C98.9925 22.3556 98.5414 21.1997 97.6408 20.2904C96.7394 19.3795 95.6191 18.9244 94.28 18.9244C92.9409 18.9244 91.8253 19.3795 90.9365 20.2904C90.0462 21.1997 89.6029 22.3564 89.6029 23.7558C89.6029 25.1551 90.0469 26.3126 90.9365 27.222ZM100.794 30.3214C99.0145 32.1066 96.8433 33 94.28 33C91.7167 33 89.5502 32.1066 87.7828 30.3214C86.0162 28.5346 85.1321 26.3469 85.1321 23.7558C85.1321 21.1647 86.0162 18.9769 87.7828 17.1909C89.551 15.4057 91.7151 14.5123 94.28 14.5123C96.8449 14.5123 99.0145 15.4057 100.794 17.1909C102.572 18.9777 103.462 21.1655 103.462 23.7558C103.462 26.3461 102.573 28.5354 100.794 30.3214ZM83.3994 19.3445H79.4844V26.6269C79.4844 27.2339 79.6348 27.6778 79.9347 27.957C80.2346 28.2379 80.6747 28.3954 81.251 28.4304C81.8288 28.4654 82.5452 28.4598 83.3994 28.4129V32.5091C80.3275 32.8584 78.1618 32.5664 76.903 31.6333C75.6434 30.7001 75.0152 29.0294 75.0152 26.6261V19.3437H72V15.0016H75.0152V11.4662L79.4844 10.1002V15.0016H83.3994V19.3437V19.3445ZM179.511 50.3938H170.639H170.639C170.894 49.3028 171.415 48.4551 172.205 47.853C172.993 47.2502 173.99 46.9487 175.196 46.9487C176.217 46.9487 177.127 47.2331 177.928 47.8019C178.728 48.369 179.256 49.233 179.511 50.3938ZM175.613 57.0095C172.947 57.0095 171.311 55.9402 170.708 53.8039L170.709 53.8047H183.825C183.942 53.1677 184 52.5649 184 51.9962C184 49.4492 183.171 47.3121 181.512 45.585C179.853 43.8571 177.887 42.9931 175.197 42.9931C172.507 42.9931 170.303 43.8509 168.586 45.5679C166.869 47.2842 166.012 49.4043 166.012 51.9962C166.012 54.5881 166.882 56.7367 168.621 58.4414C170.36 60.1477 172.669 60.9992 175.545 60.9992C178.885 60.9992 181.413 59.7842 183.13 57.3504L179.511 55.304C178.63 56.4407 177.33 57.0095 175.613 57.0095ZM150.407 58.4081C152.158 60.1343 154.344 60.9983 156.964 60.9984C158.657 60.9984 160.199 60.5955 161.591 59.7889C162.982 58.9807 164.061 57.9068 164.827 56.5647L160.93 54.3827C160.582 55.0871 160.054 55.6388 159.348 56.0363C158.639 56.4338 157.834 56.6329 156.929 56.6329C155.584 56.6329 154.47 56.1951 153.589 55.3203C152.707 54.4455 152.267 53.3599 152.267 51.9954C152.267 50.6309 152.707 49.512 153.589 48.6371C154.47 47.7616 155.585 47.323 156.929 47.323C157.811 47.323 158.605 47.5276 159.314 47.9367C160.021 48.3466 160.549 48.9029 160.896 49.608L164.76 47.3912C164.039 46.0499 162.984 44.9814 161.592 44.1856C160.201 43.3898 158.658 42.9923 156.965 42.9923C154.344 42.9923 152.159 43.8563 150.407 45.5842C148.655 47.3121 147.78 49.4484 147.78 51.9954C147.78 54.5423 148.655 56.6802 150.407 58.4081ZM140.09 43.4696V60.5211H144.578V43.4696H140.09ZM140.386 40.6228C140.93 41.1567 141.575 41.4232 142.317 41.4232C143.083 41.4232 143.738 41.1559 144.283 40.6228C144.828 40.0881 145.101 39.4582 145.101 38.7298C145.101 38.0015 144.828 37.3645 144.283 36.819C143.737 36.2735 143.058 36 142.317 36C141.575 36 140.93 36.2735 140.386 36.819C139.841 37.3645 139.569 38.0022 139.569 38.7298C139.569 39.4574 139.841 40.0881 140.386 40.6228ZM137.932 43.4696H132.993L128.755 55.4063L124.538 43.4696H119.598L126.208 60.5211H131.322L137.932 43.4696ZM115.717 43.9477C114.754 44.4932 114.065 45.3122 113.647 46.4032V43.4696H109.159V60.5211H113.647V52.3712C113.647 50.7339 114.187 49.5631 115.265 48.858C116.344 48.1529 117.568 47.8801 118.936 48.039V43.1287C117.752 43.1287 116.681 43.4007 115.717 43.9477ZM101.54 50.3938H92.6681C92.9227 49.3028 93.4444 48.4551 94.2326 47.853C95.0215 47.2502 96.0191 46.9487 97.2255 46.9487C98.246 46.9487 99.1559 47.2331 99.9567 47.8019C100.757 48.369 101.285 49.233 101.54 50.3938ZM92.7379 53.8047C92.7378 53.8044 92.7378 53.8042 92.7377 53.8039L92.7361 53.8047H92.7379ZM97.6421 57.0095C94.9768 57.0095 93.3405 55.9404 92.7379 53.8047H105.852C105.969 53.1677 106.027 52.5649 106.027 51.9962C106.027 49.4492 105.198 47.3121 103.539 45.585C101.88 43.8571 99.7757 42.9931 97.2247 42.9931C94.5345 42.9931 92.3298 43.8509 90.6144 45.5679C88.8974 47.2842 88.0396 49.4043 88.0396 51.9962C88.0396 54.5881 88.9084 56.7367 90.6491 58.4414C92.3883 60.1477 94.6966 60.9992 97.5725 60.9992C100.912 60.9992 103.441 59.7842 105.158 57.3504L101.54 55.304C100.659 56.4407 99.3591 57.0095 97.6421 57.0095ZM78.2459 49.4213C77.6317 49.1369 77.3242 48.7673 77.3242 48.3133H77.3226C77.3226 47.8809 77.5131 47.54 77.8965 47.2897C78.2791 47.0394 78.7605 46.9146 79.3408 46.9146C80.6396 46.9146 81.5661 47.4942 82.1242 48.6534L85.9511 46.6086C85.2784 45.4478 84.3629 44.556 83.2024 43.9314C82.042 43.3054 80.755 42.9931 79.3408 42.9931C77.4609 42.9931 75.8894 43.4766 74.6261 44.4428C73.3613 45.4083 72.7304 46.7333 72.7304 48.4163C72.7304 49.5306 73.038 50.4565 73.6522 51.1957C74.2664 51.9342 75.015 52.475 75.8965 52.8152C76.7779 53.1577 77.6585 53.4405 78.54 53.6683C79.4214 53.8961 80.17 54.1518 80.7835 54.4362C81.3985 54.7198 81.706 55.0894 81.706 55.5442C81.706 56.5221 80.9052 57.011 79.306 57.011C77.5431 57.011 76.4071 56.2718 75.8965 54.7942L72 56.9428C73.2988 59.6479 75.7336 61 79.3068 61C81.3013 61 82.9653 60.5289 84.2989 59.5851C85.6333 58.6406 86.2997 57.2946 86.2997 55.5434C86.2997 54.3843 85.9922 53.4172 85.378 52.6439C84.7637 51.8714 84.0151 51.3197 83.1337 50.9904C82.253 50.6611 81.3716 50.3876 80.4902 50.1714C79.6087 49.9552 78.8609 49.7057 78.2459 49.4213Z" fill="#0287D0"/>
</mask>
<g mask="url(#mask0_1_233)">
<rect opacity="0.6" width="237" height="69" fill="white"/>
<rect width="237" height="69" fill="white"/>
</g>
</svg>
