<svg width="219" height="69" viewBox="0 0 219 69" fill="none" xmlns="http://www.w3.org/2000/svg">
<path fill-rule="evenodd" clip-rule="evenodd" d="M32.9759 2.26903C34.5809 3.71321 35.7334 5.61207 36.5562 7.55269L36.5978 7.6768L36.3513 7.80091L36.3097 7.6768C34.4166 4.6632 28.9837 -0.289874 25.4451 3.17728C21.4945 7.01563 24.8283 15.0229 27.256 18.903C27.7085 19.6454 28.0382 20.2242 28.655 19.2742C29.8076 17.5412 31.2066 16.3441 33.2235 15.8071L34.1284 15.56L33.3462 16.0553C31.7412 17.0459 30.5482 18.5736 29.6838 20.2648C28.7788 22.0813 27.0906 21.6266 26.1035 20.0584C23.7984 16.3441 21.535 11.4317 21.7826 6.93327C21.9469 4.25026 23.0995 1.60899 25.6927 0.576632C27.8323 -0.289874 30.2195 0.287797 32.0721 1.56725C33.5128 1.40252 34.582 0.741359 35.9405 0.287797C37.3812 -0.125148 38.8624 -0.125148 40.2209 0.494269C43.0605 1.85608 44.1714 5.32324 44.2536 8.25447C44.3774 12.7122 42.4021 17.0876 39.6446 20.5131C38.4921 21.9166 36.5989 22.1637 36.0227 20.1825C34.376 15.683 31.0017 6.43796 24.5818 9.69865L24.458 9.78101L24.3342 9.53279L24.4163 9.49104C31.2066 4.90916 35.0345 13.8247 37.2157 18.7372C37.4622 19.3148 37.9158 19.5631 38.4504 19.1907C40.3019 17.9113 41.9069 13.247 42.2367 11.1417C42.8129 7.92276 42.401 4.41386 39.5208 2.47437C37.0514 0.781976 35.4048 2.22728 32.977 2.2679L32.9759 2.26903ZM4.1255 18.8624C4.66012 17.5412 4.6196 16.2618 4.94825 14.8582C5.27803 13.414 6.01862 12.1346 7.25331 11.2669C9.84651 9.45043 13.3851 10.2346 15.9783 11.6381C19.8884 13.7435 22.6864 17.6236 24.2509 21.7508C24.9093 23.4432 24.1687 25.2179 22.1518 24.7226C17.4606 23.9385 7.78906 22.2461 7.37712 29.4275V29.5922H7.13063V29.4681C6.55437 21.2961 16.1843 22.4097 21.4934 22.9467C22.1101 23.0291 22.5637 22.782 22.5221 22.1208C22.3578 19.8925 19.1061 16.1771 17.4595 14.7736C14.9496 12.71 11.7385 11.3064 8.57017 12.8341C5.89481 14.1553 6.34727 16.2595 5.19587 18.4472C7.21279 17.7454 9.43457 17.6631 11.5337 17.9519L11.6575 17.9936L11.6158 18.2407H11.492C7.95226 18.3648 0.956041 20.6349 2.15022 25.3815C3.54923 30.7882 12.1099 31.8623 16.6784 31.6964C17.5428 31.6964 18.2012 31.6964 17.7071 30.7058C16.8022 28.8069 16.4308 26.9915 16.9665 24.9686L17.213 24.0603L17.2547 24.9686C17.2963 26.8674 18.0369 28.6839 19.0656 30.2522C20.1765 31.9864 18.9418 33.2241 17.0903 33.2658C12.7278 33.4305 7.3366 32.9352 3.592 30.4587C1.36911 28.975 -0.319171 26.6632 0.0511246 23.8978C0.380901 21.586 2.06805 19.853 4.1255 18.8624ZM5.07206 51.7998C4.16714 50.6027 3.05513 50.0251 2.02641 49.0344C0.915522 48.0438 0.174931 46.7644 0.0511246 45.2367C-0.195364 42.1001 2.23238 39.4171 4.74228 37.8894C8.52852 35.537 13.303 35.0417 17.6238 35.7435C19.4348 36.0323 20.5873 37.56 19.1467 39.0459C16.101 42.7195 9.80486 50.2733 15.8545 54.2357L15.9367 54.3181L15.8129 54.5246L15.6891 54.4828C8.40472 50.8916 14.1662 43.049 17.2941 38.7153C17.6643 38.22 17.706 37.7247 17.0881 37.4359C15.0712 36.4453 10.2157 37.4359 8.19875 38.1794C5.1531 39.2941 2.35506 41.3983 2.10745 44.9072C1.86096 47.8373 3.95892 48.5391 5.23526 50.6445C5.6472 48.5391 6.67592 46.5996 7.99278 44.9072L8.07494 44.8249L8.28091 44.949L8.23927 45.0314C6.55211 48.2097 5.02929 55.3911 9.72045 56.754C15.07 58.2399 20.2969 51.3474 22.4377 47.3014C22.8496 46.5173 23.1783 45.9802 22.0674 45.8979C19.9683 45.7738 18.2395 45.1543 16.7583 43.6684L16.0999 43.0084L16.9226 43.4619C18.5693 44.3284 20.5029 44.6173 22.3555 44.4943C24.413 44.4119 24.8654 46.1043 24.0021 47.7132C21.9447 51.5933 18.8169 56.0094 14.8247 58.0323C12.4374 59.2294 9.55725 59.5183 7.37599 57.7841C5.56504 56.3806 4.86609 54.0281 5.07093 51.7987L5.07206 51.7998ZM33.963 67.4432C32.5223 67.6079 31.4531 68.2691 30.0946 68.682C28.6539 69.1356 27.1727 69.1356 25.8142 68.4756C22.9745 67.1544 21.8637 63.6872 21.7815 60.7571C21.6577 56.2576 23.633 51.9239 26.3905 48.4985C27.543 47.0543 29.4361 46.8479 30.0124 48.8291C31.659 53.2869 35.0333 62.533 41.4533 59.2723L41.5771 59.2306L41.7009 59.437L41.6187 59.5194C34.8285 64.1013 31.0006 55.1857 28.8194 50.2733C28.5312 49.6956 28.1193 49.4068 27.5847 49.8197C25.7332 51.0585 24.1282 55.7634 23.7984 57.8687C23.2222 61.0877 23.6341 64.5548 26.5143 66.5361C28.9837 68.2285 30.5887 66.7832 33.0581 66.7008C31.4531 65.2972 30.3005 63.3984 29.4778 61.4171L29.4361 61.293L29.6826 61.2107L29.7243 61.293C31.6174 64.3472 37.0503 69.2597 40.5889 65.8332C44.5395 61.9531 41.2057 53.9875 38.7779 50.1074C38.3255 49.3233 37.9957 48.7456 37.3789 49.6945C36.2264 51.4275 34.8274 52.6246 32.8104 53.2034L31.9055 53.4516L32.6878 52.9563C34.2928 51.9657 35.4858 50.3974 36.3502 48.7456C37.2551 46.9291 38.9434 47.3838 39.9305 48.9521C42.2355 52.6663 44.4989 57.5788 44.2513 62.0772C44.087 64.7184 42.9345 67.3608 40.3413 68.4338C38.2017 69.3003 35.8144 68.6809 33.9618 67.4432H33.963ZM61.9073 50.1492C61.3727 51.4704 61.4132 52.7498 61.0846 54.1534C60.7548 55.5975 60.0142 56.877 58.7795 57.7446C56.1863 59.5194 52.6477 58.777 50.0545 57.3734C46.1445 55.2275 43.3464 51.3474 41.7819 47.2608C41.1235 45.5278 41.8641 43.7937 43.881 44.289C48.5722 45.0731 58.2438 46.7655 58.6557 39.5424V39.4182H58.9022V39.5424C59.4785 47.6738 49.8485 46.6008 44.4978 46.0231C43.881 45.9814 43.4691 46.1878 43.5096 46.8896C43.6739 49.1179 46.9256 52.8333 48.5722 54.1951C51.0821 56.3005 54.2932 57.6623 57.4615 56.1763C60.1369 54.8551 59.6844 52.7509 60.8358 50.5632C58.8189 51.265 56.5971 51.3068 54.498 51.0168H54.3742L54.4159 50.7697H54.498C58.0783 50.6456 65.0745 48.3755 63.8398 43.5872C62.4813 38.2212 53.9218 37.1064 49.3533 37.2723C48.4889 37.314 47.8305 37.314 48.3246 38.3046C49.2295 40.1618 49.6009 42.0189 49.0652 44.0419L48.8187 44.9084L48.777 44.0001C48.7354 42.143 47.9948 40.2859 46.9661 38.7582C45.8552 37.0241 47.0899 35.7864 48.9414 35.704C53.3039 35.5799 58.6951 36.0752 62.4397 38.5517C64.6626 39.9959 66.3497 42.3495 65.9378 45.1148C65.6497 47.4267 63.9625 49.1597 61.9051 50.1503L61.9073 50.1492ZM60.9608 17.2118C61.8657 18.3671 62.9777 18.9865 64.0064 19.9354C65.1173 20.9677 65.8579 22.2472 65.9817 23.7331C66.2282 26.9114 63.8004 29.5944 61.2905 31.121C57.5043 33.4734 52.7299 33.9687 48.409 33.2669C46.598 32.9781 45.4455 31.4504 46.8862 29.9645C49.9318 26.2909 56.228 18.7372 50.1783 14.7747L50.0961 14.6923L50.2199 14.4859L50.3438 14.5276C57.6281 18.1189 51.8666 25.9197 48.7388 30.2951C48.3685 30.7904 48.3268 31.2857 48.9447 31.5746C50.9617 32.5652 55.8171 31.5746 57.8341 30.831C60.8797 29.7163 63.6778 27.6121 63.9254 24.1032C64.1719 21.1731 62.0739 20.4296 60.7976 18.366C60.3856 20.4713 59.3569 22.4108 58.04 24.1032L57.9579 24.1856L57.7519 24.0614L57.7936 23.9373C59.4807 20.8008 61.0035 13.5776 56.3124 12.2564C50.9628 10.7705 45.7359 17.6224 43.5951 21.709C43.1832 22.4932 42.8546 23.0302 43.9654 23.1126C46.0229 23.2367 47.7933 23.855 49.2745 25.342L49.9329 25.9614L49.1102 25.5485C47.4636 24.682 45.5299 24.3932 43.6773 24.4755C41.6199 24.5996 41.1674 22.9072 42.0307 21.2972C44.0881 17.4171 47.2159 12.9593 51.2082 10.9781C53.5954 9.78101 56.4351 9.45043 58.6568 11.1846C60.4678 12.6287 61.1262 14.9406 60.9619 17.2106L60.9608 17.2118Z" fill="white"/>
<path d="M85.522 8H92.3908C94.0771 8 95.5991 8.32657 96.9153 8.9786C98.1909 9.63063 99.2191 10.5279 99.9177 11.7104C100.658 12.893 101.028 14.2795 101.028 15.8288C101.028 17.3781 100.658 18.7234 99.9177 19.9059C99.218 21.1286 98.1898 22.0259 96.9153 22.679C95.5991 23.331 94.0771 23.6576 92.3908 23.6576H85.522V8ZM92.2682 21.1699C93.4201 21.1699 94.4483 20.9659 95.3122 20.5178C96.2167 20.0698 96.8748 19.4579 97.3686 18.642C97.8208 17.8261 98.0683 16.8888 98.0683 15.8288C98.0683 14.7688 97.822 13.8304 97.3686 13.0156C96.8748 12.1997 96.2167 11.5477 95.3122 11.1398C94.4483 10.6917 93.4201 10.4465 92.2682 10.4465H88.4423V21.1699H92.2682ZM116.948 21.2111V23.6576H105.101V8H116.618V10.4465H108.022V14.5236H115.632V16.8888H108.022V21.2111H116.948ZM135.211 8V23.6576H132.785L124.064 13.0557V23.6576H121.184V8H123.57L132.291 18.6019V8H135.211ZM143.602 10.4465H138.378V8H151.746V10.4465H146.522V23.6576H143.602V10.4465ZM164.375 20.0285H156.518L154.956 23.6576H151.912L159.028 8H161.908L169.024 23.6576H165.98L164.376 20.0285H164.375ZM163.429 17.7448L160.426 10.8946L157.506 17.7448H163.429ZM172.025 8H174.946V21.1699H183.172V23.6576H172.025V8ZM108.557 32.1384L103.333 47.7548H100.248L96.3404 36.1743L92.3503 47.7548H89.2242L84 32.1384H87.044L90.952 44.0042L95.0659 32.1384H97.7398L101.73 44.0856L105.761 32.1384H108.557ZM124.105 45.3094V47.7559H112.258V32.1395H123.775V34.5448H115.219V38.6219H122.829V41.0272H115.219V45.3083H124.104L124.105 45.3094ZM128.342 32.1384H131.263V45.3083H139.531V47.7548H128.342V32.1384ZM142.821 32.1384H145.742V45.3083H154.01V47.7548H142.821V32.1384ZM171.285 32.1384V47.7548H168.899L160.179 37.1942V47.7548H157.299V32.1384H159.685L168.405 42.6991V32.1384H171.285ZM188.355 45.3094V47.7559H176.508V32.1395H188.025V34.5448H179.429V38.6219H187.079V41.0272H179.429V45.3083H188.355V45.3094ZM197.487 48C196.253 48 195.101 47.796 193.949 47.4695C192.797 47.1429 191.933 46.6948 191.275 46.1242L192.263 43.8404C192.921 44.3709 193.703 44.7778 194.649 45.1043C195.595 45.4309 196.541 45.5936 197.487 45.5936C198.639 45.5936 199.543 45.3897 200.119 45.023C200.695 44.6563 200.983 44.167 200.983 43.5551C200.983 43.107 200.819 42.7392 200.489 42.4539C200.16 42.1273 199.749 41.9233 199.255 41.7606C198.761 41.5979 198.103 41.3939 197.239 41.1899C196.047 40.9046 195.059 40.6193 194.319 40.3339C193.579 40.0486 192.921 39.5994 192.385 39.0288C191.851 38.4169 191.604 37.6021 191.604 36.5823C191.604 35.7263 191.85 34.9104 192.303 34.2171C192.797 33.5239 193.496 32.9532 194.442 32.5453C195.388 32.0972 196.58 31.8932 197.938 31.8932C198.926 31.8932 199.872 32.0158 200.776 32.2599C201.722 32.5051 202.545 32.8306 203.203 33.2798L202.257 35.5635C201.599 35.1556 200.858 34.829 200.118 34.6262C199.378 34.4222 198.638 34.2996 197.938 34.2996C196.786 34.2996 195.922 34.5036 195.346 34.9115C194.77 35.2782 194.482 35.8087 194.482 36.4206C194.482 36.8687 194.646 37.2365 194.976 37.5218C195.306 37.8072 195.716 38.0524 196.21 38.2151C196.704 38.3778 197.403 38.5417 198.226 38.7457C199.418 39.031 200.365 39.3163 201.146 39.6017C201.887 39.887 202.504 40.3362 203.038 40.9469C203.573 41.5176 203.861 42.3335 203.861 43.3522C203.861 44.2082 203.614 44.9828 203.161 45.6761C202.667 46.3694 201.969 46.94 200.981 47.348C200.035 47.796 198.842 48 197.485 48H197.487ZM212.624 48C211.39 48 210.238 47.796 209.086 47.4695C207.976 47.1429 207.07 46.6948 206.412 46.1242L207.4 43.8404C208.058 44.3709 208.84 44.7778 209.786 45.1043C210.732 45.4309 211.678 45.5936 212.624 45.5936C213.816 45.5936 214.68 45.3897 215.256 45.023C215.832 44.6563 216.12 44.167 216.12 43.5551C216.12 43.107 215.956 42.7392 215.626 42.4539C215.297 42.1273 214.886 41.9233 214.392 41.7606C213.898 41.5979 213.24 41.3939 212.376 41.1899C211.184 40.9046 210.196 40.6193 209.456 40.3339C208.716 40.0486 208.058 39.5994 207.522 39.0288C207.029 38.4169 206.741 37.6021 206.741 36.5823C206.741 35.7263 206.987 34.9104 207.44 34.2171C207.934 33.5239 208.633 32.9532 209.579 32.5453C210.566 32.0972 211.717 31.8932 213.117 31.8932C214.063 31.8932 215.009 32.0158 215.955 32.2599C216.859 32.5051 217.683 32.8306 218.341 33.2798L217.436 35.5635C216.737 35.1556 215.996 34.829 215.256 34.6262C214.516 34.4222 213.776 34.2996 213.076 34.2996C211.924 34.2996 211.06 34.5036 210.484 34.9115C209.95 35.2782 209.662 35.8087 209.662 36.4206C209.662 36.8687 209.826 37.2365 210.114 37.5218C210.444 37.8072 210.854 38.0524 211.348 38.2151C211.842 38.3778 212.541 38.5417 213.405 38.7457C214.557 39.031 215.543 39.3163 216.284 39.6017C217.025 39.887 217.683 40.3362 218.218 40.9469C218.753 41.5176 219 42.3335 219 43.3522C219 44.2082 218.754 44.9828 218.3 45.6761C217.806 46.3694 217.108 46.94 216.162 47.348C215.174 47.796 214.023 48 212.624 48Z" fill="white"/>
<path d="M77 0H76V69H77V0Z" fill="white"/>
</svg>
