<svg width="176" height="69" viewBox="0 0 176 69" fill="none" xmlns="http://www.w3.org/2000/svg">
<path fill-rule="evenodd" clip-rule="evenodd" d="M14.8913 35.1744C12.275 38.0482 10.6419 41.6263 10.1413 45.3919C9.30039 57.2421 15.9087 66.0855 19.5496 68.9193C11.3171 64.7387 6.03585 55.9699 6.89475 42.3325C-4.20072 19.1491 -4.58065 -9.87834 26.0228 3.37502C29.1973 1.14914 33.0507 -0.083011 37.0895 0.00434981C29.9014 1.5095 23.5542 5.74104 19.3533 11.8272C20.0898 9.97986 21.0945 8.29453 22.3135 6.81485C18.3486 5.01486 15.2173 4.37239 12.8008 4.61081C0.120789 5.85752 4.59175 26.5293 9.80277 39.9938C10.9426 37.9044 12.7144 36.21 14.8913 35.1762V35.1744ZM31.675 48.4332C33.499 52.9086 32.4367 60.1687 31.1222 64.0144C29.1721 70.3371 37.8692 65.0609 41.0131 57.9373C42.8623 53.6694 44.0867 48.4423 43.669 42.5545C43.4907 41.2041 43.1774 39.8755 42.7471 38.5851C45.5506 36.7814 47.9707 34.8941 50 32.9266C49.1861 35.0215 48.284 37.0981 47.3099 39.1311C48.2462 53.9897 42.6696 63.6922 33.8808 68.5153C30.9674 70.1387 28.099 67.3923 29.2622 64.5949C31.0646 60.0449 31.5219 55.6368 31.061 51.0777C30.4254 47.8963 29.9554 47.6196 27.7694 49.2304C24.6399 51.5363 22.6719 55.1436 22.0975 60.367C22.0759 54.2773 23.7612 49.8273 28.5581 47.0573C30.1175 46.1582 30.9169 46.5731 31.6786 48.435L31.675 48.4332Z" fill="white"/>
<path fill-rule="evenodd" clip-rule="evenodd" d="M52.935 22.7501C49.2131 30.2176 40.8612 35.532 34.7955 39.9855C24.387 47.615 15.1504 53.8376 22.9244 69C8.76706 57.3265 15.2885 43.1705 29.0726 33.7502C34.713 29.8954 40.705 26.0461 44.7392 21.5616C54.0925 11.1694 48.9439 0.824538 34.4904 5.04694C27.5275 7.07989 20.7853 11.801 17.765 16.2855C21.4367 8.58503 33.2073 -0.760684 42.9877 0.0492171C54.0513 0.961038 57.7391 13.1132 52.9368 22.7501H52.935Z" fill="white"/>
<path d="M95.4215 40.7036C95.9475 40.5113 97.141 40.0512 99.0002 39.3214C100.865 38.5862 103.021 37.6533 105.477 36.5191C107.933 35.3849 110.525 34.098 113.243 32.6564C115.962 31.213 118.452 29.7104 120.719 28.1502C122.987 26.59 124.858 25.0082 126.337 23.3995C127.815 21.7907 128.555 20.2323 128.555 18.7189C128.555 17.6332 128.196 16.6859 127.481 15.8807C126.767 15.0772 125.851 14.4032 124.728 13.8603C123.605 13.3175 122.343 12.8825 120.935 12.5482C119.528 12.2175 118.133 11.9568 116.747 11.7699C115.367 11.5776 114.077 11.4607 112.883 11.414C111.69 11.3655 110.739 11.3439 110.019 11.3439C108.064 11.3439 105.753 11.5434 103.081 11.9478C100.406 12.3469 97.569 12.9041 94.5653 13.6123C91.5561 14.3205 88.5052 15.1725 85.4054 16.1665C82.3055 17.1569 79.3707 18.2354 76.6046 19.3911C73.8384 20.5523 71.368 21.7907 69.1986 23.1155C67.0274 24.4366 65.3696 25.7883 64.225 27.1562C63.748 27.6774 63.5067 28.1466 63.5067 28.5726C63.5067 28.9986 63.7226 29.3419 64.1507 29.6025C64.5805 29.8631 65.0721 30.1238 65.6199 30.3844C66.1677 30.6414 66.7154 30.9147 67.265 31.1969C67.8128 31.4791 68.2082 31.8368 68.444 32.2628C68.444 32.4066 68.3733 32.5234 68.2282 32.6187C68.0885 32.7103 67.909 32.7714 67.6931 32.793C67.4791 32.82 67.2632 32.8415 67.0492 32.8667C66.8352 32.8883 66.7027 32.9009 66.6538 32.9009C65.9881 32.9009 65.3079 32.7912 64.615 32.5791C63.9257 32.3652 63.3163 32.0704 62.7903 31.693C62.2679 31.3155 61.838 30.8679 61.5006 30.3449C61.1669 29.8272 61 29.2592 61 28.6463C61 27.3683 61.6802 26.0921 63.0388 24.8141C64.3992 23.5415 66.1531 22.285 68.3098 21.0592C70.4592 19.8297 72.8444 18.6685 75.4673 17.5829C78.0937 16.4972 80.6676 15.514 83.1725 14.6404C85.6756 13.7669 87.9702 13.0191 90.0434 12.4062C92.1311 11.7897 93.691 11.3637 94.7394 11.1282L106.417 9.2858C106.992 9.19053 107.67 9.12043 108.456 9.0737C109.245 9.02516 110.114 9 111.07 9C112.025 9 113.179 9.04853 114.552 9.1438C115.913 9.23906 117.333 9.41701 118.809 9.67405C120.288 9.93468 121.757 10.2906 123.208 10.7381C124.664 11.1911 125.988 11.7555 127.158 12.4421C128.325 13.1288 129.268 13.9754 129.983 14.9927C130.697 16.0101 131.056 17.1838 131.056 18.505C131.056 20.0652 130.315 21.7422 128.838 23.5415C127.36 25.3353 125.466 27.122 123.15 28.8961C120.834 30.6684 118.26 32.3688 115.419 34.0027C112.582 35.633 109.767 37.0746 106.978 38.3274C104.184 39.5784 101.598 40.5868 99.2106 41.3435C96.8254 42.1003 94.9444 42.4777 93.5586 42.4777C93.0362 42.4777 92.7732 42.404 92.7732 42.2638C92.7732 42.1686 92.8784 42.0374 93.0925 41.872C93.3083 41.7066 93.5568 41.5556 93.8434 41.4118C94.1336 41.268 94.4184 41.1296 94.7032 40.9858C94.9934 40.842 95.2292 40.7522 95.4178 40.7036H95.4215ZM76.1003 52.1193C76.2454 52.2146 76.3162 52.3799 76.3162 52.6154C76.3162 53.0414 76.1275 53.6112 75.7466 54.3194C75.3657 55.0276 74.9086 55.7268 74.3862 56.4099C73.8602 57.0965 73.2907 57.7004 72.6667 58.2217C72.0482 58.7394 71.5221 59 71.0923 59C70.7585 59 70.5082 58.8832 70.3431 58.6441C70.1763 58.4104 70.0928 58.1498 70.0928 57.8658C70.0928 57.4398 70.2688 56.861 70.6279 56.1277C70.9871 55.3979 71.4169 54.6286 71.9176 53.8251C72.4182 53.0216 72.9297 52.2523 73.4575 51.5172C73.9799 50.7874 74.388 50.1619 74.6728 49.6406L91.061 24.8914C91.6359 24.4654 92.1837 24.2533 92.7061 24.2533C93.5169 24.2533 93.925 24.6793 93.925 25.5313C93.925 25.9573 93.7582 26.4749 93.4244 27.0915C92.7533 28.1771 92.2527 28.8512 91.9207 29.1118C91.587 29.3724 91.324 29.5108 91.1317 29.5378C90.9431 29.5594 90.7635 29.6079 90.5966 29.678C90.4297 29.7517 90.1794 30.1382 89.8475 30.8517C89.7024 31.1339 89.2598 31.808 88.5234 32.8721C87.7833 33.9326 86.9218 35.1962 85.9459 36.6665C84.9682 38.1315 83.9071 39.6917 82.7626 41.3471C81.618 42.999 80.5696 44.5718 79.6137 46.0619C78.6578 47.552 77.8507 48.8389 77.1796 49.9246C76.5139 51.0103 76.1529 51.7454 76.1058 52.1229L76.1003 52.1193ZM112.122 48.2224C111.372 48.2224 110.741 47.8539 110.228 47.1314C110.036 46.8132 109.833 46.6622 109.597 46.6622C109.306 46.6622 109.083 46.8006 108.891 47.0756C108.702 47.2626 108.488 47.4747 108.225 47.7353C107.962 47.9959 107.687 48.244 107.378 48.492C107.081 48.7401 106.782 48.9666 106.506 49.1535C106.221 49.3315 105.971 49.4267 105.73 49.4267C105.383 49.4267 105.028 49.3099 104.659 49.0708C104.3 48.8372 103.809 48.4579 103.226 47.9366C102.893 47.5592 102.726 47.1116 102.726 46.5903C102.726 46.0691 102.88 45.5298 103.19 44.96C103.502 44.3902 103.87 43.86 104.322 43.3657C104.777 42.8696 105.243 42.3968 105.708 41.9439C106.185 41.4963 106.615 41.1045 106.997 40.7755C107.935 39.9721 109.036 39.573 110.264 39.573C110.549 39.573 110.895 39.6288 111.291 39.751C111.694 39.8678 112.089 40.0332 112.47 40.2471C112.851 40.4592 113.163 40.7072 113.426 40.9894C113.685 41.2716 113.816 41.5808 113.816 41.9115C113.816 42.1506 113.723 42.4328 113.531 42.7635C113.386 42.9559 113.163 43.3207 112.829 43.8636C112.504 44.4082 112.337 44.7983 112.337 45.0337C112.337 45.1775 112.372 45.3285 112.446 45.4939C112.517 45.6592 112.635 45.7419 112.827 45.7419C113.161 45.7419 113.591 45.6017 114.139 45.3195C114.686 45.0319 115.249 44.703 115.818 44.3237C116.393 43.9463 116.928 43.5544 117.427 43.1554C117.931 42.7509 118.321 42.4346 118.612 42.1991C119.134 41.8163 119.515 41.6293 119.756 41.6293C120.09 41.6293 120.257 41.8163 120.257 42.1991C120.257 42.6683 119.923 43.2506 119.257 43.9337C118.586 44.6203 117.801 45.28 116.894 45.9199C115.987 46.558 115.084 47.1026 114.188 47.5538C113.281 48.0013 112.588 48.2278 112.122 48.2278V48.2224ZM105.871 46.8006C106.06 46.6622 106.455 46.3746 107.077 45.9756C107.683 45.5712 108.293 45.1236 108.915 44.6419C109.521 44.1673 110.068 43.6946 110.573 43.247C111.059 42.7869 111.309 42.4436 111.309 42.2045C111.309 41.9655 111.204 41.8145 110.988 41.7695C110.781 41.721 110.58 41.6958 110.391 41.6958C110.01 41.6958 109.544 41.8612 108.971 42.2045C108.409 42.5353 107.848 42.9613 107.313 43.4609C106.778 43.9642 106.286 44.4729 105.857 45.0086C105.439 45.5298 105.225 45.9648 105.225 46.2955C105.225 46.6263 105.369 46.8042 105.655 46.8042H105.871V46.8006ZM120.112 48.8569C119.243 48.8569 118.537 48.5262 117.989 47.8665C117.454 47.2051 117.179 46.4717 117.179 45.6664C117.179 44.4837 117.587 43.3028 118.398 42.12C119.208 40.9373 119.945 39.9469 120.616 39.1434C120.756 38.9996 121.042 38.6563 121.47 38.1135C121.9 37.5689 122.343 37.0045 122.794 36.4149C123.251 35.8235 123.667 35.2681 124.048 34.7468C124.43 34.2256 124.617 33.8949 124.617 33.7564C124.617 33.4221 124.478 33.2568 124.191 33.2568C124.095 33.2568 123.975 33.2963 123.832 33.3646C123.687 33.4347 123.569 33.4689 123.473 33.4689C118.895 34.2723 114.434 35.2681 110.094 36.4508C109.852 36.5425 109.629 36.6288 109.414 36.6989C109.199 36.769 108.971 36.8031 108.733 36.8031C108.443 36.8031 108.111 36.6036 107.728 36.2028C107.346 35.7984 107.159 35.455 107.159 35.1728C107.159 34.9374 107.264 34.6857 107.48 34.4287C107.694 34.1681 107.923 34.0386 108.16 34.0386C108.401 34.0872 108.59 34.1213 108.735 34.1429C108.875 34.1681 108.998 34.1824 109.091 34.1824C109.569 34.1824 110.021 34.1088 110.451 33.9703C110.881 33.8265 111.336 33.7313 111.81 33.6828C113.91 33.5443 115.976 33.2226 118.002 32.7265C120.028 32.2304 122.067 31.8619 124.12 31.6265C125.598 31.4395 126.781 30.9183 127.664 30.0663C128.546 29.2143 129.391 28.3191 130.204 27.3719C130.445 27.0897 130.659 26.8021 130.848 26.5199C131.04 26.2377 131.256 25.977 131.492 25.7416C131.728 25.5025 131.943 25.3857 132.136 25.3857C132.373 25.3857 132.6 25.4953 132.816 25.7038C133.032 25.9159 133.137 26.1424 133.137 26.3815C132.756 27.0411 132.373 27.6325 131.992 28.1502C131.611 28.6714 131.256 29.1675 130.919 29.6403C130.826 29.7355 130.764 29.8524 130.743 29.9962C130.715 30.1346 130.681 30.2568 130.632 30.3485C130.777 30.397 130.991 30.4222 131.276 30.4222C135.284 29.7571 139.266 29.2268 143.226 28.8224C147.185 28.4234 151.145 28.2221 155.106 28.2221C155.87 28.2221 156.251 28.2706 156.251 28.3605C156.251 28.5043 155.177 28.7164 153.031 28.9986C149.931 29.4713 146.839 29.8757 143.764 30.2065C140.686 30.5372 137.621 31.0099 134.568 31.6229C133.757 31.7667 132.966 31.8583 132.205 31.9051C131.441 31.9536 130.656 32.0956 129.845 32.3311C129.415 32.4749 129.019 32.6258 128.66 32.7912C128.305 32.9566 127.958 33.2298 127.625 33.6073C126.48 35.0237 125.335 36.4454 124.191 37.8619C123.043 39.2782 121.973 40.7468 120.968 42.2602C120.732 42.591 120.405 43.0781 120.003 43.7108C119.595 44.3489 119.393 44.9313 119.393 45.4489C119.393 45.6395 119.44 45.8138 119.538 45.9828C119.635 46.1481 119.801 46.2308 120.037 46.2308C120.371 46.2308 120.835 46.0655 121.432 45.7311C122.029 45.4004 122.66 45.014 123.331 44.561C123.999 44.1134 124.655 43.6533 125.296 43.1787C125.94 42.7042 126.453 42.3052 126.836 41.9744C127.265 41.6886 127.625 41.5484 127.909 41.5484C128.243 41.5484 128.408 41.6869 128.408 41.9744C128.408 42.4921 127.978 43.1086 127.124 43.8168C126.834 44.099 126.397 44.525 125.8 45.0948C125.203 45.6592 124.559 46.229 123.866 46.7934C123.173 47.3632 122.493 47.845 121.828 48.2494C121.162 48.6484 120.587 48.8497 120.108 48.8497L120.112 48.8569ZM129.701 39.9954C129.701 40.1338 129.689 40.3262 129.667 40.5598C129.64 40.7989 129.605 41.0811 129.556 41.4118C130.178 41.0344 130.859 40.7594 131.595 40.594C132.335 40.4286 133.111 40.3459 133.924 40.3459C134.113 40.3459 134.41 40.3585 134.818 40.3801C135.221 40.4053 135.629 40.4538 136.034 40.5239C136.442 40.594 136.797 40.7018 137.107 40.8402C137.419 40.984 137.572 41.1961 137.572 41.4783C137.572 41.7174 137.454 41.9169 137.213 42.0823C136.977 42.2477 136.572 42.3303 135.997 42.3303C134.9 42.3303 133.937 42.3915 133.099 42.5083C132.266 42.6251 131.468 42.8246 130.701 43.1122C129.937 43.3944 129.223 43.7953 128.557 44.3165C127.891 44.8378 127.198 45.4993 126.484 46.3027C126.339 46.5382 126.208 46.7503 126.088 46.9408C125.97 47.1278 125.813 47.2931 125.624 47.4369C125.432 47.6275 125.194 47.7191 124.909 47.7191C124.668 47.7191 124.432 47.6364 124.191 47.4711C123.953 47.3057 123.835 47.1062 123.835 46.8707C123.835 46.5831 124.049 46.0277 124.479 45.2027C124.909 44.3759 125.408 43.5257 125.979 42.6521C126.554 41.7749 127.137 40.9822 127.733 40.274C128.33 39.5658 128.773 39.2099 129.058 39.2099C129.487 39.2099 129.701 39.4706 129.701 39.9918V39.9954ZM142.152 42.9019C142.631 42.4759 143.095 42.1542 143.55 41.9421C144.002 41.73 144.37 41.6239 144.66 41.6239C144.994 41.6239 145.161 41.7408 145.161 41.9798C145.161 42.4022 144.684 42.9487 143.728 43.6101C143.206 43.9409 142.645 44.4496 142.048 45.1362C141.452 45.8174 140.835 46.5058 140.189 47.1925C139.545 47.8791 138.899 48.4777 138.256 49.0007C137.612 49.522 136.98 49.7826 136.362 49.7826C135.56 49.7826 134.893 49.4483 134.367 48.7868C133.832 48.1272 133.569 47.4172 133.569 46.6622C133.569 46.2848 133.726 45.7024 134.026 44.9241C134.323 44.1422 134.679 43.3639 135.096 42.582C135.517 41.8037 135.981 41.1171 136.503 40.5257C137.029 39.9343 137.508 39.6395 137.938 39.6395C138.272 39.6395 138.522 39.7923 138.687 40.0997C138.854 40.4071 138.938 40.7522 138.938 41.1296C138.938 41.694 138.771 42.1937 138.437 42.6161C138.292 42.7599 138.069 42.9864 137.757 43.2902C137.445 43.5993 137.147 43.9211 136.863 44.25C136.578 44.5808 136.327 44.9115 136.113 45.2404C135.899 45.5712 135.789 45.8318 135.789 46.0223C135.789 46.3045 135.899 46.5652 136.113 46.8006C136.327 47.0397 136.552 47.1565 136.794 47.1565C137.035 47.1565 137.218 47.0864 137.363 46.9444L142.157 42.9019H142.152ZM140.791 38.2231C140.554 38.2231 140.327 38.1063 140.111 37.8798C139.897 37.6408 139.79 37.4197 139.79 37.1932C139.79 36.8283 139.935 36.5066 140.22 36.2585C140.505 36.0105 140.838 35.881 141.219 35.881C141.553 35.881 141.959 35.9637 142.438 36.1201C142.917 36.2855 143.153 36.5425 143.153 36.911C143.057 37.1932 142.736 37.4754 142.188 37.772C141.64 38.0668 141.17 38.2249 140.79 38.2249L140.791 38.2231ZM148.809 48.0085C147.949 48.5729 147.089 48.8551 146.235 48.8551C145.709 48.8551 145.161 48.7383 144.586 48.5028C144.016 48.2638 143.489 47.96 143.011 47.5807C142.534 47.2033 142.143 46.7503 141.832 46.2344C141.52 45.7132 141.368 45.1919 141.368 44.6742C141.368 44.4837 141.417 44.2015 141.513 43.8222C141.751 43.301 142.07 42.7438 142.478 42.1542C142.881 41.5628 143.347 41.011 143.873 40.4897C144.399 39.9685 144.969 39.5425 145.593 39.2117C146.211 38.881 146.855 38.7156 147.523 38.7156C148.145 38.7156 148.714 38.881 149.242 39.2117C149.387 39.307 149.527 39.4023 149.672 39.4939C149.817 39.5892 149.984 39.6845 150.173 39.7815C150.414 39.8732 150.699 39.9199 151.032 39.9199C151.366 39.9199 151.509 40.132 151.462 40.558C151.462 40.7504 151.353 40.9715 151.138 41.2321C150.923 41.4927 150.673 41.7408 150.388 41.9798C150.104 42.2153 149.817 42.4148 149.529 42.5802C149.244 42.7456 149.028 42.8067 148.883 42.7581C148.743 42.7581 148.624 42.6413 148.527 42.4022C148.098 41.8378 147.62 41.5556 147.093 41.5556C146.712 41.5556 146.344 41.685 145.988 41.9421C145.629 42.2027 145.304 42.5119 145.019 42.8678C144.735 43.2201 144.497 43.585 144.305 43.9624C144.116 44.3453 144.02 44.6742 144.02 44.9582C144.02 45.4795 144.292 45.8444 144.84 46.0583C145.393 46.2704 145.857 46.3746 146.238 46.3746C146.523 46.3746 146.786 46.3171 147.024 46.2003C147.265 46.078 147.503 45.9738 147.738 45.8785C148.883 45.4525 149.9 44.9223 150.782 44.2842C151.664 43.6461 152.585 42.972 153.535 42.2638C154.299 41.7426 154.943 41.4819 155.469 41.4819C155.754 41.4819 155.899 41.6042 155.899 41.8378C155.899 42.3591 155.373 43.0421 154.324 43.8923C153.369 44.5538 152.453 45.2314 151.566 45.9127C150.684 46.5993 149.768 47.2949 148.812 48.0067L148.809 48.0085ZM160.544 42.9019C161.021 42.4759 161.487 42.1542 161.943 41.9421C162.394 41.73 162.763 41.6239 163.047 41.6239C163.385 41.6239 163.552 41.7408 163.552 41.9798C163.552 42.4022 163.073 42.9487 162.117 43.6101C161.594 43.9409 161.034 44.4496 160.437 45.1362C159.84 45.8174 159.218 46.5058 158.578 47.1925C157.934 47.8791 157.288 48.4777 156.644 49.0007C156 49.522 155.367 49.7826 154.751 49.7826C153.949 49.7826 153.282 49.4483 152.755 48.7868C152.22 48.1272 151.957 47.4172 151.957 46.6622C151.957 46.2848 152.11 45.7024 152.409 44.9241C152.707 44.1422 153.066 43.3639 153.483 42.582C153.9 41.8037 154.364 41.1171 154.89 40.5257C155.416 39.9343 155.895 39.6395 156.323 39.6395C156.657 39.6395 156.906 39.7923 157.072 40.0997C157.239 40.4071 157.323 40.7522 157.323 41.1296C157.323 41.694 157.156 42.1937 156.822 42.6161C156.677 42.7599 156.448 42.9864 156.142 43.2902C155.83 43.5993 155.532 43.9211 155.248 44.25C154.959 44.5808 154.709 44.9115 154.493 45.2404C154.279 45.5712 154.174 45.8318 154.174 46.0223C154.174 46.3045 154.279 46.5652 154.493 46.8006C154.707 47.0397 154.936 47.1565 155.173 47.1565C155.411 47.1565 155.603 47.0864 155.748 46.9444L160.541 42.9019H160.544ZM159.184 38.2231C158.948 38.2231 158.719 38.1063 158.504 37.8798C158.29 37.6408 158.184 37.4197 158.184 37.1932C158.184 36.8283 158.324 36.5066 158.614 36.2585C158.899 36.0105 159.233 35.881 159.614 35.881C159.947 35.881 160.356 35.9637 160.833 36.1201C161.306 36.2855 161.547 36.5425 161.547 36.911C161.451 37.1932 161.13 37.4754 160.579 37.772C160.031 38.0668 159.566 38.2249 159.184 38.2249V38.2231ZM167.867 48.2224C167.118 48.2224 166.485 47.8539 165.971 47.1314C165.779 46.8132 165.578 46.6622 165.34 46.6622C165.05 46.6622 164.827 46.8006 164.634 47.0756C164.446 47.2626 164.232 47.4747 163.969 47.7353C163.718 47.9834 163.434 48.244 163.122 48.492C162.824 48.7401 162.525 48.9666 162.249 49.1535C161.964 49.3315 161.714 49.4267 161.473 49.4267C161.132 49.4267 160.771 49.3099 160.403 49.0708C160.044 48.8372 159.556 48.4579 158.968 47.9366C158.634 47.5592 158.469 47.1116 158.469 46.5903C158.469 46.0691 158.621 45.5298 158.933 44.96C159.245 44.3902 159.614 43.86 160.069 43.3657C160.521 42.8696 160.985 42.3968 161.451 41.9439C161.93 41.4963 162.358 41.1045 162.741 40.7755C163.684 39.9721 164.78 39.573 166.007 39.573C166.292 39.573 166.639 39.6288 167.034 39.751C167.437 39.8678 167.832 40.0332 168.213 40.2471C168.594 40.4592 168.906 40.7072 169.169 40.9894C169.432 41.2716 169.559 41.5808 169.559 41.9115C169.559 42.1506 169.466 42.4328 169.274 42.7635C169.135 42.9559 168.906 43.3207 168.572 43.8636C168.248 44.4082 168.081 44.7983 168.081 45.0337C168.081 45.1775 168.115 45.3285 168.191 45.4939C168.262 45.6592 168.38 45.7419 168.572 45.7419C168.906 45.7419 169.336 45.6017 169.884 45.3195C170.431 45.0319 170.994 44.703 171.563 44.3237C172.138 43.9463 172.673 43.5544 173.178 43.1554C173.678 42.7509 174.072 42.4346 174.357 42.1991C174.879 41.8163 175.264 41.6293 175.501 41.6293C175.835 41.6293 176 41.8163 176 42.1991C176 42.6683 175.666 43.2506 175.001 43.9337C174.329 44.6203 173.544 45.28 172.637 45.9199C171.73 46.558 170.827 47.1026 169.931 47.5538C169.024 48.0013 168.331 48.2278 167.865 48.2278L167.867 48.2224ZM161.618 46.8006C161.81 46.6622 162.202 46.3746 162.824 45.9756C163.434 45.5712 164.039 45.1236 164.662 44.6419C165.267 44.1673 165.815 43.6946 166.319 43.247C166.806 42.7869 167.056 42.4436 167.056 42.2045C167.056 41.9655 166.951 41.8145 166.737 41.7695C166.535 41.721 166.329 41.6958 166.14 41.6958C165.759 41.6958 165.293 41.8612 164.72 42.2045C164.159 42.5353 163.6 42.9613 163.062 43.4609C162.527 43.9642 162.035 44.4729 161.605 45.0086C161.188 45.5298 160.974 45.9648 160.974 46.2955C160.974 46.6263 161.119 46.8042 161.404 46.8042H161.618V46.8006Z" fill="white"/>
<path d="M91.3444 56.4893C91.3444 56.9647 91.2517 57.4225 91.0717 57.8647C90.8972 58.3031 90.6318 58.6888 90.2901 59.0239C89.9519 59.359 89.5775 59.585 89.1739 59.7058C88.7649 59.8286 88.2905 59.889 87.7451 59.889H86V53.1072H87.7015C88.2068 53.1072 88.6595 53.1637 89.0594 53.2767C89.4593 53.3896 89.8374 53.602 90.1937 53.9079C90.55 54.2196 90.8318 54.6014 91.0372 55.0632C91.239 55.5191 91.3444 55.9964 91.3444 56.4893ZM90.7118 56.4893C90.7118 55.6087 90.4827 54.9814 90.0356 54.6014C89.5866 54.2254 89.2048 53.9839 88.8922 53.8806C88.5849 53.7773 88.1014 53.7208 87.447 53.7208H86.6344V59.2753H87.447C87.9778 59.2753 88.4141 59.2421 88.7485 59.172C89.083 59.1019 89.492 58.8622 89.9792 58.4512C90.4664 58.042 90.7136 57.3913 90.7136 56.4912L90.7118 56.4893ZM97.7867 59.8909H94.3329V53.1091H97.7867V53.7208H94.9655V56.1698H97.694V56.7815H94.9655V59.2733H97.7867V59.8909ZM105.918 59.8909H105.285L101.515 53.9235V59.8909H100.882V53.1091H101.735L105.287 58.7336V53.1091H105.92V59.8909H105.918ZM112.118 53.7208H110.681V59.8909H110.048V53.7208H108.594V53.1091H112.118V53.7208ZM119.701 59.8909H119.01L118.101 57.6173H115.147L114.233 59.887L113.551 59.8909L116.279 53.1091H116.977L118.859 57.8004L119.699 59.8909H119.701ZM117.854 57.0036L116.627 53.8806L115.4 57.0036H117.852H117.854ZM125.65 59.8909H122.398V53.1091H123.031V59.2753H125.65V59.8928V59.8909ZM137.055 58.12C136.783 58.681 136.379 59.133 135.846 59.4818C135.319 59.8305 134.752 60 134.154 60C133.227 60 132.44 59.661 131.798 58.9869C131.156 58.3128 130.837 57.4751 130.837 56.4776C130.837 55.4801 131.156 54.693 131.794 54.0131C132.436 53.339 133.205 53 134.107 53C134.708 53 135.297 53.1695 135.874 53.5085C136.45 53.8475 136.835 54.2956 137.03 54.8508H136.326C136.103 54.469 135.786 54.1767 135.381 53.9644C134.981 53.752 134.559 53.6488 134.116 53.6488C133.4 53.6488 132.783 53.9313 132.256 54.5021C131.733 55.0671 131.469 55.7256 131.469 56.4756C131.469 57.2627 131.736 57.9349 132.269 58.4999C132.805 59.0649 133.434 59.3473 134.154 59.3473C134.585 59.3473 134.994 59.2382 135.385 59.0181C135.781 58.7979 136.101 58.496 136.352 58.118H137.055V58.12ZM143.296 59.8909H140.044V53.1091H140.676V59.2753H143.296V59.8928V59.8909ZM146.592 59.8909H145.963V53.1091H146.592V59.8909ZM154.894 59.8909H154.261L150.491 53.9235V59.8909H149.858V53.1091H150.711L154.261 58.7336V53.1091H154.894V59.8909ZM158.793 59.8909H158.16V53.1091H158.793V59.8909ZM168 58.12C167.727 58.681 167.327 59.133 166.797 59.4818C166.264 59.8305 165.702 60 165.104 60C164.173 60 163.39 59.661 162.748 58.9869C162.107 58.3128 161.785 57.4751 161.785 56.4776C161.785 55.4801 162.105 54.693 162.743 54.0131C163.381 53.339 164.15 53 165.05 53C165.657 53 166.246 53.1695 166.82 53.5085C167.396 53.8475 167.778 54.2956 167.973 54.8508H167.275C167.046 54.469 166.729 54.1767 166.329 53.9644C165.926 53.752 165.502 53.6488 165.059 53.6488C164.346 53.6488 163.726 53.9313 163.205 54.5021C162.681 55.0671 162.417 55.7256 162.417 56.4756C162.417 57.2627 162.681 57.9349 163.217 58.4999C163.75 59.0649 164.377 59.3473 165.102 59.3473C165.528 59.3473 165.937 59.2382 166.333 59.0181C166.724 58.7979 167.049 58.496 167.3 58.118H168V58.12Z" fill="white"/>
</svg>
