<svg width="175" height="69" viewBox="0 0 175 69" fill="none" xmlns="http://www.w3.org/2000/svg">
<path d="M16.8432 31.3794C17.6819 29.2673 18.0806 28.1597 19.4749 31.2713C20.9293 34.5166 21.6882 35.826 24.6011 31.5574C28.0569 26.497 29.4212 16.126 26.2132 14.2761C21.1488 12.1401 18.7477 17.4447 12.9964 17.9147L16.7215 15.897C16.1461 15.1887 16.9727 15.5386 15.3168 14.6217C15.3143 14.62 13.6233 13.9798 13.553 13.9645C5.61412 12.2959 7.40803 24.8531 11.5009 31.1053C14.3239 35.4173 15.5012 34.7541 16.8424 31.3786M3.65814 43.253H19.4192C22.9881 43.253 26.2312 44.7003 28.58 47.0321C30.9287 49.3639 32.3856 52.5828 32.3856 56.1261C32.3856 59.6702 30.9287 62.8891 28.58 65.2209C26.2312 67.5527 22.989 69 19.4192 69H13.5444L9.41375 61.8973H19.4183C21.0133 61.8973 22.4651 61.2469 23.5207 60.1997C24.5762 59.1517 25.2305 57.7104 25.2305 56.1269C25.2305 54.5435 24.5762 53.1013 23.5207 52.0533C22.4659 51.0061 21.0133 50.3557 19.4183 50.3557H7.78791L3.65814 43.2539V43.253ZM36.6354 0C39.5981 0 42 2.38459 42 5.32681C42 8.26904 39.5981 10.6536 36.6354 10.6536C33.6727 10.6536 31.27 8.26818 31.27 5.32681C31.27 2.38545 33.6719 0 36.6354 0ZM18.0206 5.572C22.9967 5.572 27.5021 7.57434 30.764 10.812C34.0252 14.0496 36.0429 18.5225 36.0429 23.4628C36.0429 28.4032 34.0252 32.8761 30.764 36.1137C27.5029 39.3513 22.9976 41.3545 18.0206 41.3545C13.0436 41.3545 8.53909 39.3513 5.27883 36.1137C2.01772 32.8761 0 28.4032 0 23.4628C0 18.5225 2.01772 14.0496 5.27883 10.812C8.53995 7.57434 13.0453 5.572 18.0206 5.572Z" fill="white"/>
<path d="M161.683 40.7199V60H175V57.1399H164.784V40.7206H161.684L161.683 40.7199ZM149.356 53.152H141.16L145.257 43.9747L149.355 53.152H149.356ZM152.346 60H155.64L146.946 40.7199H143.569L134.875 60H138.169L139.997 55.9573H150.49L152.345 60H152.346ZM123.074 60H126.202V43.4979H132.544V40.7199H116.707V43.4979H123.075V60H123.074ZM96.3503 40.7199H93.9695V60H97.0975V46.3953L108.089 60H110.442V40.7199H107.342V54.4356L96.3503 40.7199ZM86.6263 56.9748H75.4129V51.8044H86.1004V48.9436H75.4129V43.7184H86.5436V40.7199H72.3124V60H86.6263V56.9748ZM51.264 43.6636H55.5273C60.0952 43.6636 62.0893 46.9135 62.1728 50.1683C62.2555 53.56 60.262 57.0303 55.5273 57.0303H51.264V43.6636ZM48.1904 40.7199V60H55.5273C62.3099 60 65.3559 55.0725 65.2456 50.195C65.1629 45.4276 62.1438 40.7199 55.5273 40.7199H48.1904ZM144.372 31.7196H147.5V15.2176H153.841V12.4396H138.003V15.2176H144.372V31.7196ZM129.388 24.8723H121.192L125.29 15.6944L129.388 24.8723ZM132.377 31.7196H135.671L126.978 12.4396H123.601L114.907 31.7196H118.201L120.028 27.677H130.522L132.377 31.7196ZM109.751 28.6945H98.5375V23.5241H109.225V20.6632H98.5375V15.4381H109.668V12.4396H95.4363V31.7196H109.75V28.6938L109.751 28.6945ZM81.1437 15.273C83.6906 15.273 84.8259 17.0876 84.8259 18.8206C84.8259 20.5537 83.6906 22.2594 81.1161 22.2594H75.2185V15.2737H81.1429L81.1437 15.273ZM88.5088 31.1705L82.7221 24.7614C86.5436 24.2115 87.9828 21.5157 87.9828 18.7666C87.9828 15.5202 85.6296 12.4684 81.1437 12.4684C78.1259 12.4684 75.1358 12.4403 72.118 12.4403V31.7203H75.2185V25.0647H79.3163L85.2132 31.7203H88.8396L88.5074 31.1705H88.5088ZM64.3599 14.9156C62.3664 12.9627 59.763 12 57.1885 12C50.5719 12 47 16.7308 47 22.2868C47 27.4031 50.0736 32.1052 57.1885 32.1052C60.455 32.1052 62.8648 30.8679 64.8024 28.75V20.8571H56.524V23.6069H61.9225V27.5127C60.3716 28.8061 58.8489 29.2176 57.1877 29.2176C52.149 29.2176 50.0453 25.807 50.0453 22.2868C50.0177 18.216 52.6474 14.8334 57.1877 14.8334C58.9882 14.8334 61.0361 15.5483 62.4209 16.8959L64.3592 14.9156H64.3599Z" fill="white"/>
</svg>
